<?xml version="1.0" standalone="no"?>
<!DOCTYPE svg PUBLIC "-//W3C//DTD SVG 1.1//EN" "http://www.w3.org/Graphics/SVG/1.1/DTD/svg11.dtd" >
<svg xmlns="http://www.w3.org/2000/svg">
<metadata>
This is a custom SVG webfont generated by Font Squirrel.
Copyright   : Copyright c TypeMarket Ltd 1995 All rights reserved
Foundry     : TypeMarket Ltd
</metadata>
<defs>
<font id="AnastasiaScriptRegular" horiz-adv-x="796" >
<font-face units-per-em="2048" ascent="1638" descent="-410" />
<missing-glyph horiz-adv-x="397" />
<glyph unicode=" "  horiz-adv-x="397" />
<glyph unicode="&#x09;" horiz-adv-x="397" />
<glyph unicode="&#xa0;" horiz-adv-x="397" />
<glyph unicode="!" horiz-adv-x="681" d="M489 45q0 35 16.5 58.5t55.5 23.5q59 0 60 -51q0 -41 -18.5 -64.5t-61.5 -23.5q-25 0 -38.5 11t-13.5 46zM598 176l430 791l152 12l-545 -803h-37z" />
<glyph unicode="&#x22;" horiz-adv-x="681" d="M688 924v26q0 37 9.5 63.5t37.5 26.5q29 0 38 -26.5t9 -63.5v-26q0 -14 -2 -31l-24 -320q-2 -23 -6.5 -38t-14.5 -15t-14 15.5t-6 37.5l-25 320q-2 17 -2 31zM958 924v26q0 37 9.5 63.5t38.5 26.5t38 -26.5t9 -63.5v-26q0 -14 -2 -31l-25 -320q-2 -23 -6 -38t-14 -15 t-14.5 15.5t-6.5 37.5l-24 320q-3 17 -3 31z" />
<glyph unicode="#" d="M440 315v54h168l76 221h-147v53h168l108 311h64l-109 -311h195l104 311h63l-106 -311h152v-53h-172l-80 -221h151v-54h-172l-106 -315h-64l111 315h-193l-108 -315h-66l111 315h-148zM672 369h192l76 221h-190z" />
<glyph unicode="$" d="M371 207q0 74 50 124t124 50q31 0 58.5 -14.5t53.5 -32.5l111 207q-23 41 -36 89t-13 95q0 55 23.5 100t63.5 78t90 51.5t103 20.5l60 110h39l-62 -112q29 -4 57.5 -14.5t55.5 -22.5l80 149h41l-92 -170q35 -25 54 -55.5t19 -77.5q0 -76 -45 -124t-108 -48q-37 0 -68 25 l-102 -193q12 -29 21 -52t14.5 -44.5t7.5 -46.5t2 -55q0 -53 -23.5 -100.5t-62.5 -83t-90.5 -57t-106.5 -21.5h-8l-61 -117h-37l61 119q-35 2 -67.5 7t-57.5 15l-76 -141h-36l84 158q-61 25 -91 74t-30 110zM395 199q0 -51 29 -91t78 -65l94 176q-14 2 -17.5 20.5t-3.5 26.5 q0 12 5 33q-10 23 -30 30t-42 7q-57 0 -85 -42t-28 -95zM532 31q23 -12 58 -17.5t65 -7.5l195 365q-14 35 -30.5 67.5t-33.5 67.5l-106 -199q10 -23 10 -47q0 -29 -17.5 -46t-33.5 -17q-10 0 -16 2zM696 6q49 4 86 24.5t60.5 49.5t36 62.5t12.5 64.5q0 49 -6 76.5t-15 50.5z M801 758q0 -27 5 -50.5t21 -56.5l160 299q-76 -10 -131 -58t-55 -134zM844 616q16 -33 32.5 -66.5t32.5 -68.5l92 174q-4 4 -8 16.5t-4 18.5q0 33 16.5 54.5t51.5 21.5l80 145q-20 16 -52 25.5t-61 13.5zM1092 750q20 -14 26 -35t17 -41q-2 -6 8 -8t14 -2q20 0 45 31.5 t25 88.5q0 33 -18.5 59.5t-43.5 47.5z" />
<glyph unicode="%" horiz-adv-x="1593" d="M608 596q0 86 43 179t110.5 172t148.5 129t159 50q43 0 70.5 -14t43 -36.5t21.5 -52.5t6 -60q0 -49 -18 -112t-51 -127.5t-76 -124.5t-91 -108.5t-99.5 -77t-98.5 -28.5t-79.5 20.5t-52 51t-28 67.5t-8.5 72zM690 537q0 -43 23.5 -81t70.5 -38q31 0 71 25.5t83 69.5 t83 101.5t72.5 121t52 128t19.5 121.5q0 70 -26.5 89.5t-55.5 19.5q-39 0 -83 -28t-88 -74t-84 -104.5t-70.5 -119.5t-49 -121.5t-18.5 -109.5zM756 -12l831 1151h45l-831 -1151h-45zM1190 211q0 86 43 179t110.5 172t148.5 129t159 50q43 0 70.5 -14t43 -36.5t21.5 -52.5 t6 -60q0 -49 -18.5 -112t-51 -127.5t-75.5 -124.5t-91.5 -108.5t-99.5 -77t-98 -28.5t-80 20.5t-52.5 51t-27.5 67.5t-8 72zM1272 152q0 -43 23.5 -81t70.5 -38q31 0 71 25.5t83 69.5t82.5 101.5t72.5 121t52.5 128t19.5 121.5q0 70 -26.5 89.5t-55.5 19.5q-39 0 -83 -28 t-88 -74t-84 -104.5t-70.5 -119.5t-49 -121.5t-18.5 -109.5z" />
<glyph unicode="&#x26;" horiz-adv-x="1024" d="M231 -373q-2 76 32 126t77 79t84 41t53 12t12 -10t-24.5 -11t-77.5 -28q-14 -8 -36.5 -22.5t-43 -36t-36 -53t-15.5 -72.5q0 -57 26.5 -99t65.5 -69t84 -40t82 -13q111 0 218.5 47t193.5 127t138 184.5t52 216.5q0 39 -9 96.5t-24 96.5q-35 -43 -76.5 -81t-92 -66.5 t-107.5 -46t-121 -17.5q-57 0 -108.5 17.5t-89 49t-59 75.5t-21.5 99q0 102 46 174t117.5 123.5t157.5 86t168 61.5q-14 51 -14 110q0 57 16 120t50 114t84 84t118 33q72 0 113 -42t41 -114q0 -70 -39 -122t-96.5 -91t-123 -65.5t-118.5 -47.5q6 -35 25.5 -87t45 -109.5 t52 -113.5t45.5 -97q33 41 69.5 86t70.5 90t63.5 86t52.5 74q27 39 66.5 88t87.5 92t100.5 72.5t105.5 29.5q33 0 54.5 -17.5t21.5 -51.5q0 -35 -20.5 -54.5t-55.5 -19.5q-20 0 -32.5 11t-20.5 25.5t-17.5 26t-23.5 11.5t-39 -14.5t-55.5 -40t-63.5 -60.5t-61 -74 q-72 -100 -148.5 -197.5t-144.5 -183.5q51 -129 51 -274q0 -111 -45 -217.5t-125 -189.5t-190.5 -133t-239.5 -50q-57 0 -115.5 17.5t-104.5 51t-76 84t-30 113.5zM518 197q0 -78 44 -131.5t124 -53.5q119 0 218.5 61.5t170.5 147.5q-41 109 -90 209t-82 215 q-74 -29 -143.5 -69.5t-122.5 -96t-86 -125t-33 -157.5zM907 805q0 -31 1 -62.5t12 -62.5q53 20 116.5 42.5t117.5 56.5t90 83t36 121q0 53 -34 90t-91 37q-59 0 -104 -29.5t-78 -73.5t-49.5 -98.5t-16.5 -103.5z" />
<glyph unicode="'" horiz-adv-x="681" d="M688 924v26q0 37 9.5 63.5t37.5 26.5q29 0 38 -26.5t9 -63.5v-26q0 -14 -2 -31l-24 -320q-2 -23 -6.5 -38t-14.5 -15t-14 15.5t-6 37.5l-25 320q-2 17 -2 31z" />
<glyph unicode="(" horiz-adv-x="1024" d="M653 70q0 178 78 358t217 350t332 322.5t422 275.5q37 20 72.5 37t42.5 17q8 0 8 -9q0 -4 -2 -6t-11 -6l-24 -12l-45 -23q-115 -59 -233.5 -151.5t-231.5 -205t-211 -242.5t-172 -268t-117 -279.5t-43 -276.5q0 -90 17.5 -153.5t39 -106.5t39 -66.5t17.5 -30.5 q0 -4 -6 -4t-25.5 18.5t-52.5 69.5t-54.5 99.5t-33.5 95.5t-17.5 95.5t-5.5 101.5z" />
<glyph unicode=")" horiz-adv-x="1024" d="M63 -401q0 4 2.5 6t10.5 6t24.5 11t44.5 24q115 59 234 151t231.5 205t211 243t172 268t116.5 279.5t43 276.5q0 88 -17.5 152.5t-39 107.5t-39 66.5t-17.5 29.5q0 4 7 5q6 0 25.5 -18.5t51.5 -70.5q66 -104 88.5 -194t22.5 -197q0 -178 -78 -358t-217 -350 t-331.5 -322.5t-422.5 -275.5q-37 -20 -72.5 -37t-41.5 -17q-9 1 -9 9z" />
<glyph unicode="*" d="M694 1038q0 27 60.5 44.5t206.5 58.5q-74 49 -118 76.5t-66.5 45t-30 26.5t-7.5 22q0 16 9.5 28.5t25.5 12.5q14 0 26.5 -7.5t33 -28t53.5 -57t90 -94.5l12 209q2 31 11.5 43.5t29.5 12.5q23 0 34 -11.5t11 -25.5q0 -8 -4 -20.5t-13 -37t-22.5 -65.5t-29.5 -105 q31 10 67.5 29.5t71.5 38t63.5 32t40.5 13.5q14 0 24.5 -14.5t10.5 -22.5q0 -23 -11 -33t-42 -18t-84 -19.5t-139 -31.5q41 -27 83 -52.5t75.5 -47t55 -39t21.5 -25.5q0 -20 -12 -34.5t-35 -14.5q-8 0 -19.5 9t-33 31.5t-55 58.5t-89.5 89q-4 -102 -8 -158.5t-10 -83 t-14.5 -31.5t-20.5 -5q-35 0 -35 36q0 18 7.5 51t17.5 68t20.5 69t14.5 54q-16 -8 -52 -27.5t-75 -40t-72 -36t-45 -15.5q-14 0 -23.5 13.5t-9.5 29.5z" />
<glyph unicode="+" horiz-adv-x="819" d="M469 254v61h254v254h61v-254h254v-61h-254v-254h-61v254h-254z" />
<glyph unicode="," horiz-adv-x="454" d="M338 -205q0 10 11 11t50 16q88 33 120 69.5t36 98.5q6 78 23.5 107.5t58.5 29.5q23 0 38 -11.5t15 -37.5q0 -49 -38 -100.5t-92 -94.5t-112.5 -69.5t-97.5 -26.5q-12 0 -12 8z" />
<glyph unicode="-" horiz-adv-x="681" d="M457 246l24 78h453l-25 -78h-452z" />
<glyph unicode="." horiz-adv-x="454" d="M559 45q0 35 16.5 58.5t55.5 23.5q59 0 59 -51q0 -41 -18.5 -64.5t-61.5 -23.5q-25 0 -38 11t-13 46z" />
<glyph unicode="/" horiz-adv-x="569" d="M186 -12l1145 1442h72l-1145 -1442h-72z" />
<glyph unicode="0" d="M473 246q0 70 26.5 150.5t70.5 161.5t101.5 154.5t121 130t127 90.5t120.5 34q78 0 110 -41t32 -127q0 -82 -26 -175.5t-69 -183.5t-98 -172t-115.5 -144.5t-120 -99t-108.5 -36.5q-90 0 -131 73.5t-41 184.5zM555 125q0 -49 19.5 -81t72.5 -32q51 0 108.5 42t114 112 t106.5 158t89 178t61.5 175t22.5 150q0 53 -24.5 84t-84.5 31q-47 0 -101 -41t-107.5 -107.5t-103.5 -152.5t-89 -177t-61.5 -179t-22.5 -160z" />
<glyph unicode="1" d="M514 399q0 6 11.5 16.5t43 34t89 67.5t147.5 122q94 80 157.5 141.5t103.5 103.5t60.5 62.5t28.5 20.5q10 0 10 -21q0 -10 -20.5 -57t-54 -120t-79.5 -166t-98.5 -193.5t-107.5 -203t-109 -194.5q-41 0 -78.5 -4t-76.5 -8q141 227 290.5 449.5t278.5 439.5l-4 4 q-86 -90 -188.5 -188.5t-237.5 -206.5q-80 -63 -111.5 -86t-46.5 -23q-8 0 -8 10z" />
<glyph unicode="2" d="M346 -8q0 6 8 26.5t22.5 47t35 55.5t47.5 53q35 35 78 66.5t95 67.5t116.5 79t144.5 100q45 33 84 76t66.5 89t43 91t15.5 82q0 70 -39 93.5t-98 23.5q-61 0 -120 -25.5t-104 -66.5t-72.5 -91t-27.5 -97q0 -41 23.5 -67t66.5 -26q35 0 70 23.5t63.5 57.5t51 72t32.5 66 q16 43 23.5 57.5t11.5 14.5q10 0 10 -14q0 -45 -19.5 -98.5t-53 -100.5t-81.5 -78.5t-104 -31.5q-47 0 -83 28.5t-36 89.5q0 55 29 110.5t78 100.5t113.5 73t134.5 28q104 0 162.5 -49.5t58.5 -139.5q0 -109 -52.5 -179.5t-130 -119.5t-167.5 -86t-164 -82 q-43 -25 -85 -55.5t-75 -58t-53.5 -49t-20.5 -29.5t2 -6v-4l19 17q18 17 47 36.5t65.5 37t73.5 17.5q20 0 42 -6t40.5 -19.5t29.5 -37t11 -58.5q0 -33 10.5 -48t38.5 -15q18 0 44 15t52.5 39t53 53.5t49.5 58.5t32 40t13 11q10 0 10 -12q0 -4 -17.5 -31t-80.5 -98 q-41 -47 -94.5 -84t-112.5 -37q-66 0 -90.5 31.5t-30.5 78.5q-6 43 -12 58.5t-33 15.5q-16 0 -38.5 -10t-47 -26.5t-50.5 -38t-44 -44.5q-37 -45 -49 -61.5t-19 -16.5q-12 1 -12 17z" />
<glyph unicode="3" d="M408 164q0 33 21.5 64.5t55.5 31.5q35 0 49.5 -17.5t14.5 -39.5q0 -55 -68 -74q-18 -4 -23 -12t-5 -19q2 -35 37.5 -60.5t105.5 -25.5q57 0 118.5 38t112 94.5t83 124t32.5 128.5q0 78 -92 78q-31 0 -56.5 -8t-44 -19.5t-30.5 -19.5t-19 -8q-14 0 -14 16q0 6 6 10.5 t25 13.5l51 25q33 16 84 47q145 90 201.5 168t56.5 146q0 96 -106 96q-51 0 -103.5 -20.5t-93.5 -53t-67.5 -73.5t-26.5 -82q0 -29 20.5 -43.5t38.5 -14.5q51 0 103.5 48.5t93.5 111.5q20 33 21 45t11 12q6 0 7 -16q2 -35 -14.5 -74t-45 -72.5t-68.5 -56t-85 -22.5 q-47 0 -77 20.5t-30 67.5q0 37 25.5 80t70.5 81t103.5 62.5t124.5 24.5q33 0 66.5 -9.5t60 -29t44 -49t17.5 -68.5q0 -70 -39 -118t-94 -81.5t-117.5 -58.5t-109.5 -49v-4q90 0 141 -46t51 -120q0 -66 -35.5 -128.5t-93 -110.5t-130.5 -77.5t-148 -29.5q-63 0 -105.5 15 t-67 41t-34.5 57.5t-10 62.5z" />
<glyph unicode="4" d="M428 176q0 8 29.5 45t88 124t142.5 234.5t193 374.5l163 13q-135 -195 -272 -385.5t-291 -366.5l4 -4q49 23 107 22q37 0 61.5 -3t45 -6t43 -5t55.5 -2q119 180 184.5 279.5t97 146.5t40.5 57.5t16 10.5q14 0 14 -11q0 -4 -8 -18t-33 -62.5t-72 -142.5t-127 -256 q47 0 78 16.5t60 32.5q27 16 30.5 20.5t7.5 4.5q8 0 9 -10q0 -6 -14.5 -20.5t-40 -30t-62.5 -26.5t-80 -11l-90 -197q-16 0 -39 -1t-47.5 -2t-45 -2t-32.5 -1l135 199q-37 0 -60.5 2t-42 5t-38 6t-49.5 3q-66 0 -104 -22.5t-48 -22.5q-8 0 -8 12z" />
<glyph unicode="5" d="M412 145q0 53 24.5 85t63.5 32q63 0 63 -55q0 -35 -21.5 -49.5t-52.5 -18.5q-18 -4 -21 -15t-3 -28q0 -29 25.5 -56.5t91.5 -27.5q78 0 145.5 45t117.5 115t78.5 148.5t28.5 146.5q0 41 -30.5 66.5t-75.5 25.5q-49 0 -90 -21.5t-72 -47t-51.5 -47t-30.5 -21.5 q-16 0 -16 12q0 4 6 14.5t34.5 55.5t87 140t163.5 267q16 23 21 33t15 10q12 0 27.5 -5t37 -11t52.5 -11t74 -5q86 0 129 22.5t49 22.5q8 0 8 -9q0 -8 -19.5 -29.5t-57 -45t-94 -42t-128.5 -18.5q-29 0 -58.5 5.5t-55.5 17.5l-228 -354v4l4 -4q35 35 86.5 63.5t112.5 28.5 q98 0 148.5 -58.5t50.5 -144.5q0 -74 -41 -144.5t-104.5 -126t-141.5 -89t-150 -33.5q-104 0 -153 48t-49 109z" />
<glyph unicode="6" d="M469 225q0 84 33 172t86 171t123.5 156t147.5 126t152.5 85t143.5 32q80 0 127 -36t47 -102q0 -43 -23.5 -68.5t-48.5 -25.5q-63 0 -63 62q0 25 9 37t19.5 19t19.5 14t9 20q0 23 -25.5 39t-74.5 16q-55 0 -111.5 -28.5t-112 -74.5t-104.5 -104.5t-88 -115t-66.5 -107.5 t-37.5 -84l4 -4q18 27 41.5 57.5t54.5 56t67 43t76 17.5q72 0 118 -55.5t46 -134.5q0 -68 -32.5 -143t-88 -136t-126 -101t-146.5 -40q-90 0 -133 63t-43 174zM539 104q0 -41 22.5 -66.5t56.5 -25.5q57 0 117 49.5t107 120t76.5 147.5t29.5 134q0 55 -17.5 82.5t-60.5 27.5 q-61 0 -120.5 -51t-106.5 -124.5t-75.5 -155t-28.5 -138.5z" />
<glyph unicode="7" d="M518 -12q47 76 107.5 159.5t126 167.5t130 164t124 149.5t106.5 124t78 85.5l-4 4q-41 -20 -84 -40t-92 -20q-25 0 -51.5 12.5t-52 28t-48 28.5t-39.5 13q-37 0 -67.5 -28.5t-55 -64.5t-46 -64.5t-40.5 -28.5q-27 0 -26 24q0 18 13 36t30.5 34t36 30.5t28.5 28.5 q6 8 19.5 30t27 45.5t25.5 46t18 32.5l45 10q-29 -41 -56.5 -84t-55.5 -82l4 -4q12 12 34.5 30.5t48 37t50.5 32t41 13.5q31 0 55.5 -14.5t48 -33t49 -32.5t60.5 -14q37 0 61.5 11t44.5 30q14 14 22 28l13 27q6 12 13.5 19.5t19.5 7.5q14 0 14 -19q0 -25 -33.5 -58.5 t-86.5 -109.5q-66 -92 -118 -167.5t-106.5 -160.5t-118 -191.5t-149.5 -260.5q-63 -2 -99 -3t-65 -9z" />
<glyph unicode="8" d="M432 172q0 61 38 113.5t92 93.5t114.5 71.5t103.5 49.5q-29 47 -51 100t-22 111q0 53 25.5 100t66.5 82t93 54.5t107 19.5q80 0 131.5 -38t51.5 -122q0 -57 -26 -101t-65.5 -78t-88 -59.5t-93.5 -46.5q29 -49 54.5 -103t25.5 -114q0 -59 -25.5 -116.5t-70.5 -102.5 t-108.5 -71.5t-137.5 -26.5q-53 0 -93 15t-66.5 42t-41 59.5t-14.5 67.5zM502 166q0 -82 42 -118t118 -36q49 0 90 18.5t71.5 51.5t47 75t16.5 91q0 29 -8.5 60.5t-21.5 62t-29.5 59.5t-32.5 49q-47 -20 -99.5 -50t-95.5 -68.5t-70.5 -87t-27.5 -107.5zM809 739 q0 -57 26.5 -104t59.5 -90q47 18 90 43.5t77 59.5t54.5 76t20.5 93q0 61 -36 93t-102 32q-37 0 -71.5 -16.5t-60 -45t-42 -65.5t-16.5 -76z" />
<glyph unicode="9" d="M338 156q0 31 17.5 52t54.5 21q29 0 44 -20.5t15 -40.5t-8 -32.5t-19 -22.5l-18 -19q-8 -8 -8 -20q0 -27 29.5 -44.5t91.5 -17.5q61 0 121.5 29t114.5 74t100.5 104.5t83 120.5t61 119.5t33.5 105.5l-4 4q-61 -104 -121 -154t-131 -50q-43 0 -74 16t-50.5 44t-28.5 63.5 t-9 74.5q0 68 31.5 139.5t84 130t120 96.5t137.5 38q98 0 137 -62.5t39 -156.5q0 -162 -65.5 -300.5t-162 -241t-207 -160.5t-202.5 -58q-41 0 -79 9t-66.5 28.5t-45 51.5t-16.5 79zM723 485q0 -41 19.5 -68.5t66.5 -27.5t100.5 43t98.5 108.5t74.5 143.5t29.5 147 q0 51 -19.5 81t-66.5 30q-72 0 -127 -59.5t-95 -138t-60.5 -153.5t-20.5 -106z" />
<glyph unicode=":" horiz-adv-x="681" d="M559 45q0 35 16.5 58.5t55.5 23.5q59 0 59 -51q0 -41 -18.5 -64.5t-61.5 -23.5q-25 0 -38 11t-13 46zM809 451q0 35 16.5 58t55.5 23q59 0 59 -51q0 -41 -18.5 -64.5t-61.5 -23.5q-25 0 -38 11.5t-13 46.5z" />
<glyph unicode=";" horiz-adv-x="681" d="M338 -205q0 10 11 11t50 16q88 33 120 69.5t36 98.5q6 78 23.5 107.5t58.5 29.5q23 0 38 -11.5t15 -37.5q0 -49 -38 -100.5t-92 -94.5t-112.5 -69.5t-97.5 -26.5q-12 0 -12 8zM809 451q0 35 16.5 58t55.5 23q59 0 59 -51q0 -41 -18.5 -64.5t-61.5 -23.5q-25 0 -38 11.5 t-13 46.5z" />
<glyph unicode="&#x3c;" horiz-adv-x="819" d="M449 254v61l569 263v-62l-500 -231l500 -232v-61z" />
<glyph unicode="=" horiz-adv-x="819" d="M469 143v62h569v-62h-569zM469 365v61h569v-61h-569z" />
<glyph unicode="&#x3e;" horiz-adv-x="819" d="M522 -8v61l500 232l-500 231v62l570 -263v-61z" />
<glyph unicode="@" horiz-adv-x="1638" d="M657 678q0 168 61.5 307t166 237.5t243 153t291.5 54.5q145 0 270.5 -46.5t217.5 -129.5t145 -195.5t53 -243.5q0 -80 -25.5 -168t-74.5 -160.5t-121 -121t-164 -48.5q-53 0 -89 19.5t-57.5 44.5t-30.5 49.5t-9 34.5h-4q-10 -14 -31.5 -39t-53.5 -48.5t-72 -41t-87 -17.5 q-92 0 -146.5 65t-54.5 194q0 35 11.5 84t34 103t56.5 108.5t79 96.5t103 68.5t128 26.5q63 0 97 -29.5t55 -68.5l22 82h90l-135 -527q-4 -18 -7 -30.5t-3 -24.5q0 -37 33.5 -71t81.5 -34q82 0 142 43.5t100 113t59.5 153.5t19.5 168q0 88 -42 184t-122 177t-197.5 134.5 t-271.5 53.5q-141 0 -262 -49.5t-208 -140.5t-136 -220t-49 -291q0 -133 46 -251t133 -206t212 -139t285 -51q70 0 126 8t105 21.5t93 32t89 36.5l29 -35q-102 -43 -209.5 -79.5t-230.5 -36.5q-205 0 -352.5 68.5t-243.5 171t-142.5 224.5t-46.5 226zM1159 571 q0 -104 40 -143t108 -39q37 0 86 31t96 91t84 147t47 202q0 66 -29.5 100.5t-107.5 34.5q-59 0 -117.5 -38.5t-105 -100t-74 -136.5t-27.5 -149z" />
<glyph unicode="A" horiz-adv-x="2162" d="M346 401q0 113 51.5 200t129 147.5t168.5 92t171 31.5q94 0 166 -25.5t121 -68.5t73.5 -98t24.5 -117q0 -80 -37.5 -143.5t-97 -107.5t-133.5 -67.5t-145 -23.5q-63 0 -79 4t-16 15q0 12 13 12q8 0 21.5 -3t39.5 -3q80 0 152.5 21.5t128 62.5t88.5 99t33 130 q0 104 -79 170t-235 66q-88 0 -178 -32t-162.5 -88.5t-119 -136t-46.5 -173.5q0 -76 40 -140.5t105.5 -111.5t149.5 -74t170 -27q207 0 380 69t341 212q-109 86 -182.5 194.5t-73.5 249.5q0 82 27.5 142.5t73 101.5t99.5 61.5t109 20.5q70 0 134.5 -23.5t120 -63.5 t99.5 -93.5t72 -112.5q160 174 299.5 299t249 205t185 118t110.5 38q10 0 10 -15q0 -4 -24.5 -31.5t-68.5 -83t-105.5 -142.5t-134.5 -208q-63 -102 -117.5 -202.5t-105 -201t-98.5 -201.5t-99 -202q43 0 87 10.5t93 28.5q43 16 71.5 36t48 36t30 27.5t14.5 11.5 q10 0 10 -10q0 -6 -23.5 -31t-68.5 -52.5t-113.5 -52t-156.5 -28.5l-46 -119h-147l57 127q-111 16 -218 50t-195 99q-70 -61 -151 -113t-173 -91t-196.5 -61.5t-217.5 -22.5q-106 0 -201.5 29.5t-167 85t-113.5 131t-42 167.5zM1407 700q0 -139 58.5 -232t138.5 -157 q119 100 224 212t216 225q-29 51 -62.5 97t-75.5 81t-93.5 55t-114.5 20q-53 0 -105.5 -17t-93.5 -54t-66.5 -94.5t-25.5 -135.5zM1628 295q86 -66 194.5 -98.5t207.5 -44.5q29 78 47 158.5t18 166.5q0 61 -11 130t-30 114q-109 -106 -209 -217t-217 -209zM2075 741 q27 -61 36 -124.5t9 -124.5q0 -94 -17 -189l4 -4q129 299 311.5 568.5t417.5 496.5l-4 4q-35 -4 -113.5 -56t-183 -137t-224 -197t-236.5 -237z" />
<glyph unicode="B" horiz-adv-x="1933" d="M457 985q0 8 25.5 70.5t88.5 150.5q41 57 97.5 109.5t123 91.5t142.5 61.5t156 22.5q70 0 136 -22.5t120 -65.5q68 16 133 25.5t131 9.5q217 0 413 -80q35 18 73 38.5t71 20.5q8 0 8 -8q0 -4 -8 -7t-23.5 -8t-38 -16.5t-53.5 -31.5q84 -43 135 -113t51 -162 q0 -66 -30.5 -119t-79.5 -94t-108.5 -67.5t-116.5 -40.5v-5q57 -12 107 -39.5t88 -66.5t60.5 -90t22.5 -113q0 -92 -47 -173t-119.5 -142.5t-163 -97t-176.5 -35.5q-47 0 -89 14t-74.5 40t-52 62.5t-19.5 83.5q0 72 35.5 130.5t72.5 95.5q14 14 32.5 30.5t35 29.5t29 21.5 t14.5 8.5q10 0 10 -12q0 -6 -25.5 -23.5t-72.5 -62.5t-77 -102.5t-30 -106.5q0 -86 56.5 -135.5t140.5 -49.5q86 0 156.5 44t123 114t81 151.5t28.5 159.5q0 70 -16.5 117t-41 77t-55 42t-61.5 12q-25 0 -38 -4l-27 -8q-13 -4 -30.5 -8t-47.5 -4q-39 0 -39 28 q0 16 17.5 24.5t62.5 8.5q31 0 46 -2t27 -2q61 0 112.5 34.5t86.5 87t54.5 114t19.5 116.5q0 78 -22.5 127t-76.5 82q-94 -63 -167.5 -156.5t-135 -198t-117 -211t-112.5 -198.5q-61 -98 -143 -200.5t-180.5 -184.5t-212 -134t-240.5 -52q-53 0 -98.5 13t-79 37.5t-52 56.5 t-18.5 69q0 35 24.5 58.5t59.5 23.5q76 0 76 -74q0 -20 -10.5 -37.5t-10.5 -34.5q0 -35 26.5 -61.5t92.5 -26.5q82 0 162 27t157.5 92.5t158.5 175t167 277.5q68 131 134.5 239.5t141 200.5t160.5 170t189 145q-90 41 -190.5 57.5t-200.5 16.5q-115 0 -236 -29 q47 -43 68.5 -112.5t21.5 -130.5q0 -111 -50 -225.5t-134 -207t-194.5 -150.5t-231.5 -58q-92 0 -156.5 55t-64.5 164q0 117 66.5 226.5t169 200.5t224 155.5t232.5 91.5q-49 39 -108.5 56t-121.5 17q-82 0 -156.5 -23.5t-139 -61.5t-115.5 -85t-84 -96q-47 -68 -70.5 -112 t-34 -69.5t-12.5 -34.5t-8 -9q-10 0 -10 10zM657 713q0 -82 46.5 -131.5t140.5 -49.5q100 0 198.5 67t177 164t127 207.5t48.5 200.5q0 74 -15.5 125.5t-42.5 79.5q-102 -25 -221 -82t-221 -143t-170 -196.5t-68 -241.5z" />
<glyph unicode="C" horiz-adv-x="1366" d="M457 1069q0 92 36.5 170t102.5 133t156 87t198 32q55 0 121 -14.5t130.5 -43t126 -73.5t110.5 -107q51 29 112.5 61t126 57.5t131 42t127.5 16.5q66 0 109 -31t43 -101q0 -61 -47 -128.5t-128 -134t-188.5 -128t-230.5 -109.5t-253 -79t-255 -35q-47 -100 -79 -207.5 t-32 -220.5q0 -125 44.5 -182.5t173.5 -61.5q-2 16 -4.5 31.5t-2.5 32.5q0 119 31 221t84 176t125 116t156 42q78 0 118.5 -51.5t40.5 -124.5q0 -88 -49 -169t-125.5 -144.5t-169 -104.5t-176.5 -47q8 -86 22.5 -134.5t14.5 -56.5q0 -12 -10 -12q-4 0 -12.5 22.5t-16.5 55.5 t-14 66.5t-8 56.5q-174 0 -263.5 97t-89.5 261q0 39 9.5 84t24 91t32.5 89t37 78q-78 6 -148.5 38t-124 82t-85 116.5t-31.5 144.5zM489 1106q0 -78 38 -140.5t96.5 -106.5t128 -68.5t135.5 -28.5q45 76 111.5 147.5t139 133t146.5 112.5t133 86q-90 111 -219 168t-268 57 q-96 0 -177 -29.5t-139.5 -79.5t-91.5 -115.5t-33 -135.5zM1014 754q139 0 271 26.5t249 70.5t214 100.5t167 117.5t108.5 121.5t38.5 112.5q0 41 -24.5 71.5t-85.5 30.5q-66 0 -135.5 -17.5t-135 -45t-124 -59.5t-99.5 -60q27 -35 48.5 -70t38 -64.5t25.5 -49t9 -21.5 q0 -12 -12 -12q-4 0 -10.5 13t-19.5 38.5t-35.5 64.5t-61.5 90q-135 -86 -240.5 -202.5t-185.5 -255.5zM1118 12q76 2 164 41t162 100.5t123 140.5t49 163q0 63 -31 102t-96 39q-66 0 -131.5 -50t-118.5 -128t-87 -174t-34 -189v-45z" />
<glyph unicode="D" horiz-adv-x="1820" d="M403 764q0 6 4.5 45t17.5 96.5t37.5 125t65.5 130.5q109 170 252.5 254t296.5 84q59 0 134 -20.5t135 -65.5q55 8 101 12.5t77 4.5q61 0 125.5 -9.5t126 -30t116 -50t95.5 -68.5q39 31 83 59.5t81.5 50t64.5 35t29 13.5q10 0 10 -19q0 -4 -21.5 -14.5t-55.5 -30.5 t-77 -50t-86 -75q76 -82 113 -185.5t37 -213.5q0 -215 -87 -375t-231.5 -266.5t-330 -159.5t-379.5 -53q-41 0 -83 6t-83 6q-53 0 -105.5 -6t-105.5 -6q-229 0 -230 67q0 35 86 35q53 0 99.5 -8t89.5 -17.5t85 -16.5t87 -7q74 0 143.5 54.5t134 138t125 187t113.5 202.5 q66 119 126 214t117.5 171.5t115 137t116.5 109.5q-35 37 -85 65t-108.5 47t-119 28.5t-117.5 9.5q-41 0 -86 -3t-82 -11q57 -55 84 -141.5t27 -159.5q0 -106 -43 -217t-118 -202t-175.5 -149.5t-212.5 -58.5q-61 0 -114.5 20.5t-91.5 58.5t-59.5 90t-21.5 116 q0 127 61.5 237.5t159 196.5t216 144t235.5 81q-51 35 -115.5 51.5t-128.5 16.5q-160 0 -282.5 -78t-215.5 -205q-57 -80 -85.5 -159t-43 -142.5t-20.5 -102t-14 -38.5q-9 0 -9 14zM748 659q0 -94 53 -133t139 -39q106 0 199.5 55.5t164 142.5t111.5 191.5t41 202.5 q0 82 -26.5 165t-86.5 140q-109 -33 -216 -101.5t-191 -163.5t-136 -212t-52 -248zM1001 16q14 1 29 1q22 0 46 -2q40 -3 102 -3q186 0 359 55.5t307 161t215 257t81 345.5q0 104 -32.5 210t-108.5 184q-63 -72 -113.5 -151t-96.5 -161t-90 -166.5t-93 -168.5 q-45 -78 -109.5 -165t-142.5 -166t-168 -140.5t-185 -86.5v-4z" />
<glyph unicode="E" horiz-adv-x="1138" d="M489 1176q0 78 37 137t94.5 100t129 61.5t141.5 20.5q102 0 196.5 -38t172.5 -101q78 37 161.5 65.5t173.5 28.5q55 0 87 -23.5t32 -80.5q0 -47 -37 -97.5t-94 -97.5t-129 -88t-141.5 -73t-131 -51t-98.5 -21q10 -35 32 -61t61 -26q10 0 29.5 4.5t45.5 4.5 q29 0 55.5 -9.5t26.5 -21.5q0 -27 -47 -27q-53 0 -77.5 12.5t-43.5 12.5q-61 0 -146 -38t-162 -108.5t-130 -172t-53 -226.5q0 -115 46 -174t142 -74q-4 18 -6 39t-2 41q0 117 33 215.5t88 170t128 111.5t150 40q76 0 117 -53.5t41 -122.5q0 -90 -49 -173t-126 -147.5 t-169 -104.5t-176 -42q6 -66 23.5 -123.5t17.5 -67.5q0 -6 -10 -6q-8 0 -11.5 18.5t-19.5 69.5q-10 29 -15.5 58.5t-9.5 50.5q-70 0 -130 19.5t-105 56t-70.5 93t-25.5 130.5q0 111 56 202t144 159.5t192.5 112.5t200.5 58v4q-63 23 -120 78q-66 -16 -123 -16 q-84 0 -156 20.5t-125 57t-84 91t-31 122.5zM543 1221q0 -72 29.5 -123t78.5 -85t114.5 -50.5t139.5 -16.5q16 0 34.5 1t37.5 3q-2 14 -3 27.5t-1 30.5q0 57 23.5 107t62.5 93t86 77t94 58q-76 59 -166 93t-186 34q-49 0 -109.5 -15t-113 -46t-87 -78t-34.5 -110zM887 35 q0 -12 2 -23h15q73 0 153 34q88 38 161.5 101.5t120.5 143.5t47 164q0 63 -32.5 103t-98.5 40q-61 0 -126.5 -52t-119 -132t-88 -174.5t-34.5 -178.5v-26zM1079 958q92 14 198.5 53.5t199 94.5t153 121.5t60.5 132.5t-95 65q-35 0 -72.5 -11t-74.5 -27.5t-72 -37t-63 -38.5 q35 -39 65.5 -73t30.5 -38q0 -12 -10 -12q-4 0 -9 6l-16 18q-10 12 -29.5 34t-52.5 52q-90 -66 -151.5 -151t-61.5 -189z" />
<glyph unicode="F" horiz-adv-x="1820" d="M317 410q0 96 46.5 181t123 147.5t175 98t204.5 35.5q68 0 138.5 -17t129 -54t96.5 -94.5t38 -137.5q0 -84 -39 -148.5t-102.5 -109.5t-141.5 -67.5t-156 -22.5q-49 0 -95 10.5t-82 23.5t-56.5 25.5t-20.5 18.5q0 16 9 16q6 0 22.5 -11t47 -23.5t76.5 -23.5t108 -11 q70 0 140.5 20.5t127.5 60.5t93 100t36 138q0 109 -85 175.5t-253 66.5q-96 0 -191.5 -33t-173 -91t-126 -137t-48.5 -173q0 -80 39 -146.5t108.5 -113.5t166 -74t211.5 -27q164 0 295 42t237.5 121t192.5 190.5t164 252.5q-86 -25 -156 -69.5t-121 -91.5q-43 -41 -51 -56.5 t-17 -15.5q-10 0 -10 12q0 4 25.5 35t74 71t118 81t157.5 63q41 63 83 127t82 121t75.5 104.5t66.5 75.5q51 49 99.5 87t88.5 64.5t67.5 41t35.5 14.5t8 -8q0 -10 -41 -31.5t-106 -79.5q-45 -41 -90 -105.5t-87 -136t-77 -140t-62 -117.5q55 12 111.5 27.5t108 32.5 t92.5 33.5t67 30.5q16 8 24.5 15.5t16.5 7.5q14 0 15 -12q0 -4 -26 -32t-62.5 -76t-75.5 -113.5t-66 -143.5q-35 -16 -84 -36.5t-96 -45.5l-4 4q10 33 41 79t70.5 96.5t86 101.5t89.5 96l-5 4q-74 -33 -154.5 -53.5t-164.5 -40.5q-80 -152 -186.5 -272.5t-238.5 -204.5 t-286.5 -129t-328.5 -45q-117 0 -219.5 28.5t-178 83t-120 132.5t-44.5 178zM1153 987q0 45 17.5 93t59.5 95.5t109.5 91.5t169.5 81q57 20 122 33.5t163 20.5t244.5 9t371.5 2q102 0 177 6t126.5 12.5t81 12.5t46.5 6q4 0 4 -10q0 -6 -20.5 -27.5t-60.5 -44t-99.5 -40 t-137.5 -17.5q-86 0 -163.5 7t-158.5 16t-171 17.5t-201 8.5q-164 0 -286 -33t-201.5 -85t-119.5 -117.5t-40 -131.5q0 -76 55 -123t145 -47q74 0 141.5 19.5t128 51.5t112 73t92.5 84q33 37 54 65.5t33.5 48t18.5 29.5t10 10q6 0 9.5 -4t3.5 -8q0 -2 -15.5 -36t-47.5 -81 t-78 -102t-105.5 -102.5t-134 -78t-160.5 -30.5q-68 0 -122 19.5t-93 50t-59.5 71.5t-20.5 84z" />
<glyph unicode="G" horiz-adv-x="1705" d="M371 29q0 104 52 192t134 150.5t181.5 97.5t191.5 35q78 0 149.5 -20.5t126 -59.5t87 -96.5t32.5 -130.5q0 -78 -37 -140.5t-95 -107.5t-131 -68.5t-147 -23.5q-53 0 -103 8t-88 20.5t-60.5 24.5t-22.5 18q0 4 4 7.5t8 3.5q6 0 24.5 -9.5t49.5 -19.5t75 -19.5t103 -9.5 q68 0 138.5 20.5t128 60.5t93 99.5t35.5 137.5q0 57 -25.5 102t-69.5 77t-103.5 48t-124.5 16q-94 0 -192.5 -31.5t-178.5 -91t-131 -143.5t-51 -188q0 -66 35 -126.5t98.5 -106.5t152.5 -72.5t197 -26.5q121 0 222.5 30.5t187.5 90t162.5 145.5t148.5 195 q70 106 134.5 204.5t116.5 178.5t92 137t63 82l-4 4q-49 -49 -115 -109.5t-138.5 -112.5t-149.5 -88t-152 -36q-53 0 -96.5 20.5t-72 55t-44 80t-15.5 96.5q0 12 2 27.5t6 27.5q-78 0 -159.5 26.5t-148 76t-108.5 119t-42 155.5q0 100 40 180t105.5 135.5t152.5 85t183 29.5 q141 0 271 -60.5t223 -164.5q47 27 110.5 55.5t133 53t138 40t123.5 15.5q76 0 118 -36q37 -31 37 -78q0 -7 -1 -13q0 -59 -44 -125t-120 -129.5t-178 -124t-218 -108.5t-239 -82t-241 -46q-10 -23 -17.5 -52.5t-7.5 -55.5q0 -100 30.5 -135t82.5 -35q72 0 145.5 31.5 t141 78.5t128 101.5t107.5 101.5t80 79t45 32q14 0 14 -9q0 -10 -12 -25.5t-43 -65.5t-83 -152.5t-132 -286.5q-70 -160 -173.5 -283t-229.5 -208t-268 -129t-292 -44q-115 0 -213 30t-169.5 82t-112.5 126t-41 160zM829 1098q0 -80 41 -141.5t105.5 -104.5t143.5 -64.5 t153 -21.5q31 82 83 151.5t115.5 130t135 110.5t145.5 95q-86 100 -213 156.5t-274 56.5q-98 0 -178 -32.5t-137.5 -85t-88.5 -117.5t-31 -133zM1411 758q113 0 231.5 25.5t229 67.5t208 97.5t170 115.5t114.5 122.5t42 120.5q0 53 -29.5 75.5t-97.5 22.5 q-57 0 -121.5 -15.5t-128 -40t-122 -56t-103.5 -64.5q47 -72 81 -127t34 -72q0 -10 -16 -10q-6 0 -35 59.5t-84 132.5q-123 -86 -223.5 -198.5t-149.5 -255.5z" />
<glyph unicode="H" horiz-adv-x="2162" d="M346 379q0 115 46 207t124 156.5t179.5 99.5t209.5 35q66 0 130.5 -20.5t116.5 -58.5t84 -94.5t32 -128.5q0 -80 -39 -144t-102.5 -110.5t-141.5 -71t-154 -24.5q-41 0 -79.5 6.5t-69.5 14.5t-50.5 16t-19.5 14q0 14 15 15q2 0 18.5 -6t43 -14.5t60 -14.5t72.5 -6 q70 0 143.5 20.5t133 61.5t98.5 101.5t39 139.5q0 49 -23.5 92.5t-66.5 74t-102.5 49t-133.5 18.5q-98 0 -191 -33t-167 -92t-119 -144t-45 -190q0 -70 35 -130t97.5 -106t151.5 -73t197 -27q127 0 243 44t215 118t179 172t135 207q-37 -14 -80.5 -39t-83.5 -49.5t-68 -41.5 t-30 -17q-16 0 -16 10q0 8 29.5 28.5t74.5 46t99.5 54t103.5 53.5q33 55 84 136t111.5 168t128 169t135.5 137l-4 4q-39 -23 -83 -49t-90 -48.5t-94.5 -38t-95.5 -15.5q-141 0 -141 145q0 59 6 92t6 54q0 45 -30 45q-10 0 -34 -9.5t-61 -33t-86 -63.5t-110 -103 q-104 -111 -148.5 -180.5t-54.5 -69.5q-12 0 -12 12q0 2 18.5 30t48 67.5t69.5 88t83 91.5q88 90 170 146.5t166 56.5q63 0 85.5 -42t22.5 -92q0 -35 -4 -63.5t-4 -71.5q0 -45 10.5 -56t38.5 -11q39 0 86 16t97.5 43t102.5 59.5t103 65.5q31 20 64 48t65.5 53.5t62 44 t54.5 18.5q33 0 33 -25q0 -23 -25.5 -36t-65.5 -29.5t-90.5 -43t-97.5 -73.5q-45 -45 -90 -119t-91 -156.5t-90 -164.5t-85 -144l4 -4q20 12 77.5 33.5t123 45.5t125 45.5t88.5 31.5q35 47 89 111.5t121.5 134t143.5 137t153.5 122t153.5 88.5t144 34q49 0 82.5 -23 t33.5 -76q0 -66 -43 -125t-112.5 -111.5t-156.5 -98.5t-174 -82.5t-167 -64.5t-133 -44q-29 -45 -75 -128t-90 -181.5t-77 -203t-33 -192.5q0 -31 12.5 -49t33.5 -18q47 0 104 35.5t135 109.5q61 59 87 92t34 33q10 0 10 -10q0 -6 -44 -55.5t-105 -106.5q-55 -51 -114.5 -91 t-106.5 -40q-59 0 -97.5 43t-38.5 154q0 90 18.5 171t47.5 151.5t63.5 129t67.5 105.5l-4 4l-92 -31q-55 -18 -112.5 -38.5t-111 -42t-83.5 -40.5q-74 -131 -169.5 -243.5t-214 -195.5t-260 -131t-305.5 -48q-115 0 -210 27.5t-163.5 78.5t-107.5 124t-39 161zM2410 848 q43 14 112 36.5t146.5 53.5t156.5 71t142.5 89t103.5 106.5t40 122.5q0 39 -18.5 54.5t-55.5 15.5q-66 0 -148.5 -49.5t-168.5 -127t-168.5 -176t-141.5 -196.5z" />
<glyph unicode="I" horiz-adv-x="1593" d="M379 401q0 102 51 188.5t131 148t177.5 96t187.5 34.5q72 0 144.5 -19.5t129.5 -58t93 -98t36 -137.5q0 -74 -33.5 -136.5t-92 -108.5t-136.5 -71.5t-168 -25.5q-47 0 -93 10t-83 23.5t-59.5 26t-22.5 16.5q0 14 10 14q6 0 25.5 -10t51.5 -22.5t75 -22.5t96 -10 q88 0 163 24.5t128 66.5t84 99t31 123q0 68 -29 115t-75 76.5t-104.5 43t-115.5 13.5q-96 0 -194.5 -32t-177.5 -91.5t-128 -144.5t-49 -189q0 -92 47 -154.5t118 -101.5t156 -56.5t158 -17.5q158 0 280 52.5t219 139.5t175 201.5t150 241.5q-47 4 -90 18.5t-76 42 t-52.5 66.5t-19.5 92q0 111 59.5 195t152.5 146.5t208 105.5t227.5 68.5t209.5 37t155 11.5q8 0 8 -13q0 -4 -16.5 -6t-47 -13.5t-75.5 -36t-103 -71.5q-66 -55 -118 -127.5t-98 -153.5t-88 -167t-87 -166q57 10 107.5 38.5t87.5 59.5t59.5 54.5t26.5 23.5q8 0 8 -12 q0 -10 -26.5 -38t-69.5 -59.5t-97.5 -59.5t-109.5 -36q-59 -111 -117.5 -199t-127.5 -158.5t-151.5 -124.5t-187.5 -99q-111 -47 -207 -62.5t-188 -15.5t-183.5 25.5t-164 77.5t-118.5 130t-46 180zM1575 860q0 -37 8 -69.5t27.5 -58t53.5 -42t83 -18.5q57 113 134 228.5 t163 214.5t174 172t172 104v4q-4 0 -8 1t-8 1q-25 0 -93.5 -10.5t-157.5 -34t-185.5 -64.5t-177.5 -100.5t-133 -140.5t-52 -187z" />
<glyph unicode="J" horiz-adv-x="1705" d="M162 -231q0 96 40 181t105.5 149.5t152.5 101.5t181 37q68 0 129 -19.5t109.5 -56.5t77 -92.5t28.5 -128.5q0 -37 -9 -72t-20 -70q129 53 261.5 98.5t271.5 69.5q43 74 87 156t87 163t83 152.5t71 122.5q-47 0 -91.5 15.5t-79 46t-55 74.5t-20.5 100q0 109 57.5 197.5 t150.5 158.5t210.5 122t235.5 87t226.5 51.5t184.5 16.5q20 0 20 -11q0 -8 -35.5 -16t-94 -39t-134.5 -97.5t-158 -193.5q-49 -78 -87 -143.5t-68.5 -122.5t-56 -108.5t-52.5 -102.5q33 4 76 22.5t76 40.5q70 45 92 78t33 33q10 0 10 -8q0 -4 -20.5 -30.5t-60.5 -59.5 t-96.5 -65t-129.5 -44q-82 -143 -157 -286.5t-165 -280.5q92 29 164 74t125 90q76 66 105.5 105.5t35.5 39.5q12 0 13 -12q0 -4 -14.5 -21.5t-36 -41t-48 -49t-51.5 -46.5q-61 -53 -144 -102t-182 -76q-78 -111 -179 -219.5t-221 -194.5t-253 -140t-272 -54 q-119 0 -213.5 30.5t-160 86t-100 133.5t-34.5 170zM203 -270q0 -84 35.5 -149.5t95 -112t134.5 -71t153 -24.5q131 0 254.5 47.5t234.5 125t203 179t157 209.5q-55 -8 -145 -32.5t-178 -55t-155.5 -59.5t-80.5 -45q-47 -61 -100 -106.5t-98 -45.5q-27 0 -35 11.5t-8 31.5 t35.5 45t79.5 46.5t82 37t40 17.5q18 20 31.5 53t13.5 84q0 70 -24.5 116t-63.5 74.5t-90 41t-102 12.5q-90 0 -174 -33t-149.5 -90t-105.5 -136t-40 -171zM1649 776q0 -78 49 -131q47 -51 129 -51h6q82 150 155.5 261.5t150.5 202.5t163 169t195 157l-5 5 q-147 -18 -296.5 -70.5t-271.5 -132.5t-198.5 -184.5t-76.5 -225.5z" />
<glyph unicode="K" horiz-adv-x="2275" d="M379 389q0 100 45 190.5t119.5 157t173 105.5t205.5 39q70 0 138 -19.5t122.5 -58.5t88.5 -97.5t34 -136.5q0 -76 -39 -140t-100.5 -110.5t-138.5 -72t-153 -25.5q-41 0 -79.5 7.5t-69.5 17.5t-50.5 20t-19.5 17q0 12 13 12q2 0 17 -8t41 -17.5t61.5 -16.5t80.5 -7 q70 0 142.5 23.5t130 66.5t94.5 104.5t37 134.5q0 43 -20.5 83t-62.5 73t-103.5 52.5t-143.5 19.5q-96 0 -187 -31t-163 -89t-116 -140t-44 -183q0 -90 40 -155.5t104.5 -108.5t148.5 -63.5t172 -20.5q113 0 219.5 28t206.5 95.5t195.5 181t187.5 283.5q51 94 98 170 t100.5 147.5t116 143.5t144.5 156l-4 4q-31 -14 -70 -33t-79 -35t-80 -27.5t-74 -11.5q-70 0 -109 41t-39 133q0 43 4 59.5t4 26.5q0 14 -26 15q-43 -4 -115 -49.5t-176 -163.5q-43 -51 -69.5 -87t-41 -59.5t-20.5 -34t-10 -10.5q-12 0 -13 10q0 4 20.5 39t55.5 83t82 104.5 t101.5 102.5t112.5 77q55 29 108 29h8q47 0 74.5 -27t31.5 -111q2 -45 6 -72.5t10.5 -42t16.5 -18.5t22 -4q41 0 87.5 14.5t89.5 36t80.5 45t66.5 39.5q80 49 124 80t66.5 48.5t33 24.5t20.5 7q20 0 30.5 -10t10.5 -25q0 -23 -28 -36t-67.5 -27.5t-84 -33t-76.5 -48.5 q-41 -41 -87 -113t-101.5 -168t-120 -214t-144.5 -249q-166 -276 -398.5 -407t-496.5 -131q-125 0 -222 30.5t-163.5 85t-101.5 128t-35 157.5zM1956 684q0 20 33 21q63 0 125.5 29.5t118 75.5t103.5 98.5t85 99.5q72 88 150.5 164.5t159.5 134t162 90.5t159 33 q90 0 142 -41t52 -107q0 -33 -21.5 -53.5t-56.5 -20.5q-29 0 -55.5 15.5t-26.5 48.5q0 29 14.5 45t14.5 39t-25.5 36t-66.5 13q-37 0 -80 -19.5t-89 -55.5t-95 -86t-95 -109q-121 -158 -258 -269.5t-331 -169.5v-4q98 -37 149 -110.5t51 -163.5q0 -23 -6 -57.5t-12 -75.5 t-12.5 -84t-6.5 -84t13.5 -66.5t44.5 -25.5q23 0 75 29.5t126 107.5q76 78 105.5 115.5t35.5 37.5q10 0 10 -12q0 -4 -25.5 -34.5t-87.5 -98.5q-152 -170 -256 -170q-29 0 -59.5 17.5t-55 48t-41 74.5t-16.5 98q0 41 6.5 87t12.5 88t12 75.5t6 50.5q0 35 -11 59.5 t-28.5 40.5t-35 24.5t-29.5 8.5q-10 0 -24.5 -6.5t-24.5 -6.5q-12 0 -23.5 9.5t-11.5 15.5z" />
<glyph unicode="L" horiz-adv-x="1478" d="M362 119q0 41 39 73.5t129 32.5q41 0 95.5 -7t111 -18.5t109.5 -24.5t94 -28q70 66 113 119t78.5 113.5t73.5 137.5t100 192q-59 -10 -115.5 -17.5t-97.5 -7.5q-111 0 -204 28.5t-161 80t-105.5 123t-37.5 157.5q0 94 46 172t120.5 132.5t168 84t189.5 29.5 q68 0 144.5 -15.5t153.5 -47t150.5 -84t135.5 -125.5q25 29 66.5 65.5t88.5 68t97.5 54.5t93.5 23q102 0 102 -103q0 -76 -61.5 -155.5t-156.5 -156.5t-214 -143.5t-231 -113.5q-57 -102 -115.5 -195.5t-120 -174.5t-127 -145.5t-137.5 -107.5q111 -33 217 -59.5t221 -26.5 q86 0 153.5 28.5t127.5 86.5q43 43 67.5 68.5t38 40t17.5 19.5t8 5q8 0 8 -14q0 -4 -18.5 -25.5t-81.5 -87.5q-176 -182 -387 -182q-49 0 -104.5 11t-110 28.5t-105.5 37t-92 37.5q-78 -47 -174 -80.5t-182 -33.5q-92 0 -155 36t-63 95zM387 115q0 -31 48 -67t140 -36 q94 0 172 25.5t160 73.5q-96 29 -191 59.5t-196 30.5q-66 0 -99.5 -25.5t-33.5 -60.5zM621 1108q0 -88 46 -152.5t115.5 -107.5t152.5 -64.5t157 -21.5q66 0 129 5t129 15q74 111 150.5 219.5t174.5 200.5q-55 68 -124.5 118t-144.5 82t-152.5 48t-147.5 16 q-84 0 -170 -23.5t-156.5 -69.5t-114.5 -112.5t-44 -152.5zM1505 811q119 39 229.5 103.5t195.5 136t135.5 144.5t50.5 132q0 78 -76 78q-39 0 -86 -23.5t-92 -58.5t-83 -73t-59 -64q33 -51 55.5 -91t22.5 -44q0 -10 -8 -11q-10 0 -24.5 32t-59.5 91q-59 -84 -106.5 -173 t-94.5 -179z" />
<glyph unicode="M" horiz-adv-x="2390" d="M334 406q0 90 41 171.5t111.5 143t164.5 98.5t199 37q94 0 167 -25.5t122 -68.5t74.5 -99.5t25.5 -117.5q0 -78 -34 -140.5t-89 -106.5t-128 -68.5t-148 -24.5q-41 0 -84 9t-80 20.5t-60.5 22.5t-23.5 17q0 12 12 13q4 0 21.5 -9.5t48.5 -19.5t72.5 -19.5t97.5 -9.5 q63 0 127.5 19.5t117 57.5t85 94.5t32.5 127.5q0 45 -19.5 90.5t-59.5 81t-101 57t-147 21.5q-84 0 -173.5 -25.5t-163 -74.5t-120.5 -123t-47 -170q0 -78 34.5 -145.5t91 -118.5t129 -80t146.5 -29q166 0 308.5 87t277.5 222.5t273.5 299t295.5 317.5q125 121 233.5 213 t190.5 153.5t132 93.5t59 32q16 0 16 -11q0 -4 -14.5 -18.5t-45 -48t-78.5 -92t-115.5 -153.5t-156 -230.5t-198.5 -321.5q-33 -55 -68 -125t-64.5 -133.5t-48 -111.5t-18.5 -58q0 -16 19 -16q14 0 33.5 14t62.5 61t118.5 139.5t204.5 247.5q186 227 337 389t258.5 265.5 t171 153t73.5 49.5q4 0 8 -4.5t4 -8.5t-34.5 -52t-99 -145.5t-159 -246t-210.5 -352.5q-123 -217 -168 -351.5t-45 -181.5q0 -33 11 -46t42 -13q33 0 71.5 20.5t77.5 51t76 67.5t66.5 67.5t48 51t22.5 20.5q10 0 11 -12q0 -2 -19.5 -26.5t-51.5 -58.5t-73 -73t-84 -72.5 t-85 -55t-77 -21.5q-147 0 -147 176q0 63 34 164.5t119 244t229 331t363 427.5l-4 4q-164 -135 -312 -289.5t-286.5 -316.5t-269.5 -321.5t-258 -303.5q-59 -68 -91 -86t-59 -18t-43 22.5t-16 65.5q0 111 74 265.5t191.5 324.5t263 339t290.5 310l-4 4q-47 -31 -115.5 -86 t-146.5 -123.5t-158 -143.5t-145 -142q-135 -139 -261 -289t-256 -275t-271.5 -204.5t-305.5 -79.5q-70 0 -147.5 26.5t-144 78.5t-110.5 131.5t-44 181.5z" />
<glyph unicode="N" horiz-adv-x="2275" d="M446 391q0 90 41 176t115 152.5t176.5 106.5t225.5 40q98 0 175.5 -22.5t133 -62.5t84 -94t28.5 -118q0 -78 -37.5 -143.5t-100 -113.5t-143.5 -74.5t-165 -26.5q-33 0 -70 5t-67.5 13.5t-51 17.5t-20.5 15q0 10 10 10q6 0 19.5 -6t37 -12t58.5 -12t86 -6q86 0 162 26.5 t131 69.5t87 99t32 118q0 51 -23.5 96t-70 79t-114 53.5t-155.5 19.5q-92 0 -188.5 -32t-175 -91.5t-129 -142t-50.5 -183.5q0 -78 37 -139.5t102.5 -104.5t159 -66.5t205.5 -23.5q129 0 257 36t257 126t261 241.5t268 385.5q76 129 143.5 245.5t119.5 203.5t87 139.5 t43 52.5t13 -6t5 -8q0 -16 -13 -41t-29.5 -73t-30 -124t-13.5 -195q0 -57 4 -112.5t4 -112.5q0 -156 -16 -310.5t-57 -303.5l4 -4q72 139 154.5 288.5t170 292t177.5 269t177 222t168 151t150 55.5q39 0 67.5 -30t28.5 -59t-21.5 -52t-57.5 -23q-33 0 -46.5 14t-19.5 32.5 t-11 33t-24 14.5q-84 0 -279.5 -226.5t-461.5 -703.5q-86 -154 -132 -246t-68.5 -141t-32 -64.5t-21.5 -15.5q-4 0 -8 2t-4 10q0 18 7 32t16 40.5t17.5 73.5t8.5 135q0 113 -16.5 228.5t-16.5 218.5q0 125 17.5 217t39 158.5t40 110.5t22.5 73h-4q-90 -143 -182.5 -306 t-195 -319t-221 -292t-261.5 -224q-125 -78 -245 -105.5t-222 -27.5q-121 0 -223.5 25.5t-177.5 76.5t-118 126t-43 173z" />
<glyph unicode="O" horiz-adv-x="1593" d="M637 723q0 2 2 26.5t9 62.5t22.5 86t44.5 101q35 68 88 128.5t119.5 106.5t145.5 73.5t165 27.5q106 0 194 -35q111 70 218.5 110t199.5 40q119 0 186.5 -62.5t67.5 -181.5q0 -6 -1 -23.5t-4 -36t-8 -31.5t-13 -13q-6 0 -7 14q0 6 4.5 41t4.5 53q0 109 -63.5 162 t-166.5 53q-90 0 -185 -37.5t-194 -107.5q66 -27 123 -78q82 43 150 43q115 0 184.5 -81t69.5 -228q0 -98 -34 -206.5t-95.5 -216t-144.5 -205t-180 -171.5t-206.5 -118t-220.5 -44q-86 0 -145.5 35t-97.5 90.5t-55 126t-17 142.5q0 127 50 257t135 249.5t194.5 224 t226.5 182.5q-80 29 -172 29q-121 0 -221.5 -49.5t-175 -129t-119.5 -182t-53 -209.5q-2 -20 -5.5 -26t-7.5 -6q-12 0 -12 14zM915 279q0 -121 51.5 -200t161.5 -79q92 0 191.5 40t193 108.5t176.5 159.5t145 194.5t98 214t36 215.5q0 143 -60.5 216t-168.5 73 q-63 0 -133 -35q74 -72 111.5 -167t37.5 -194q0 -76 -28.5 -156.5t-80 -148t-122 -111.5t-154.5 -44t-140 51t-56 139q0 111 35.5 209t92 181t126 145.5t139.5 101.5q-25 23 -55.5 42t-65.5 30q-104 -78 -200.5 -187.5t-170.5 -238.5t-117 -271.5t-43 -287.5zM1198 567 q0 -78 37 -124t117 -46q82 0 145.5 51.5t107.5 128t66.5 162.5t22.5 158q0 86 -29 154.5t-82 124.5q-72 -37 -140.5 -100.5t-122.5 -144.5t-88 -175.5t-34 -188.5z" />
<glyph unicode="P" horiz-adv-x="1593" d="M461 985q0 12 16.5 54t50 96.5t84 114t120 109.5t158.5 83t197 33q78 0 153 -27t114 -59q57 14 129.5 21t142.5 7q109 0 207 -19.5t166 -51.5q43 25 75.5 48t49.5 23q8 0 8 -10t-33 -27.5t-74 -46.5q96 -53 157 -142t61 -202q0 -78 -39 -145.5t-99.5 -117.5t-135.5 -79 t-146 -29q-29 0 -58.5 10.5t-53 23t-39 24.5t-15.5 18q0 10 12 11q2 0 13.5 -8.5t27.5 -18.5t37.5 -18.5t48.5 -8.5q76 0 138.5 39t106.5 98.5t67.5 133t23.5 141.5q0 78 -34 141.5t-103 104.5q-66 -45 -123 -118t-112.5 -166t-115 -202.5t-126.5 -228.5 q-68 -121 -157 -230.5t-192.5 -192.5t-217 -133t-232.5 -50q-47 0 -91 9t-78 29.5t-53.5 52.5t-19.5 77q0 35 19.5 60.5t56.5 25.5q35 0 59.5 -21.5t24.5 -56.5q0 -29 -10.5 -42t-10.5 -30q0 -33 30 -56.5t102 -23.5q90 0 168.5 36t147.5 95.5t127 136t107.5 157.5t91.5 161 t78 147q41 76 96.5 158t120 160t137 145.5t146.5 114.5q-86 41 -175 55.5t-167 14.5q-72 0 -132 -4.5t-120 -18.5q47 -53 64.5 -117.5t17.5 -132.5q0 -111 -51 -222.5t-135 -202.5t-192.5 -147t-223.5 -56q-45 0 -86 14t-71.5 41.5t-49 69.5t-18.5 100q0 78 32.5 153.5 t87 144t125 130t148.5 110t155.5 81t145.5 46.5q-49 35 -114.5 51.5t-125.5 16.5q-117 0 -225 -48t-196 -136q-55 -55 -90 -108.5t-55.5 -93.5t-31 -64.5t-16.5 -24.5q-4 0 -6 4t-2 6zM653 725q0 -96 48.5 -148.5t127.5 -52.5q100 0 200.5 62.5t181.5 158t132.5 210 t51.5 221.5q0 55 -8.5 104t-40.5 84q-125 -25 -249 -92.5t-222.5 -157.5t-160 -192.5t-61.5 -196.5z" />
<glyph unicode="Q" horiz-adv-x="1478" d="M367 109q0 53 46 86.5t152 33.5q111 0 223.5 -32.5t223.5 -63.5q84 43 172 104.5t170 136.5t155.5 163t128 185t86 203.5t31.5 219.5q0 135 -66.5 197.5t-207.5 62.5q-16 0 -50 -3t-51 -7q53 -66 75 -125.5t22 -139.5q0 -106 -49.5 -218.5t-133.5 -205t-194.5 -151.5 t-233.5 -59q-51 0 -90 19.5t-66.5 50t-42 69.5t-14.5 80q0 117 65.5 230.5t166 206.5t219.5 159.5t223 91.5q-35 29 -90 46t-125 17q-119 0 -219 -45t-178 -114.5t-133.5 -153.5t-83.5 -162q-10 -25 -19 -24q-6 0 -6 10q0 6 12.5 38t38 79t64.5 103t94 110q78 76 182.5 130 t239.5 54q106 0 166.5 -27.5t89.5 -52.5q35 6 67.5 12.5t67.5 6.5q174 0 272.5 -101.5t98.5 -271.5q0 -172 -80 -311.5t-202 -253t-266 -204.5t-276 -165q84 -25 165 -53.5t179 -28.5q72 0 132.5 26.5t128.5 73.5q59 41 93 72t52 50.5t25.5 29.5t11.5 10q12 0 12 -12 q0 -4 -11 -18.5t-32.5 -36t-51.5 -47t-65 -52.5q-57 -43 -106 -71.5t-94 -46t-90 -24.5t-95 -7q-94 0 -180 24.5t-170 59.5q-47 -20 -91 -36t-88 -27t-91 -16t-103 -5q-100 0 -153 38t-53 83zM391 109q0 -45 49 -71t140 -26q78 0 164.5 15.5t173.5 56.5q-45 14 -96.5 33.5 t-104.5 37t-105.5 30t-95.5 12.5q-57 0 -91 -21.5t-34 -66.5zM678 731q0 -94 42 -148.5t144 -54.5q98 0 196.5 65.5t177.5 164t128 214t49 214.5q0 57 -14.5 107t-57.5 91q-111 -23 -229.5 -90t-214.5 -159.5t-158.5 -199t-62.5 -204.5z" />
<glyph unicode="R" horiz-adv-x="1820" d="M383 993q0 10 17.5 51t52 95.5t87 116t122 112.5t156.5 85t192 34q37 0 75.5 -6t75.5 -17.5t69 -28t52 -36.5q66 16 135.5 23.5t134.5 7.5q49 0 99.5 -6.5t98.5 -15.5t89 -20.5t72 -23.5l26 13l39 20q20 10 39 17t25 7q10 -2 10 -12q0 -4 -28.5 -14.5t-75.5 -44.5 q35 -14 68.5 -41t61 -64t44 -82t16.5 -98q0 -90 -51 -159.5t-122 -118t-145.5 -76t-119.5 -31.5v-4q33 -10 62.5 -37t51 -62.5t34 -74.5t12.5 -70q0 -39 -11.5 -84t-24 -92t-23.5 -91t-11 -79q0 -33 10 -53.5t41 -20.5q29 0 67 27t107 96q57 57 87 89t44.5 48.5t17.5 20.5 t7 4q12 0 12 -12q0 -4 -45 -53.5t-111 -114.5q-41 -41 -69.5 -65.5t-50 -39t-39 -19.5t-33.5 -5q-31 0 -59.5 18.5t-50 47t-34 66.5t-12.5 75q0 55 11.5 100t23.5 88t23.5 87t11.5 99q0 25 -15.5 57.5t-54.5 39.5q-14 2 -33.5 -4.5t-31.5 -6.5q-31 0 -50.5 10.5t-19.5 22.5 q0 10 16.5 21.5t45.5 11.5q18 0 41.5 -12.5t37.5 -12.5q43 0 100.5 31t110 85t88 128t35.5 160q0 68 -24.5 127t-79.5 94q-104 -86 -181 -199.5t-137 -236.5q-43 -92 -99 -195.5t-122.5 -203t-144.5 -189.5t-167 -158.5t-190.5 -109.5t-214.5 -41q-63 0 -108 16t-75 40 t-44 49.5t-14 45.5q0 43 21.5 73t68.5 30q33 0 55.5 -19.5t22.5 -54.5q0 -29 -12.5 -42t-12.5 -36q0 -37 29.5 -57.5t64.5 -20.5q133 0 230.5 48.5t175.5 134.5t144.5 205.5t137.5 261.5q49 98 102.5 185t117 170t142.5 163t181 161q-31 16 -73 28.5t-89 20t-96 11.5t-92 4 q-59 0 -116.5 -6t-114.5 -21q37 -43 58 -113.5t21 -134.5q0 -111 -49 -223t-133 -204.5t-195.5 -149.5t-236.5 -57q-96 0 -154.5 58t-58.5 155q0 82 31.5 160.5t85 148t123 131t147.5 110t157 82t150 50.5q-43 37 -112.5 54t-126.5 17q-170 0 -325 -104.5t-259 -306.5 q-16 -35 -21.5 -55.5t-15.5 -20.5q-6 0 -6 18zM580 705q0 -88 51 -132.5t137 -44.5q96 0 194.5 61.5t178.5 156t130 209t50 223.5q0 61 -10.5 110t-42.5 84q-111 -23 -232 -84t-222 -150t-167.5 -200.5t-66.5 -232.5z" />
<glyph unicode="S" horiz-adv-x="1593" d="M379 391q0 109 49 196t128 147.5t178.5 93t197.5 32.5q70 0 140.5 -17.5t127.5 -54t93 -95t36 -140.5q0 -80 -37 -142.5t-95 -106.5t-133 -67.5t-149 -23.5q-59 0 -110 10t-88 23.5t-58.5 26t-21.5 16.5q0 10 10 10q2 0 19.5 -9t49.5 -21.5t80 -21.5t115 -9 q70 0 140.5 19t127 59t91.5 99.5t35 139.5q0 70 -32 116t-82 74.5t-110.5 41t-117.5 12.5q-94 0 -189.5 -34t-171.5 -95.5t-123 -146.5t-47 -185q0 -84 47 -145.5t118 -101.5t151.5 -59.5t150.5 -19.5q190 0 319.5 65.5t222.5 173t160.5 248t135.5 287.5q-29 -2 -56.5 -5 t-58.5 -3q-86 0 -172 23.5t-155.5 68.5t-113.5 111t-44 152q0 82 35.5 148.5t96 112.5t141.5 71.5t171 25.5q145 0 270 -66.5t211 -171.5q27 27 66 58.5t82 57.5t87 43.5t85 17.5q53 0 77.5 -26t24.5 -73q0 -84 -59.5 -169t-149.5 -157.5t-197.5 -124t-201.5 -69.5 q-51 -119 -104.5 -231.5t-123 -211t-161.5 -178t-221 -135.5q-80 -35 -175.5 -51t-181.5 -16q-92 0 -186 23.5t-171 72.5t-125 125t-48 182zM1190 1161q0 -76 46 -137t116.5 -104t153.5 -66t157 -23q29 0 54.5 1.5t43.5 5.5q55 109 126 210t159 193q-43 53 -96.5 95 t-112.5 71t-122.5 44t-125.5 15q-82 0 -154.5 -20.5t-127 -59t-86 -95t-31.5 -130.5zM1892 854q90 12 189.5 58t183.5 113t139.5 146.5t55.5 159.5q0 33 -19.5 53.5t-56.5 20.5t-79 -19.5t-82 -49t-73.5 -64.5t-54.5 -64q6 -10 18.5 -29.5t24.5 -40t21.5 -38t9.5 -19.5 q0 -8 -8 -8q-4 0 -24.5 39t-53.5 80q-63 -78 -106.5 -165t-84.5 -173z" />
<glyph unicode="T" horiz-adv-x="1820" d="M317 410q0 96 46.5 181t123 148.5t175 100.5t204.5 37q68 0 138.5 -17.5t129 -55.5t96.5 -96.5t38 -138.5q0 -84 -39 -148.5t-102.5 -109.5t-141.5 -67.5t-156 -22.5q-49 0 -95 10.5t-82 23.5t-56.5 25.5t-20.5 18.5q0 12 7 12q8 0 26.5 -10t49 -22.5t74.5 -22.5t106 -10 q70 0 140.5 20.5t127.5 60.5t93 100t36 138q0 109 -85 175.5t-253 66.5q-96 0 -191.5 -33t-173 -91t-126 -137t-48.5 -173q0 -80 39 -146.5t108.5 -113.5t166 -74t211.5 -27q193 0 332 54.5t243.5 142.5t184 202.5t153.5 236.5t151.5 241t180.5 217q43 41 86 73.5t80 55 t62.5 35t33.5 12.5t8 -8q0 -10 -17.5 -18.5t-43 -21.5t-55 -33.5t-56.5 -53.5q-53 -66 -130 -191t-177 -317q-80 -152 -186.5 -272.5t-238.5 -204.5t-286.5 -129t-328.5 -45q-117 0 -219.5 28.5t-178 83t-120 132.5t-44.5 178zM1153 987q0 66 43 141.5t141.5 140t261 106.5 t402.5 42h483q86 0 144.5 5t98.5 11.5t65.5 11.5t48.5 5q6 0 6 -10q0 -6 -19.5 -26.5t-58.5 -43t-100.5 -41t-143.5 -18.5q-61 0 -107 4t-89 10t-88.5 12t-105.5 12.5t-140 10.5t-191 4q-139 0 -252.5 -32t-194.5 -84t-126 -117.5t-45 -135.5q0 -80 55 -126t145 -46 q96 0 176 29t146 72t116 92t85 92t52 71.5t19 28.5q12 0 13 -10q0 -6 -17.5 -41t-50.5 -84t-80 -103.5t-106.5 -100.5t-132 -76.5t-154.5 -30.5q-141 0 -220 64.5t-79 160.5z" />
<glyph unicode="U" horiz-adv-x="1705" d="M395 733q0 14 5.5 44t13.5 65t20 73.5t29 73.5q41 92 104.5 178t143.5 152.5t172 106.5t192 40q66 0 116 -13t87 -36q55 12 108 13q135 0 207 -66t72 -203q0 -88 -42 -187.5t-105.5 -201.5t-137 -204.5t-137 -194.5t-105.5 -170t-42 -133q0 -35 12 -46.5t45 -11.5 q39 0 113.5 41t166 119t191.5 187.5t191 248.5q125 190 210.5 323.5t142 221.5t89.5 136t52.5 72.5t30.5 30t25 7.5l103 6l-410 -639q-68 -106 -140.5 -211.5t-130.5 -200t-95 -169.5q-35 -71 -35 -115q0 -27 11 -42.5t34 -15.5q41 0 92 37t113 94q78 72 111.5 117t41.5 45 q14 0 15 -10q0 -2 -10.5 -14.5t-28 -32t-38 -43t-38.5 -43.5q-23 -25 -56.5 -55.5t-69.5 -57t-70.5 -44t-59.5 -17.5q-47 0 -67.5 31.5t-20.5 89.5q0 90 25.5 160.5t60.5 144.5l-4 4q-23 -31 -62 -76t-87 -92t-102 -94t-108.5 -85t-104.5 -60.5t-91 -22.5q-45 0 -77 34.5 t-32 94.5q0 86 42 183t105.5 198.5t137.5 204t137.5 198.5t105.5 181t42 153q0 45 -18.5 76.5t-47.5 52t-65.5 31t-73.5 10.5q-23 0 -46.5 -2t-47.5 -6q45 -37 63 -90.5t18 -112.5q0 -92 -41.5 -189.5t-113.5 -177t-166 -130t-199 -50.5q-98 0 -143 56.5t-45 142.5 q0 90 49 179t129 165t181.5 133t203.5 84q-63 35 -166 35q-115 0 -226.5 -56.5t-201.5 -153.5t-151.5 -226t-75.5 -275q-2 -27 -12 -26q-10 0 -11.5 8t-1.5 20zM702 856q0 -74 37 -125t109 -51q51 0 108.5 24.5t112.5 66.5t105.5 96.5t88 115.5t60.5 126t23 124 q0 47 -18.5 88t-59.5 68q-109 -23 -210.5 -79.5t-180 -130t-127 -158.5t-48.5 -165z" />
<glyph unicode="V" horiz-adv-x="1593" d="M563 897q0 92 51.5 187.5t135.5 172t190.5 125t214.5 48.5q86 0 134 -22t75 -55.5t40 -72.5t27.5 -74t38 -60.5t72.5 -31.5q20 39 59 93.5t87.5 103.5t100.5 84t99 35q35 0 57.5 -18.5t22.5 -63.5q0 -37 -28.5 -82t-76.5 -85t-110.5 -69t-132.5 -35q-61 -287 -189 -550 t-315 -490l4 -4q154 104 287 233t256 267.5t237.5 280.5t229.5 276q160 182 254 261t149 79q35 0 60.5 -24t25.5 -56q0 -27 -17 -51.5t-46 -24.5q-25 0 -38 8t-23.5 18.5t-23.5 18.5t-36 8q-43 0 -118.5 -71.5t-171 -181t-203 -241t-209.5 -249.5q-139 -160 -260 -277 t-212.5 -193.5t-147.5 -113.5t-64 -37q-18 0 -19 17q0 12 8 18l25 18q49 39 93 118t84 177.5t76 210t70.5 216t68.5 194.5t71 149q-86 18 -134.5 50t-77 67t-44 71t-32.5 63.5t-44 46t-78 18.5q-82 0 -174 -41t-169 -109.5t-127 -158t-50 -185.5q0 -92 41 -141t121 -49 q78 0 164 50t147 142q41 61 65.5 116.5t39 96.5t20.5 65.5t10 24.5q14 0 15 -14q0 -37 -11.5 -91t-35 -114.5t-58.5 -120t-81 -105.5t-104 -76q-55 -28 -119 -28h-9q-111 0 -174.5 63.5t-63.5 174.5zM1628 1110q68 6 126 30.5t100 60.5t66 77t24 80q0 20 -12.5 33.5 t-41.5 13.5q-47 0 -89 -32t-76.5 -78t-60.5 -97t-36 -88z" />
<glyph unicode="W" horiz-adv-x="2048" d="M506 913q0 92 54 184.5t140 166t189.5 120t202.5 46.5q84 0 132 -23t76.5 -56.5t43 -73.5t30 -75t39 -61.5t68.5 -30.5q31 49 69.5 106.5t83.5 105.5t94.5 80t98.5 32q29 0 52.5 -22.5t23.5 -59.5q0 -51 -34 -99.5t-86 -86.5t-113.5 -61.5t-115.5 -23.5 q-35 -141 -74.5 -281.5t-107.5 -271.5q-31 -61 -70.5 -131.5t-81.5 -140.5t-84 -129t-81 -98l4 -4q27 10 71 45.5t94 87t104 112t104 119.5q57 68 105 131.5t99.5 129t109.5 139t134 161.5q68 78 127 140.5t109.5 117t92.5 102.5t75 99q14 20 30 21q6 0 14.5 -7.5t8.5 -17.5 t-10.5 -20.5t-26.5 -28.5q-47 -51 -81 -101.5t-60 -115.5q-14 -35 -33 -92.5t-38.5 -117t-36.5 -112.5t-30 -78q-51 -104 -94 -194t-91 -173t-103.5 -167t-130.5 -176q25 4 86 54t133.5 116.5t140.5 135t102 109.5q74 84 133.5 155t111.5 136.5t102.5 129t105.5 132.5 q51 66 113.5 139.5t127 136t127 103.5t115.5 41q35 0 56.5 -16.5t21.5 -54.5q0 -29 -19.5 -50.5t-47.5 -21.5q-23 0 -38.5 9t-27.5 19.5t-23.5 19.5t-23.5 9q-29 0 -70 -28.5t-104.5 -97t-155.5 -182.5t-227 -282q-176 -221 -317.5 -369.5t-243 -238.5t-159.5 -128t-71 -38 q-16 0 -16 17q0 6 17.5 29.5t44 65.5t60.5 104.5t68 146.5q27 70 50.5 130t44 116.5t42 111.5t46.5 115q27 66 59.5 125t64 110.5t60.5 90t49 63.5q-123 -115 -224 -230.5t-185 -223t-154 -202t-131 -163.5q-70 -86 -142.5 -162t-135 -134.5t-110.5 -92t-67 -33.5 q-18 0 -18 14q0 12 14 24.5t33 35.5q53 63 96 146t79 176t67.5 192.5t64.5 195.5t66.5 185.5t74.5 160.5q-80 12 -128 40t-77.5 63t-47 72.5t-37 68.5t-49 51.5t-82.5 20.5q-82 0 -173.5 -43t-167 -113t-126 -157t-50.5 -173q0 -92 41 -147t140 -55q66 0 124 32.5t121 98.5 q61 61 95 123.5t52.5 112.5t26 81t13.5 31q10 0 10 -17q0 -10 -4 -37.5t-15.5 -64.5t-27.5 -81t-41 -87q-27 -47 -62.5 -92t-78.5 -79t-90.5 -54.5t-98.5 -20.5q-57 0 -100 19.5t-71.5 54.5t-43 82t-14.5 102zM1563 1106q47 0 102 20.5t102.5 55.5t79 79t31.5 93 q0 29 -17.5 42t-41.5 13q-37 0 -77 -31.5t-76 -78t-63.5 -98.5t-39.5 -95z" />
<glyph unicode="X" horiz-adv-x="1478" d="M440 741q0 53 21.5 128t63.5 155t102.5 159t137.5 141t169 100t199 38q61 0 109 -16t71 -31q27 4 57.5 11.5t54.5 7.5q53 0 101.5 -17.5t84.5 -55.5t57.5 -101.5t21.5 -155.5v-64l4 -4q49 57 123.5 126t160.5 128.5t175.5 99.5t166.5 40q57 0 90 -42t33 -96 q0 -74 -46 -139.5t-120.5 -122.5t-168 -105t-188.5 -87t-183 -68t-150 -45q-41 -74 -82 -150.5t-72.5 -153.5t-51 -152.5t-19.5 -147.5q0 -47 18.5 -78t69.5 -31q63 0 130 44t122 97.5t92 97.5t45 44q10 0 10 -10l-18 -23q-18 -23 -50 -55.5t-73 -71.5t-85 -71.5t-88 -54 t-83 -21.5q-80 0 -116 68.5t-36 191.5q0 20 3.5 39.5t5.5 40.5q-53 -53 -130 -113.5t-163 -111t-175 -83t-167 -32.5q-31 0 -66 7t-64.5 22.5t-48 42t-18.5 65.5q0 86 56.5 158.5t145.5 134t199.5 109.5t218 85t202 61.5t149.5 39.5q27 55 58.5 111.5t58 115.5t45 120.5 t18.5 123.5q0 117 -54 171t-149 54q-23 0 -47 -4t-43 -8q45 -43 60.5 -90t15.5 -107q0 -94 -42 -186t-111.5 -166t-159.5 -119t-185 -45q-76 0 -112.5 48t-36.5 118q0 88 52 178t131 166t169 132t168 79q-27 18 -75 25.5t-83 7.5q-123 0 -231.5 -56.5t-194.5 -146.5 t-144 -202.5t-83 -223.5q-10 -43 -11 -62.5t-11 -19.5q-11 0 -11 14zM555 143q0 -66 29.5 -98.5t97.5 -32.5q90 0 198.5 66.5t213 167t194.5 217.5t144 217q-45 -12 -127 -33.5t-179.5 -54.5t-199 -78t-184.5 -100.5t-135 -123t-52 -147.5zM788 850q0 -53 27 -89t82 -36 q80 0 165 51t155.5 128t115.5 166t45 167q0 45 -15 85t-56 69q-74 -23 -164 -76t-169 -127t-132.5 -162t-53.5 -176zM1604 756q35 12 107.5 33.5t159.5 55.5t179 79t168 102t124 127t48 154q0 49 -20.5 69.5t-61.5 20.5q-57 0 -125.5 -35t-138.5 -91.5t-138.5 -127 t-127 -142t-104 -136t-70.5 -109.5z" />
<glyph unicode="Y" horiz-adv-x="1820" d="M338 127q0 100 52 185t133 146.5t177.5 96.5t186.5 35t164.5 -24.5t127 -67.5t81 -98.5t28.5 -116.5q0 -84 -39 -149.5t-100.5 -109.5t-138 -67t-152.5 -23q-27 0 -55.5 4.5t-53 10.5t-40 12t-15.5 12q0 10 11 11q6 0 15 -4.5t28.5 -8.5t51 -8t81.5 -4q63 0 130.5 22.5 t121 62.5t88 97.5t34.5 128.5q0 70 -27.5 118t-73.5 77t-104.5 42t-117.5 13q-96 0 -193.5 -32.5t-174.5 -92t-125 -145.5t-48 -191q0 -92 50.5 -155.5t125 -103.5t158.5 -57t152 -17q164 0 292.5 39.5t232 110.5t186.5 166t155 206.5t135.5 233.5t130.5 247l-4 4 q-33 -47 -98.5 -113.5t-142 -129t-153.5 -106.5t-134 -44q-66 0 -90.5 38t-24.5 99q0 74 26.5 145.5t65.5 138t86 129t86 123t65.5 116t26.5 108.5q0 45 -20.5 78t-52 52t-72.5 28.5t-80 9.5q-88 0 -202.5 -39t-217 -106.5t-173.5 -159.5t-71 -197q0 -66 49.5 -105.5 t112.5 -39.5q86 0 184.5 56t188.5 163q51 59 77.5 118.5t40 105.5t18.5 75t16 29q14 0 14 -17q0 -12 -7 -59t-27.5 -109.5t-55.5 -132t-92.5 -128t-137.5 -96.5t-190 -38q-100 0 -157.5 51t-57.5 123q0 68 31.5 133.5t85 125t122 109.5t144.5 86t152.5 56.5t144.5 20.5 q131 0 209 -65t78 -230q0 -66 -27 -131.5t-66 -131t-86 -128t-86 -121t-65.5 -109.5t-26.5 -94q0 -31 18.5 -43t47.5 -12q33 0 95 30.5t137 83.5t152 126t136 159q154 219 279.5 351t218 201.5t148.5 91.5t73 22q14 0 14 -13q0 -10 -20.5 -17t-55.5 -21.5t-82 -42t-101 -77 t-111.5 -126t-114.5 -189.5q-27 -53 -66 -130t-84 -163t-95 -176t-100.5 -172t-97.5 -149.5t-88 -108.5q-166 -166 -384 -255t-453 -89q-96 0 -192.5 25.5t-174.5 79t-127 133t-49 188.5z" />
<glyph unicode="Z" horiz-adv-x="1593" d="M395 119q0 63 50.5 134t135.5 130t197.5 98t239.5 39q41 0 100.5 -5t93.5 -17q117 154 241 297t253 286q-70 23 -110 56.5t-65.5 72.5t-41.5 78t-36.5 71t-51.5 51.5t-84 19.5q-84 0 -180.5 -45.5t-178 -117t-136 -163.5t-54.5 -184q0 -100 43 -147.5t145 -47.5 q68 0 134.5 44t123 110.5t96.5 143.5t56 144q8 31 9 43.5t7 12.5q8 0 9 -15q0 -72 -27 -163t-79 -170.5t-131 -135t-185 -55.5q-117 0 -171.5 64.5t-54.5 175.5q0 102 59.5 197.5t149.5 169t196.5 118.5t201.5 45q74 0 124 -21.5t84.5 -55.5t58 -73.5t42 -77.5t37 -68 t43.5 -40q47 45 105.5 101.5t125 105.5t137 83t142.5 34q49 0 80.5 -24.5t31.5 -65.5q0 -53 -44 -106.5t-115.5 -95.5t-162.5 -67.5t-184 -25.5q-29 0 -54 2t-50 6q-125 -143 -247 -286.5t-251 -291.5q82 -31 130.5 -75.5t76 -94t39.5 -98.5t22.5 -89t24 -64.5t43.5 -24.5 q41 0 98.5 34t108.5 81q57 51 88 82.5t46 50.5l21 24q5 6 9 6q8 0 8 -12q0 -4 -13 -20.5t-33.5 -38t-43.5 -45t-43 -41.5q-86 -86 -159.5 -124t-127.5 -38q-57 0 -92 30.5t-54.5 71.5t-27.5 84t-14 66q-10 39 -20.5 70.5t-23.5 56t-34.5 42t-54.5 32.5q-66 -72 -149 -153 t-172 -150.5t-177 -115.5t-164 -46t-123 32.5t-47 98.5zM420 125q0 -59 41 -86t98 -27q80 0 170 48.5t175 119t159 149.5t123 140q-16 6 -41 11t-50.5 8.5t-49 5.5t-37.5 2q-119 0 -225.5 -38t-187.5 -93.5t-128 -120t-47 -119.5zM1784 1098q23 -6 46 -11.5t46 -5.5 q76 0 157 23.5t148.5 61.5t111.5 86t44 98q0 39 -25.5 53t-60.5 14q-66 0 -132.5 -33.5t-128 -83t-114.5 -104.5t-92 -98z" />
<glyph unicode="[" horiz-adv-x="1024" d="M326 -401l913 1831h502l-25 -50h-383l-864 -1732h387l-25 -49h-505z" />
<glyph unicode="\" horiz-adv-x="569" d="M547 1430h63l457 -1442h-63z" />
<glyph unicode="]" horiz-adv-x="1024" d="M139 -401l25 49h383l864 1732h-387l25 50h505l-913 -1831h-502z" />
<glyph unicode="^" horiz-adv-x="819" d="M657 543l207 411h51l209 -411h-63l-170 338l-172 -338h-62z" />
<glyph unicode="_" horiz-adv-x="1024" d="M0 -154h1024v-102h-1024v102z" />
<glyph unicode="`" horiz-adv-x="454" d="M477 963q0 14 12.5 29.5t34.5 15.5q31 0 44.5 -19.5t21.5 -50.5t19.5 -70t37.5 -75q14 -23 34.5 -41.5t37 -32.5t29 -23.5t12.5 -15.5t-3 -6t-7 -2q-16 0 -60.5 31.5t-91.5 76.5t-84 95.5t-37 87.5z" />
<glyph unicode="a" d="M340 287q0 6 6 12t27 31q41 51 92 94t105.5 75.5t110.5 51t110 18.5q47 0 67.5 -29.5t20.5 -70.5q0 -37 -7 -55l5 -4q27 43 42 71.5t25 44t19.5 22.5t25.5 7l98 4q-14 -16 -41.5 -56t-60.5 -90.5t-66.5 -105.5t-62.5 -106t-46 -90t-17 -58q0 -29 34 -28q47 0 124 70.5 t167 174.5q18 23 22.5 28t8.5 5q6 0 9 -4t3 -8q0 -2 -11 -15.5t-27.5 -32t-36 -41t-37.5 -40.5q-72 -74 -129.5 -118t-98.5 -44t-65.5 28.5t-24.5 112.5q0 10 1 19.5t1 17.5q-23 -23 -54.5 -53.5t-66 -58t-69.5 -47t-64 -19.5q-39 0 -64.5 16.5t-40 42t-19.5 59.5t-5 68 q0 25 3 48.5t7 48.5q-4 0 -6 -3.5t-6 -3.5q-8 1 -8 11zM432 90q0 -29 11.5 -47t35.5 -18q45 0 108.5 48t123 117.5t101.5 146.5t42 134q0 31 -15.5 52.5t-47.5 21.5q-61 0 -126 -50.5t-116 -122t-84 -149.5t-33 -133z" />
<glyph unicode="b" horiz-adv-x="681" d="M328 272q0 4 26.5 36t60.5 71t66.5 74.5t42.5 48.5q27 29 75 101.5t109.5 170.5t129 212t131.5 226l129 21q-188 -313 -314.5 -523t-202 -342t-107.5 -198t-32 -92q0 -23 9.5 -38t37.5 -15q57 0 120 31.5t114 89t84 136t33 175.5q0 57 11 84.5t50 27.5q27 0 38 -24.5 t11 -52.5q0 -47 -18.5 -95.5t-43 -92.5t-50 -79t-39.5 -51q6 -2 18 -2q47 0 95.5 25.5t80.5 62.5q29 31 33 37t8 6q10 0 10 -10q0 -6 -8 -15l-24 -28q-45 -51 -102.5 -77t-110.5 -26q-10 0 -15.5 1.5t-7.5 1.5q-18 -18 -49 -43t-67.5 -48.5t-79.5 -41t-86 -17.5h-6 q-61 0 -88 40q-28 42 -27 103q0 55 30.5 114.5t66.5 112t66.5 89.5t30.5 47q0 4 -4 4t-27.5 -28.5t-76.5 -86.5q-41 -45 -64 -71l-34 -40q-11 -13 -15 -16.5t-8 -3.5q-10 0 -10 8z" />
<glyph unicode="c" horiz-adv-x="569" d="M340 287q0 2 2 5l8 12q6 9 20.5 25.5t39.5 45.5q88 104 175 149t173 45q59 0 96 -25.5t37 -74.5q0 -29 -20.5 -58.5t-55.5 -29.5q-29 0 -40 15.5t-11 35.5t9 28.5t21.5 13.5t21.5 12.5t9 23.5q0 12 -11 23.5t-36 11.5q-47 0 -103.5 -36t-105.5 -96.5t-82.5 -140 t-33.5 -168.5q0 -80 86 -79q53 0 123.5 37.5t138.5 109.5q41 43 64.5 69.5t34.5 40t15.5 18.5t6.5 5q12 0 12 -12q0 -4 -23.5 -32t-56.5 -62q-98 -106 -175 -152.5t-155 -46.5q-47 0 -78.5 21.5t-50 54.5t-26 72.5t-7.5 76.5q0 25 3.5 38t3.5 18q0 4 -4 4t-7.5 -4.5 t-7.5 -4.5q-10 1 -10 11z" />
<glyph unicode="d" d="M340 287l1 3q1 3 7 11t18.5 23.5t34.5 40.5q84 92 182.5 154.5t200.5 62.5q39 0 68 -22.5t29 -70.5v-27q0 -13 -4 -24l4 -4l446 795l121 4q-121 -215 -237.5 -412.5t-209 -356.5t-148.5 -264.5t-56 -136.5q0 -39 34 -38q23 0 64 26.5t106 91.5q82 80 114 121t36 41 q12 0 12 -8t-43 -57q-109 -125 -180.5 -182.5t-128.5 -57.5q-35 0 -55.5 30.5t-20.5 78.5q0 25 5 46t10 38l-5 4q-16 -27 -46.5 -61t-67.5 -64.5t-79 -51t-81 -20.5q-31 0 -53.5 17.5t-36.5 44t-20.5 60.5t-6.5 64q0 23 2 49.5t6 49.5q-4 0 -7 -5.5t-5 -5.5q-10 1 -10 13z M436 80q0 -55 56 -55q39 0 100 45t119.5 113.5t101.5 148.5t43 147q0 35 -12.5 56.5t-46.5 21.5q-51 0 -113.5 -46t-118 -116.5t-92.5 -154.5t-37 -160z" />
<glyph unicode="e" horiz-adv-x="569" d="M340 287q0 2 9 14t22.5 26.5t26 28t18.5 19.5q86 86 178 140t176 54q47 0 74.5 -27.5t27.5 -70.5q0 -57 -49 -103t-116.5 -80t-139 -56.5t-116.5 -30.5q-4 -16 -6.5 -33.5t-2.5 -34.5q0 -59 19.5 -82.5t66.5 -25.5q2 0 5 -1q41 0 112 34q76 36 170 128q59 61 81 90t28 29 q10 0 10 -12q0 -4 -13.5 -20.5t-34 -40t-46 -50t-47.5 -47.5q-78 -72 -142.5 -102.5t-136.5 -32.5q-43 0 -72.5 18.5t-50 49t-30 69.5t-9.5 80q0 23 3 39t3 20q0 2 -2 5l-6 -7q-2 0 -6 4.5t-4 8.5zM459 225q51 6 112.5 30t114.5 61.5t89 86t36 103.5q0 39 -41 39t-90 -34 t-95 -83t-81 -104.5t-45 -98.5z" />
<glyph unicode="f" horiz-adv-x="454" d="M8 -557l318 577q-16 10 -20.5 26.5t-4.5 33.5q0 29 16.5 46t40.5 17q16 0 27 -6l236 420l-5 4q-61 -53 -97 -94t-75 -84q-45 -49 -67.5 -79t-28.5 -30q-10 0 -10 11q0 2 8 12t26.5 32.5t51.5 59.5t82 90q41 45 69.5 73t49 46t36 35.5t29.5 44.5q23 41 58.5 103.5 t78.5 131t93.5 137t103.5 123t107.5 88t105.5 33.5q41 0 58.5 -24.5t17.5 -69.5q0 -74 -51.5 -151.5t-138.5 -159.5t-200.5 -172t-236.5 -189l-244 -487q66 4 141.5 51t161.5 144q41 43 48.5 55t15.5 12q10 0 10 -10q0 -4 -10 -16.5t-25.5 -30t-33 -37t-33.5 -35.5 q-66 -66 -139.5 -111t-151.5 -57l-293 -547zM707 580l4 -5q39 35 96 80t120.5 98.5t127 112t114 118.5t81 120.5t30.5 118.5q0 47 -57 47q-61 0 -126 -61.5t-130.5 -160t-131 -222t-128.5 -246.5z" />
<glyph unicode="g" d="M121 -535q0 61 37 117t106.5 113t170 117.5t229.5 134.5q23 51 54.5 116.5t88.5 176.5l-4 4q-23 -31 -57.5 -73t-76.5 -80t-87 -64.5t-88 -26.5q-72 0 -99.5 49t-27.5 129q0 39 7 61.5t7 45.5q0 6 -8 6q-10 0 -14.5 -7.5t-8.5 -7.5q-8 0 -8 13q0 4 11.5 17t54.5 61 q35 37 83 72.5t101 64t106.5 47t98.5 18.5q49 0 77.5 -22.5t28.5 -75.5q0 -45 -8 -72l4 -4q20 33 43 73t43 83l133 10l-344 -569l4 -4q43 18 88 48t88 66.5t83 77.5t73 80q25 29 31 37t12 8q8 0 8 -10q0 -8 -14 -24.5t-60 -65.5q-82 -92 -172 -158.5t-153 -89.5 q-18 -39 -52 -98.5t-78 -126t-96.5 -132t-105.5 -118.5t-106.5 -87t-100.5 -34q-45 0 -73.5 25.5t-28.5 78.5zM174 -537q0 -35 9.5 -56t49.5 -21q39 0 81 30.5t85 78.5t83 108.5t74 119t57.5 109.5t33.5 82q-51 -31 -131 -78t-155.5 -106.5t-131 -127t-55.5 -139.5zM440 88 q0 -27 13.5 -45t40.5 -18q37 0 80.5 25.5t87 65.5t82 89t68.5 98t48.5 93t18.5 73q0 35 -12.5 55.5t-49.5 20.5q-61 0 -127.5 -49.5t-122 -121t-91.5 -150.5t-36 -136z" />
<glyph unicode="h" d="M260 0q168 295 342 557l-2 4q-43 -47 -73.5 -87t-86.5 -99q-33 -37 -51 -58l-28 -30q-9 -10 -12 -13.5t-5 -3.5q-8 0 -8 13q0 8 41 51t103.5 115.5t137 172t142.5 216.5l221 381l125 14q-20 -35 -61 -105.5t-96.5 -162t-118 -194.5t-122 -204.5t-112.5 -192.5t-90 -155 l4 -4q147 170 255.5 262t162.5 92q45 0 63.5 -32.5t18.5 -73.5q0 -43 -35 -99.5t-78 -113.5t-78 -110.5t-35 -86.5q0 -10 7.5 -19t23.5 -9q47 0 100.5 43t139.5 133q18 18 34.5 37.5t31 36t24.5 27.5t14 11q10 0 10 -10q0 -4 -30.5 -41t-71.5 -80q-55 -59 -96 -95t-72 -55.5 t-53.5 -25.5t-40.5 -6q-31 0 -56.5 22.5t-25.5 90.5t35 128t78 111t77.5 93t34.5 73q0 10 -7 18.5t-15 8.5q-27 0 -74 -32t-101.5 -81t-112.5 -110.5t-109.5 -121t-89.5 -109.5t-52 -79z" />
<glyph unicode="i" horiz-adv-x="454" d="M340 289q0 4 10 15t51 58q20 23 46 50.5t50.5 55.5t46 52.5t34.5 40.5l129 8q-92 -152 -148.5 -242.5t-86.5 -143t-40 -76t-10 -39.5q0 -27 12 -35t27 -8q25 0 53.5 14t59 35.5t60.5 48.5t54 53q20 20 42 44t39 44.5t29.5 33.5t14.5 13q12 0 12 -10q0 -4 -29.5 -40 t-95.5 -103q-152 -158 -241 -158q-47 0 -73 29.5t-26 76.5q0 51 20.5 102.5t50.5 100.5t63.5 94.5t60.5 83.5l-4 5q-18 -18 -59 -61.5t-115 -127.5q-16 -18 -20.5 -22.5t-8.5 -4.5q-8 1 -8 13zM778 893q0 27 18.5 52.5t53.5 25.5q23 0 35 -15.5t12 -37.5q0 -27 -18.5 -52.5 t-53.5 -25.5q-23 0 -35 15t-12 38z" />
<glyph unicode="j" horiz-adv-x="454" d="M-223 -547q0 72 56 141.5t138 133t174.5 119t163.5 100.5q109 227 184.5 373.5t102.5 185.5l-4 4q-29 -23 -49 -41l-41 -37q-20 -18 -40 -38.5t-44 -45.5q-23 -25 -36 -38t-19.5 -21t-8.5 -10.5t-4 -2.5q-10 0 -10 13q0 2 2 5t9 11t22.5 23.5t40.5 44.5q41 43 97 95 t103 93l129 8q-31 -57 -76.5 -142t-95 -173t-93.5 -166t-72 -121l4 -4q92 47 181 121t175 174q29 33 34 40t11 7q8 0 8 -10q0 -8 -8 -15.5t-31 -35.5q-70 -86 -162 -167t-233 -153q-23 -39 -54.5 -96t-71.5 -119.5t-85 -124t-94 -112t-99.5 -81t-99.5 -30.5 q-47 0 -75.5 21.5t-28.5 70.5zM-170 -561q0 -29 18.5 -41t47.5 -12q41 0 82.5 30.5t80.5 78.5t76 107.5t66.5 118t53.5 108.5t36 81l-4 4q-53 -35 -130 -85t-147.5 -111.5t-122 -132t-57.5 -146.5zM786 889q0 27 18.5 52.5t53.5 25.5q23 0 35 -15.5t12 -38.5 q0 -27 -18.5 -52t-52.5 -25q-23 0 -35.5 15t-12.5 38z" />
<glyph unicode="k" d="M254 0l328 530l-4 5l-30 -35t-36 -44.5t-37.5 -45t-36.5 -39.5q-35 -37 -54 -59.5t-29.5 -35t-14.5 -15.5t-6 -3q-8 0 -8 12q0 4 5 11.5t23.5 27t52 58.5t93.5 106q51 59 90 109.5t72.5 99.5t65.5 101.5t69 116t82 141t104 180.5l127 12l-717 -1225zM600 311 q0 10 13.5 21.5t58.5 11.5q8 0 15 -2t24 -2q12 0 33.5 10t47 28.5t51 43t48.5 53.5q45 57 73.5 75.5t63.5 18.5t56.5 -17t21.5 -46q0 -27 -17.5 -41t-39.5 -14q-33 0 -42.5 19t-11.5 54q-35 -6 -52 -25.5t-42 -60.5q-27 -41 -75 -70.5t-97 -39.5v-4q20 -4 39.5 -17.5t35 -32 t25 -39t9.5 -36.5t-7.5 -39t-15.5 -44.5t-15 -38t-7 -22.5q0 -12 9 -21t21 -9q25 0 53.5 17t58.5 39.5t54.5 47.5t38.5 41q43 45 65.5 70.5t34 40t14.5 18.5t7 4q12 0 12 -10q0 -2 -9 -14.5t-24.5 -30t-34 -39t-36.5 -39.5q-27 -29 -58.5 -59.5t-64.5 -55t-63.5 -40 t-55.5 -15.5q-29 0 -49.5 15.5t-33.5 39t-19 50t-6 49.5t6 41t14 33.5t14.5 28.5t6.5 26q0 12 -12.5 22t-24.5 10q-16 0 -34 -14t-46 -14q-31 -1 -31 24z" />
<glyph unicode="l" horiz-adv-x="454" d="M328 274q0 6 37.5 47t98 112t135.5 168t149 216l245 402l135 14q-201 -315 -335 -526t-216.5 -345.5t-117.5 -205t-35 -105.5q0 -10 9 -18t24 -8q47 0 103 38.5t134 116.5q70 70 89.5 97.5t27.5 27.5q10 0 10 -10q0 -2 -8 -12.5t-20.5 -24.5t-25.5 -28.5t-24 -26.5 q-90 -96 -161.5 -149.5t-130.5 -53.5q-53 0 -71 30.5t-18 71.5q0 45 12.5 83t39 82t65.5 102.5t92 146.5l-4 4q-27 -31 -55.5 -65.5t-79.5 -89.5q-29 -33 -46 -52.5t-27.5 -31t-14.5 -14.5t-8 -3q-8 0 -8 10z" />
<glyph unicode="m" horiz-adv-x="1251" d="M338 287q0 4 31.5 39.5t89.5 101.5q72 80 123 110.5t88 30.5q82 0 82 -77q0 -35 -12.5 -72t-31 -73t-39 -70.5t-34.5 -61.5l4 -4q27 29 75 88t102 119.5t108.5 105.5t95.5 45q35 0 52.5 -21.5t17.5 -70.5q0 -35 -10.5 -69.5t-26 -68.5t-32.5 -64.5t-32 -55.5l4 -4 q27 31 75 90.5t104.5 117.5t112.5 102t99 44q29 0 50.5 -24.5t21.5 -79.5q0 -49 -30.5 -102.5t-69.5 -105.5t-72 -100t-37 -87q-2 -16 7.5 -30.5t25.5 -14.5q29 0 79 35.5t107 95.5q51 55 78 84.5t39 43t15.5 16.5t7.5 3q10 0 10 -10q0 -4 -11.5 -17.5t-27.5 -32t-36.5 -41 t-41.5 -42.5q-78 -80 -130 -120t-95 -40q-47 0 -67.5 36t-20.5 95q0 63 33.5 122.5t74.5 111t75 92.5t34 69q0 6 -5 12.5t-22 6.5q-29 0 -74 -34t-96 -86t-104 -114.5t-99.5 -122t-81 -107.5t-49.5 -69l-129 -12q10 18 36 59t58.5 92.5t67.5 107.5t64.5 106.5t48 90.5 t18.5 58q0 29 -26 31h-3q-22 0 -60 -30q-40 -32 -90 -84t-103.5 -115.5t-100.5 -124t-84 -108.5t-51 -71l-133 -12q150 238 231.5 365t81.5 151q0 29 -30 29q-43 0 -93.5 -40t-101.5 -93q-72 -78 -95.5 -108t-29.5 -30t-8 4.5t-2 8.5z" />
<glyph unicode="n" horiz-adv-x="909" d="M338 287q0 2 8 13t20.5 24.5t26 29t23.5 27.5q74 86 137 137t123 51q41 0 58.5 -26.5t17.5 -73.5q0 -31 -14.5 -66.5t-34 -70.5t-42 -67t-38.5 -54l4 -4q31 29 85 89t115.5 120.5t121 106.5t98.5 46t56 -31.5t17 -64.5q0 -53 -24.5 -97t-51.5 -79q-137 -186 -137 -231 q0 -16 8.5 -28.5t24.5 -12.5q35 0 94.5 48t122.5 115q39 41 59.5 64.5t29.5 35t12.5 14.5t7.5 3q8 0 8 -10q0 -4 -16.5 -24.5t-38 -45t-43 -47t-31.5 -33.5q-68 -68 -121 -106.5t-88 -38.5q-47 0 -68.5 38t-21.5 93q0 61 34.5 121.5t75.5 113t76 93.5t35 61q0 25 -29 25 q-25 0 -69.5 -33t-98 -84t-111 -113.5t-108.5 -122t-90 -107.5t-53 -73l-137 -12q10 18 37.5 59t64.5 93.5t77 109.5t72.5 107.5t54 89.5t21.5 55t-9 23.5t-21 7.5q-43 0 -91.5 -36t-125.5 -122q-37 -39 -56.5 -61.5t-29 -33.5t-12.5 -14.5t-5 -3.5q-10 1 -10 13z" />
<glyph unicode="o" horiz-adv-x="681" d="M332 279q0 4 11 18t30 33l39 39l39 39q90 86 178 123.5t157 37.5q59 0 91 -40t32 -101q0 -31 -10 -66.5t-27.5 -69.5t-39 -65.5t-44.5 -54.5q8 -4 23 -4q53 0 102.5 27.5t87.5 72.5q20 23 25.5 29t9.5 6q10 0 11 -10q0 -4 -8.5 -14.5t-43.5 -47.5q-39 -41 -91 -64.5 t-111 -23.5q-20 0 -27 2q-47 -53 -111.5 -99t-150.5 -46q-61 0 -94 49t-33 133q0 55 5 76t5 31q0 12 -6 12q-12 0 -22.5 -16.5t-14.5 -16.5q-12 1 -12 11zM459 100q0 -43 15 -59t38 -16q61 0 123.5 40.5t113 103t83 138.5t32.5 146q0 37 -16.5 64.5t-54.5 27.5 q-53 0 -112.5 -45t-109 -113t-81 -146t-31.5 -141z" />
<glyph unicode="p" d="M-68 -537l703 1141l-4 4q-41 -47 -88 -105.5t-90 -109.5t-73 -86t-32 -35q-12 0 -12 11q0 4 3 8t14.5 17.5t36 41t67.5 80.5q47 59 82.5 102t63.5 78t50.5 65t46 63.5t51 74.5t64.5 98l107 19l-437 -740l4 -4q29 33 83.5 97.5t117 128t127 110.5t113.5 47 q41 0 58.5 -31.5t17.5 -74.5q0 -49 -34 -103.5t-76 -109.5t-76 -106.5t-34 -90.5q0 -29 33 -28q16 0 38 7t50.5 26.5t65.5 54t84 88.5q31 35 48 55t26.5 31.5t12.5 14.5t7 3q10 0 10 -10q0 -4 -2 -7t-8 -10.5t-18.5 -20.5t-34.5 -40q-104 -125 -172 -171t-113 -46 q-47 0 -67.5 36t-20.5 95q0 61 34 117.5t76 105.5t75.5 91t33.5 73q0 27 -26 27q-29 0 -96.5 -47t-160 -143.5t-201 -242t-220.5 -341.5l-170 -299z" />
<glyph unicode="q" d="M330 -557l463 762l-5 4q-14 -16 -46.5 -51t-75.5 -70t-90.5 -61.5t-90.5 -26.5q-59 0 -88.5 50t-29.5 134q0 39 7 71t7 36t-6 4q-12 0 -16.5 -10.5t-8.5 -10.5q-2 0 -6 3.5t-4 11.5q0 4 21.5 27.5t56.5 60.5q47 49 100 85t105.5 59.5t99.5 35.5t84 12q43 0 71.5 -22.5 t28.5 -77.5q0 -12 -5 -35.5t-7 -34.5l4 -4l90 158l113 4l-545 -922l4 -4q123 156 255 305.5t261 290.5q49 53 60.5 66.5t15.5 13.5q12 0 12 -12q0 -2 -19.5 -23.5t-44.5 -49.5l-51 -55q-26 -28 -38 -42q-37 -43 -110 -123t-155.5 -175t-161.5 -193.5t-124 -176.5zM449 82 q0 -20 9 -38.5t25 -18.5q59 0 129 50t130.5 120.5t100.5 146.5t40 127q0 41 -17.5 58.5t-58.5 17.5q-47 0 -108.5 -42t-117 -109.5t-94 -149.5t-38.5 -162z" />
<glyph unicode="r" horiz-adv-x="681" d="M338 285q0 4 11 18t29.5 34.5t40 43t40.5 45.5q66 72 116 107.5t93 35.5q39 0 59.5 -29.5t20.5 -66.5q0 -31 -14.5 -69.5t-35 -77.5t-43 -74t-37.5 -55l5 -4q82 94 147.5 151t79.5 98q16 45 49 86t86 41q49 0 49 -32q0 -31 -35.5 -58.5t-78.5 -60.5t-79 -72t-36 -92 q0 -31 19.5 -50.5t47.5 -19.5q51 0 93 41q35 35 49 56.5t20 21.5q12 0 13 -10q0 -4 -18.5 -26.5t-33.5 -39.5q-31 -35 -63.5 -49t-61.5 -14q-35 0 -62.5 21.5t-27.5 58.5q0 35 10.5 62.5t30.5 51.5l-4 4q-80 -74 -155.5 -161.5t-153.5 -188.5l-129 -12q78 125 136 214 t98 148.5t60.5 96.5t20.5 57q0 29 -35 29q-23 0 -60.5 -21.5t-98.5 -85.5q-47 -49 -76 -80.5t-44 -50t-22.5 -26t-9.5 -7.5q-10 1 -10 11z" />
<glyph unicode="s" horiz-adv-x="454" d="M289 92q0 57 51 58q16 0 29.5 -9.5t13.5 -23.5q0 -16 -4 -22.5t-10.5 -10.5t-10.5 -9t-4 -20q0 -31 35 -30q37 0 74 36.5t66.5 89t48 110.5t18.5 99q0 74 1 129.5t11 63.5l-4 4q-10 -6 -41 -40t-68.5 -77t-73.5 -85t-54 -62q-12 -16 -19 -17q-8 0 -8 9q0 10 23.5 34.5 t66.5 77.5q18 23 46 54.5t55.5 61.5t50 52.5t26.5 24.5q2 0 6 10t12.5 21.5t20.5 20.5t29 9q35 0 35 -30q0 -29 -27 -41.5t-55 -22.5q-4 -16 -6 -23.5t-2 -23.5q0 -57 7 -96t14 -70t14.5 -57.5t7.5 -57.5q0 -37 -16.5 -67.5t-41.5 -57.5v5l4 -5q51 35 86 74t62 70 q33 35 39 46t12 11q10 0 10 -12q0 -4 -26.5 -36t-57.5 -67q-84 -94 -159.5 -142t-161.5 -48q-35 0 -53.5 3t-38.5 20q-12 10 -22.5 31.5t-10.5 37.5z" />
<glyph unicode="t" horiz-adv-x="454" d="M328 270q0 2 2 7.5t11 15.5t26.5 29.5t48.5 54.5q23 25 56.5 63.5t71.5 85.5t78 99.5t74 103.5h-73q-10 0 -11 12q0 12 9 13h86l120 196l127 8l-133 -204h240q10 0 10 -13q0 -12 -10 -12h-254q-16 -29 -51 -83t-78 -120.5t-89 -140.5t-84 -138.5t-62.5 -116.5t-24.5 -75 q0 -31 39 -30q47 0 101 37.5t124 107.5q39 39 62.5 64.5t37 41t18.5 22.5t9 7q10 0 10 -12q0 -2 -11 -16.5t-27.5 -33t-36 -39t-35.5 -36.5q-94 -94 -153.5 -131t-102.5 -37q-53 2 -75 34t-22 66q0 43 12.5 85t37 88t60.5 98.5t81 117.5l-4 5q-29 -35 -56.5 -66t-68.5 -78 q-6 -8 -19.5 -22.5t-26 -28.5t-22.5 -25.5t-12 -11.5q-10 0 -10 8z" />
<glyph unicode="u" d="M342 291q0 2 3 7t13.5 17.5t32 34t55.5 58.5q31 33 71 71.5t93 81.5l115 8q-94 -152 -152.5 -238.5t-90 -137t-43 -77t-11.5 -57.5q0 -18 11.5 -26t23.5 -8q39 0 105.5 53t140 133t144.5 174t118 176l131 8q-14 -25 -42 -65.5t-62.5 -89.5t-70.5 -102.5t-66 -101.5 t-49 -88t-19 -63q0 -35 34 -34q23 0 72 32.5t121 108.5q45 47 70.5 74.5t38 41t15.5 17.5t7 4q10 0 10 -10q0 -2 -12 -17.5t-30.5 -36t-40 -43t-38.5 -40.5q-78 -80 -130 -118t-93 -38q-27 0 -44 13.5t-26.5 34t-12.5 43t-3 40.5q0 39 14 78l-4 4q-23 -25 -55.5 -60.5 t-71.5 -69.5t-78.5 -58.5t-74.5 -24.5q-49 0 -71.5 31.5t-22.5 79.5q0 57 21.5 109t54 98.5t69.5 90.5t66 87l-5 4q-45 -35 -93 -86.5t-95 -100.5q-20 -23 -24.5 -28.5t-10.5 -5.5q-8 0 -8 12z" />
<glyph unicode="v" d="M340 287q0 2 3 7t14.5 18.5t34 38t61.5 67.5q82 90 133 120.5t86 30.5q49 0 66.5 -32.5t17.5 -71.5q0 -55 -30 -106.5t-64.5 -99.5t-64.5 -93t-30 -86q0 -55 51 -55q57 0 122 37.5t119 99t90 139.5t36 156q0 113 64 112q47 0 47 -67q0 -31 -21.5 -79t-52.5 -99.5 t-63.5 -94.5t-55.5 -61l4 -4q51 4 95.5 23.5t76.5 45.5q41 35 53.5 53.5t16.5 18.5q12 0 12 -10q0 -4 -8 -15.5t-21.5 -25.5t-29 -28.5t-29.5 -22.5q-57 -39 -107.5 -51.5t-78.5 -12.5q-10 0 -36 -21.5t-61.5 -48t-80.5 -48t-95 -21.5q-59 0 -87.5 39t-28.5 104 q0 61 31.5 116.5t70.5 104t70.5 88.5t31.5 70q0 23 -34 23q-33 0 -70 -23.5t-72 -58.5q-86 -82 -129 -135.5t-49 -53.5q-8 1 -8 13z" />
<glyph unicode="w" horiz-adv-x="1024" d="M340 289q0 4 11 15t40 48q53 63 111.5 118.5t99.5 92.5l117 6q-12 -20 -40 -60t-60.5 -90t-68.5 -105.5t-64.5 -104.5t-47 -86t-18.5 -51q0 -16 9 -31.5t30 -15.5q49 0 117.5 54t138 134t132 173t101.5 171l135 12q-14 -20 -40.5 -60t-58.5 -88t-64.5 -101.5t-59 -101.5 t-44 -87t-17.5 -59q0 -47 51 -47q49 0 111.5 32.5t119 89t97.5 133t45 164.5q4 82 16 103.5t47 21.5q23 0 35 -14t12 -31q0 -39 -20.5 -91t-50 -103t-64.5 -95.5t-65 -66.5l4 -4q66 4 120 36.5t82 63.5q20 23 26.5 32t12.5 9q10 0 11 -12q0 -4 -25 -33t-66 -57 q-35 -23 -78.5 -41.5t-103.5 -22.5q-8 0 -30.5 -22.5t-58.5 -48t-82 -47t-101 -21.5q-37 0 -59.5 13.5t-35 35t-16.5 49t-4 56.5q0 14 3 26.5t7 20.5l-4 4q-23 -23 -54.5 -57.5t-68.5 -67.5t-75.5 -56.5t-75.5 -23.5q-53 0 -78 31.5t-25 83.5q0 51 22.5 102t54.5 99.5 t68 92.5t64 80l-4 5q-49 -41 -83 -75t-72 -81q-35 -41 -45.5 -51.5t-14.5 -10.5q-8 1 -8 13z" />
<glyph unicode="x" horiz-adv-x="681" d="M248 63q0 27 12 43.5t43 16.5q47 0 47 -55q0 -35 15 -35q23 0 56.5 22.5t69 56t68.5 74.5t55 78q10 18 23.5 53t25 74t19.5 73t8 46q0 35 -22 35q-37 0 -84 -37t-107 -96q-41 -41 -64.5 -67t-37 -42t-19.5 -22.5t-8 -6.5q-8 0 -8 13q0 2 3 7t16.5 20.5t39 44t70.5 75.5 q59 61 108.5 98t96.5 37q43 0 64.5 -34.5t21.5 -96.5q0 -66 -8 -86l4 -4q14 29 41.5 67t62.5 72.5t74 58t74 23.5q37 0 58 -18.5t21 -46.5q0 -20 -11 -34.5t-34 -14.5q-18 0 -31.5 10t-17.5 35q-2 14 -5 19t-25 5q-29 0 -76 -43t-92 -110.5t-79 -150.5t-34 -163 q0 -33 25 -32q68 0 225 165q59 63 77.5 88t26.5 25q10 0 11 -10q0 -2 -11.5 -16.5t-30 -36t-43 -48t-51.5 -55.5q-68 -72 -117 -104.5t-94 -32.5q-31 0 -51 13.5t-30.5 37t-14.5 53t-4 62.5q0 10 2 27.5t2 27.5q-20 -31 -50 -69.5t-64.5 -72.5t-74.5 -56.5t-79 -22.5 q-51 0 -69.5 17t-18.5 46z" />
<glyph unicode="y" horiz-adv-x="909" d="M223 -528q0 55 42 112.5t117 118.5t179.5 129t229.5 141l178 340l-4 4q-14 -18 -40 -48.5t-58.5 -65.5t-70.5 -70t-76 -63.5t-72 -47t-58 -18.5q-39 0 -63.5 38t-24.5 79q0 55 30.5 111.5t67.5 108.5t67.5 97t30.5 80q0 27 -32 27q-39 0 -85 -35t-106 -96 q-43 -47 -67.5 -74t-37 -42t-16.5 -19.5t-8 -4.5q-8 0 -8 11q0 2 2 6t12 16t30.5 35t55.5 64q88 98 142.5 130.5t89.5 32.5q47 0 68.5 -35.5t21.5 -76.5q0 -55 -31 -113.5t-67.5 -112t-67.5 -98.5t-31 -74q0 -31 29 -30q31 0 78 29.5t98 77.5t105.5 107.5t101.5 118 t83 110.5t52 85l131 12l-364 -592l4 -4q53 25 101 60t91 72.5t79 76.5t65 72q29 35 34.5 42t14.5 7q8 0 8 -10q0 -2 -9.5 -13.5t-22.5 -27.5t-28.5 -33.5t-27.5 -32.5q-43 -47 -84 -83.5t-81 -66.5t-81 -54.5t-86 -47.5q-160 -281 -299 -427t-231 -146q-43 0 -72 28t-29 83z M268 -537q0 -41 17.5 -59t44.5 -18q39 0 85 28.5t101 94t119.5 171t138.5 257.5v-7l-4 4q-139 -90 -235.5 -159.5t-156 -126t-85 -101.5t-25.5 -84z" />
<glyph unicode="z" horiz-adv-x="681" d="M279 18q0 14 12 27.5t28.5 26t34 21.5t27.5 16q6 4 50 41.5t109.5 93t144.5 117t155 112.5l-4 4q-10 -6 -31 -16t-47.5 -19.5t-55 -16.5t-55.5 -7q-39 0 -65.5 12t-55.5 31q-20 -16 -42.5 -39t-43 -45.5t-39.5 -43.5l-30 -36q-10 -10 -13.5 -14t-9.5 -4t-6 14 q0 2 20.5 25.5t48 53t57.5 59.5t46 44q-10 20 -10 41q0 29 17.5 41t43.5 12q23 0 36 -12t13 -29q0 -23 -13 -32t-13 -27q0 -12 22.5 -19.5t51.5 -7.5q16 0 44.5 7.5t58.5 16.5t54.5 20.5t34.5 21.5q14 12 42 36.5t44 24.5t16 -24q0 -16 -11 -27.5t-27.5 -21t-34 -17.5 t-31.5 -14q-10 -4 -67.5 -49t-163.5 -135q-27 -23 -55.5 -44.5t-52.5 -39t-39 -28.5t-15 -13q0 -6 6 -6t25.5 13t48 30.5t62.5 31t69 13.5q31 0 58.5 -15.5t31.5 -50.5q2 -25 -5 -43t-18.5 -33.5t-20.5 -29t-9 -27.5q0 -6 7 -10t13 -4q14 0 36.5 13t48.5 35.5t54.5 50.5 t55.5 56q41 43 62.5 67.5t31.5 37t13 15.5t7 3q10 0 11 -10q0 -6 -26 -35t-81 -90q-45 -51 -79 -84t-59.5 -51.5t-44 -25.5t-34.5 -7q-41 0 -69.5 27.5t-28.5 68.5q0 33 20.5 53.5t20.5 45.5q0 18 -27 18q-23 0 -65 -19.5t-83.5 -45t-76.5 -51t-43 -40.5q-8 -14 -27.5 -35.5 t-36.5 -21.5q-28 0 -28 18z" />
<glyph unicode="{" horiz-adv-x="1024" d="M512 -305q0 33 12.5 81t44.5 113l189 377q18 37 35.5 80t17.5 68q0 63 -86 96q55 14 96 34.5t73 50.5t58.5 68.5t51.5 90.5l188 379q47 96 97 154.5t103.5 90t113 42t124.5 10.5l-26 -50q-102 -8 -168 -68.5t-119 -168.5l-180 -359q-29 -57 -56.5 -101t-62.5 -78 t-79 -56.5t-103 -36.5l-2 -4q47 -14 67.5 -39t20.5 -59q0 -33 -14.5 -73t-45.5 -101l-180 -359q-25 -49 -42 -93t-17 -77q0 -27 26.5 -47t71.5 -20l-12 -50q-88 0 -142.5 19.5t-54.5 85.5z" />
<glyph unicode="|" horiz-adv-x="454" d="M621 0v1233h61v-1233h-61z" />
<glyph unicode="}" horiz-adv-x="1024" d="M246 -410l26 50q102 8 168 68.5t119 168.5l180 359q29 57 56.5 101t62.5 78t79 56.5t103 36.5l2 4q-47 14 -67.5 38.5t-20.5 59.5q0 33 14.5 73t45.5 101l180 359q25 49 42 93t17 77q0 27 -26.5 47t-71.5 20l12 50q88 0 142.5 -19.5t54.5 -85.5q0 -33 -12.5 -81 t-44.5 -114l-189 -376q-18 -37 -35.5 -80t-17.5 -68q0 -63 86 -96q-55 -14 -96 -34.5t-73 -50.5t-58.5 -69t-51.5 -90l-188 -379q-47 -96 -97 -154.5t-103.5 -90t-112.5 -42t-125 -10.5z" />
<glyph unicode="~" horiz-adv-x="819" d="M494 254q18 35 51 65.5t90 30.5q29 0 60.5 -10t64.5 -25q31 -14 61.5 -27.5t52.5 -13.5q35 0 56.5 26t42.5 56l41 -41q-27 -35 -57.5 -65.5t-84.5 -30.5q-31 0 -58.5 10.5t-55.5 26.5q-29 16 -59.5 28.5t-69.5 12.5q-37 0 -59.5 -26.5t-34.5 -57.5z" />
<glyph horiz-adv-x="1820" d="M317 410q0 96 46.5 181t123 148.5t175 100.5t204.5 37q68 0 138.5 -17.5t129 -55.5t96.5 -96.5t38 -138.5q0 -84 -39 -148.5t-102.5 -109.5t-141.5 -67.5t-156 -22.5q-49 0 -95 10.5t-82 23.5t-56.5 25.5t-20.5 18.5q0 12 7 12q8 0 26.5 -10t49 -22.5t74.5 -22.5t106 -10 q70 0 140.5 20.5t127.5 60.5t93 100t36 138q0 109 -85 175.5t-253 66.5q-96 0 -191.5 -33t-173 -91t-126 -137t-48.5 -173q0 -80 39 -146.5t108.5 -113.5t166 -74t211.5 -27q193 0 332 54.5t243.5 142.5t184 202.5t153.5 236.5t151.5 241t180.5 217q43 41 86 73.5t80 55 t62.5 35t33.5 12.5t8 -8q0 -10 -17.5 -18.5t-43 -21.5t-55 -33.5t-56.5 -53.5q-53 -66 -130 -191t-177 -317q-80 -152 -186.5 -272.5t-238.5 -204.5t-286.5 -129t-328.5 -45q-117 0 -219.5 28.5t-178 83t-120 132.5t-44.5 178zM1153 987q0 66 43 141.5t141.5 140t261 106.5 t402.5 42h483q86 0 144.5 5t98.5 11.5t65.5 11.5t48.5 5q6 0 6 -10q0 -6 -19.5 -26.5t-58.5 -43t-100.5 -41t-143.5 -18.5q-61 0 -107 4t-89 10t-88.5 12t-105.5 12.5t-140 10.5t-191 4q-139 0 -252.5 -32t-194.5 -84t-126 -117.5t-45 -135.5q0 -80 55 -126t145 -46 q96 0 176 29t146 72t116 92t85 92t52 71.5t19 28.5q12 0 13 -10q0 -6 -17.5 -41t-50.5 -84t-80 -103.5t-106.5 -100.5t-132 -76.5t-154.5 -30.5q-141 0 -220 64.5t-79 160.5z" />
<glyph unicode="&#x403;" horiz-adv-x="1820" d="M317 410q0 96 46.5 181t123 148.5t175 100.5t204.5 37q68 0 138.5 -17.5t129 -55.5t96.5 -96.5t38 -138.5q0 -84 -39 -148.5t-102.5 -109.5t-141.5 -67.5t-156 -22.5q-49 0 -95 10.5t-82 23.5t-56.5 25.5t-20.5 18.5q0 12 7 12q8 0 26.5 -10t49 -22.5t74.5 -22.5t106 -10 q70 0 140.5 20.5t127.5 60.5t93 100t36 138q0 109 -85 175.5t-253 66.5q-96 0 -191.5 -33t-173 -91t-126 -137t-48.5 -173q0 -80 39 -146.5t108.5 -113.5t166 -74t211.5 -27q193 0 332 54.5t243.5 142.5t184 202.5t153.5 236.5t151.5 241t180.5 217q43 41 86 73.5t80 55 t62.5 35t33.5 12.5t8 -8q0 -10 -17.5 -18.5t-43 -21.5t-55 -33.5t-56.5 -53.5q-53 -66 -130 -191t-177 -317q-80 -152 -186.5 -272.5t-238.5 -204.5t-286.5 -129t-328.5 -45q-117 0 -219.5 28.5t-178 83t-120 132.5t-44.5 178zM1153 987q0 66 43 141.5t141.5 140t261 106.5 t402.5 42h483q86 0 144.5 5t98.5 11.5t65.5 11.5t48.5 5q6 0 6 -10q0 -6 -19.5 -26.5t-58.5 -43t-100.5 -41t-143.5 -18.5q-61 0 -107 4t-89 10t-88.5 12t-105.5 12.5t-140 10.5t-191 4q-139 0 -252.5 -32t-194.5 -84t-126 -117.5t-45 -135.5q0 -80 55 -126t145 -46 q96 0 176 29t146 72t116 92t85 92t52 71.5t19 28.5q12 0 13 -10q0 -6 -17.5 -41t-50.5 -84t-80 -103.5t-106.5 -100.5t-132 -76.5t-154.5 -30.5q-141 0 -220 64.5t-79 160.5z" />
<glyph horiz-adv-x="2275" d="M379 389q0 100 45 190.5t119.5 157t173 105.5t205.5 39q70 0 138 -19.5t122.5 -58.5t88.5 -97.5t34 -136.5q0 -76 -39 -140t-100.5 -110.5t-138.5 -72t-153 -25.5q-41 0 -79.5 7.5t-69.5 17.5t-50.5 20t-19.5 17q0 12 13 12q2 0 17 -8t41 -17.5t61.5 -16.5t80.5 -7 q70 0 142.5 23.5t130 66.5t94.5 104.5t37 134.5q0 43 -20.5 83t-62.5 73t-103.5 52.5t-143.5 19.5q-96 0 -187 -31t-163 -89t-116 -140t-44 -183q0 -90 40 -155.5t104.5 -108.5t148.5 -63.5t172 -20.5q113 0 219.5 28t206.5 95.5t195.5 181t187.5 283.5q51 94 98 170 t100.5 147.5t116 143.5t144.5 156l-4 4q-31 -14 -70 -33t-79 -35t-80 -27.5t-74 -11.5q-70 0 -109 41t-39 133q0 43 4 59.5t4 26.5q0 14 -26 15q-43 -4 -115 -49.5t-176 -163.5q-43 -51 -69.5 -87t-41 -59.5t-20.5 -34t-10 -10.5q-12 0 -13 10q0 4 20.5 39t55.5 83t82 104.5 t101.5 102.5t112.5 77t116 29q47 0 74.5 -27t31.5 -111q2 -45 6 -72.5t10.5 -42t16.5 -18.5t22 -4q41 0 87.5 14.5t89.5 36t80.5 45t66.5 39.5q80 49 124 80t66.5 48.5t33 24.5t20.5 7q20 0 30.5 -10t10.5 -25q0 -23 -28 -36t-67.5 -27.5t-84 -33t-76.5 -48.5 q-41 -41 -87 -113t-101.5 -168t-120 -214t-144.5 -249q-166 -276 -398.5 -407t-496.5 -131q-125 0 -222 30.5t-163.5 85t-101.5 128t-35 157.5zM1956 684q0 20 33 21q63 0 125.5 29.5t118 75.5t103.5 98.5t85 99.5q72 88 150.5 164.5t159.5 134t162 90.5t159 33 q90 0 142 -41t52 -107q0 -33 -21.5 -53.5t-56.5 -20.5q-29 0 -55.5 15.5t-26.5 48.5q0 29 14.5 45t14.5 39t-25.5 36t-66.5 13q-37 0 -80 -19.5t-89 -55.5t-95 -86t-95 -109q-121 -158 -258 -269.5t-331 -169.5v-4q98 -37 149 -110.5t51 -163.5q0 -23 -6 -57.5t-12 -75.5 t-12.5 -84t-6.5 -84t13.5 -66.5t44.5 -25.5q23 0 75 29.5t126 107.5q76 78 105.5 115.5t35.5 37.5q10 0 10 -12q0 -4 -25.5 -34.5t-87.5 -98.5q-152 -170 -256 -170q-29 0 -59.5 17.5t-55 48t-41 74.5t-16.5 98q0 41 6.5 87t12.5 88t12 75.5t6 50.5q0 35 -11 59.5 t-28.5 40.5t-35 24.5t-29.5 8.5q-10 0 -24.5 -6.5t-24.5 -6.5q-12 0 -23.5 9.5t-11.5 15.5z" />
<glyph unicode="&#x40c;" horiz-adv-x="2275" d="M379 389q0 100 45 190.5t119.5 157t173 105.5t205.5 39q70 0 138 -19.5t122.5 -58.5t88.5 -97.5t34 -136.5q0 -76 -39 -140t-100.5 -110.5t-138.5 -72t-153 -25.5q-41 0 -79.5 7.5t-69.5 17.5t-50.5 20t-19.5 17q0 12 13 12q2 0 17 -8t41 -17.5t61.5 -16.5t80.5 -7 q70 0 142.5 23.5t130 66.5t94.5 104.5t37 134.5q0 43 -20.5 83t-62.5 73t-103.5 52.5t-143.5 19.5q-96 0 -187 -31t-163 -89t-116 -140t-44 -183q0 -90 40 -155.5t104.5 -108.5t148.5 -63.5t172 -20.5q113 0 219.5 28t206.5 95.5t195.5 181t187.5 283.5q51 94 98 170 t100.5 147.5t116 143.5t144.5 156l-4 4q-31 -14 -70 -33t-79 -35t-80 -27.5t-74 -11.5q-70 0 -109 41t-39 133q0 43 4 59.5t4 26.5q0 14 -26 15q-43 -4 -115 -49.5t-176 -163.5q-43 -51 -69.5 -87t-41 -59.5t-20.5 -34t-10 -10.5q-12 0 -13 10q0 4 20.5 39t55.5 83t82 104.5 t101.5 102.5t112.5 77t116 29q47 0 74.5 -27t31.5 -111q2 -45 6 -72.5t10.5 -42t16.5 -18.5t22 -4q41 0 87.5 14.5t89.5 36t80.5 45t66.5 39.5q80 49 124 80t66.5 48.5t33 24.5t20.5 7q20 0 30.5 -10t10.5 -25q0 -23 -28 -36t-67.5 -27.5t-84 -33t-76.5 -48.5 q-41 -41 -87 -113t-101.5 -168t-120 -214t-144.5 -249q-166 -276 -398.5 -407t-496.5 -131q-125 0 -222 30.5t-163.5 85t-101.5 128t-35 157.5zM1956 684q0 20 33 21q63 0 125.5 29.5t118 75.5t103.5 98.5t85 99.5q72 88 150.5 164.5t159.5 134t162 90.5t159 33 q90 0 142 -41t52 -107q0 -33 -21.5 -53.5t-56.5 -20.5q-29 0 -55.5 15.5t-26.5 48.5q0 29 14.5 45t14.5 39t-25.5 36t-66.5 13q-37 0 -80 -19.5t-89 -55.5t-95 -86t-95 -109q-121 -158 -258 -269.5t-331 -169.5v-4q98 -37 149 -110.5t51 -163.5q0 -23 -6 -57.5t-12 -75.5 t-12.5 -84t-6.5 -84t13.5 -66.5t44.5 -25.5q23 0 75 29.5t126 107.5q76 78 105.5 115.5t35.5 37.5q10 0 10 -12q0 -4 -25.5 -34.5t-87.5 -98.5q-152 -170 -256 -170q-29 0 -59.5 17.5t-55 48t-41 74.5t-16.5 98q0 41 6.5 87t12.5 88t12 75.5t6 50.5q0 35 -11 59.5 t-28.5 40.5t-35 24.5t-29.5 8.5q-10 0 -24.5 -6.5t-24.5 -6.5q-12 0 -23.5 9.5t-11.5 15.5z" />
<glyph horiz-adv-x="2142" d="M317 410q0 96 46.5 181t123 148.5t175 100.5t204.5 37q68 0 138.5 -17.5t129 -55.5t96.5 -96.5t38 -138.5q0 -84 -39 -148.5t-102.5 -109.5t-141.5 -67.5t-156 -22.5q-49 0 -95 10.5t-82 23.5t-56.5 25.5t-20.5 18.5q0 12 7 12q8 0 26.5 -10t49 -22.5t74.5 -22.5t106 -10 q70 0 140.5 20.5t127.5 60.5t93 100t36 138q0 109 -85 175.5t-253 66.5q-96 0 -191.5 -33t-173 -91t-126 -137t-48.5 -173q0 -80 39 -146.5t108.5 -113.5t166 -74t211.5 -27q193 0 332 54.5t243.5 142.5t184 202.5t153.5 236.5t151.5 241t180.5 217q43 41 86 73.5t80 55 t62.5 35t33.5 12.5t8 -8q0 -10 -17.5 -18.5t-43 -21.5t-55 -33.5t-56.5 -53.5q-53 -66 -127 -193t-180 -315q-12 -23 -23.5 -41t-25.5 -39q51 51 109.5 102.5t116.5 91.5t112.5 65.5t95.5 25.5q29 0 49.5 -11.5t33.5 -29t19.5 -38t6.5 -38.5q0 -57 -13.5 -117.5 t-52.5 -128.5q-25 -45 -67 -102t-81.5 -114.5t-68.5 -110t-29 -86.5q0 -29 13.5 -42.5t31.5 -13.5q31 0 76 29t94 72t96.5 93t81.5 93q10 12 18.5 7t2.5 -15q-43 -55 -91 -109.5t-96.5 -97.5t-95.5 -69.5t-86 -26.5q-16 0 -34.5 6t-36 21.5t-28.5 44t-11 73.5 q0 51 25.5 108.5t59 111t67.5 99.5t53 74q43 70 76.5 128.5t33.5 119.5q0 16 -9 30.5t-48 14.5q-35 0 -89.5 -26.5t-122 -75.5t-142 -121t-148.5 -162l-2 4q-164 -215 -393.5 -332.5t-517.5 -117.5q-117 0 -219.5 28.5t-178 83t-120 132.5t-44.5 178zM1153 987 q0 66 43 141.5t141.5 140t261 106.5t402.5 42h483q86 0 144.5 5t98.5 11.5t65.5 11.5t48.5 5q6 0 6 -10q0 -6 -19.5 -26.5t-58.5 -43t-100.5 -41t-143.5 -18.5q-61 0 -107 4t-89 10t-88.5 12t-105.5 12.5t-140 10.5t-191 4q-139 0 -252.5 -32t-194.5 -84t-126 -117.5 t-45 -135.5q0 -80 55 -126t145 -46q96 0 176 29t146 72t116 92t85 92t52 71.5t19 28.5q12 0 13 -10q0 -6 -17.5 -41t-50.5 -84t-80 -103.5t-106.5 -100.5t-132 -76.5t-154.5 -30.5q-141 0 -220 64.5t-79 160.5z" />
<glyph unicode="&#x40b;" horiz-adv-x="2142" d="M317 410q0 96 46.5 181t123 148.5t175 100.5t204.5 37q68 0 138.5 -17.5t129 -55.5t96.5 -96.5t38 -138.5q0 -84 -39 -148.5t-102.5 -109.5t-141.5 -67.5t-156 -22.5q-49 0 -95 10.5t-82 23.5t-56.5 25.5t-20.5 18.5q0 12 7 12q8 0 26.5 -10t49 -22.5t74.5 -22.5t106 -10 q70 0 140.5 20.5t127.5 60.5t93 100t36 138q0 109 -85 175.5t-253 66.5q-96 0 -191.5 -33t-173 -91t-126 -137t-48.5 -173q0 -80 39 -146.5t108.5 -113.5t166 -74t211.5 -27q193 0 332 54.5t243.5 142.5t184 202.5t153.5 236.5t151.5 241t180.5 217q43 41 86 73.5t80 55 t62.5 35t33.5 12.5t8 -8q0 -10 -17.5 -18.5t-43 -21.5t-55 -33.5t-56.5 -53.5q-53 -66 -127 -193t-180 -315q-12 -23 -23.5 -41t-25.5 -39q51 51 109.5 102.5t116.5 91.5t112.5 65.5t95.5 25.5q29 0 49.5 -11.5t33.5 -29t19.5 -38t6.5 -38.5q0 -57 -13.5 -117.5 t-52.5 -128.5q-25 -45 -67 -102t-81.5 -114.5t-68.5 -110t-29 -86.5q0 -29 13.5 -42.5t31.5 -13.5q31 0 76 29t94 72t96.5 93t81.5 93q10 12 18.5 7t2.5 -15q-43 -55 -91 -109.5t-96.5 -97.5t-95.5 -69.5t-86 -26.5q-16 0 -34.5 6t-36 21.5t-28.5 44t-11 73.5 q0 51 25.5 108.5t59 111t67.5 99.5t53 74q43 70 76.5 128.5t33.5 119.5q0 16 -9 30.5t-48 14.5q-35 0 -89.5 -26.5t-122 -75.5t-142 -121t-148.5 -162l-2 4q-164 -215 -393.5 -332.5t-517.5 -117.5q-117 0 -219.5 28.5t-178 83t-120 132.5t-44.5 178zM1153 987 q0 66 43 141.5t141.5 140t261 106.5t402.5 42h483q86 0 144.5 5t98.5 11.5t65.5 11.5t48.5 5q6 0 6 -10q0 -6 -19.5 -26.5t-58.5 -43t-100.5 -41t-143.5 -18.5q-61 0 -107 4t-89 10t-88.5 12t-105.5 12.5t-140 10.5t-191 4q-139 0 -252.5 -32t-194.5 -84t-126 -117.5 t-45 -135.5q0 -80 55 -126t145 -46q96 0 176 29t146 72t116 92t85 92t52 71.5t19 28.5q12 0 13 -10q0 -6 -17.5 -41t-50.5 -84t-80 -103.5t-106.5 -100.5t-132 -76.5t-154.5 -30.5q-141 0 -220 64.5t-79 160.5z" />
<glyph horiz-adv-x="1705" d="M395 733q0 14 5.5 44t13.5 65t20 73.5t29 73.5q41 92 104.5 178t143.5 152.5t172 106.5t192 40q66 0 116 -13t87 -36q55 12 108 13q135 0 207 -66t72 -203q0 -88 -42 -187.5t-105.5 -201.5t-137 -204.5t-137 -194.5t-105.5 -170t-42 -133q0 -35 12 -46.5t45 -11.5 q39 0 113.5 41t166 119t191.5 187.5t191 248.5q125 190 210.5 323.5t142 221.5t89.5 136t52.5 72.5t30.5 30t25 7.5l103 6l-410 -639q-68 -106 -140.5 -211.5t-130.5 -200t-95 -169t-35 -119.5q0 -23 11 -38.5t34 -15.5q41 0 92 37t113 94q78 72 111.5 117t41.5 45 q14 0 15 -10q0 -2 -10.5 -15.5t-27 -33t-37 -42t-40.5 -42.5q-23 -25 -56.5 -55.5t-69.5 -56t-70.5 -44t-59.5 -18.5q-47 0 -67.5 31.5t-20.5 89.5q0 90 25.5 160.5t60.5 144.5l-4 4q-23 -31 -62 -76t-87 -92t-102 -94t-108.5 -85t-104.5 -60.5t-91 -22.5q-45 0 -77 34.5 t-32 94.5q0 86 42 183t105.5 198.5t137.5 204t137.5 198.5t105.5 181t42 153q0 45 -18.5 76.5t-47.5 52t-65.5 31t-73.5 10.5q-23 0 -46.5 -2t-47.5 -6q45 -37 63 -90.5t18 -112.5q0 -92 -41.5 -189.5t-113.5 -177t-166 -130t-199 -50.5q-98 0 -143 56.5t-45 142.5 q0 90 49 179t129 165t181.5 133t203.5 84q-63 35 -166 35q-115 0 -226.5 -56.5t-201.5 -153.5t-151.5 -226t-75.5 -275q-2 -27 -12 -26q-10 0 -11.5 8t-1.5 20zM688 -698q0 66 37 125t96.5 112t133 98.5t146.5 80t138.5 60t106.5 40.5l96 223l31 70q2 2 14 3t27.5 2t31.5 1 h27l-57 -144q-29 -72 -62 -131l-22 -43q-47 -100 -112 -205.5t-144.5 -192.5t-173 -142.5t-193.5 -55.5q-55 0 -88 32t-33 67zM702 856q0 -74 37 -125t109 -51q51 0 108.5 24.5t112.5 66.5t105.5 96.5t88 115.5t60.5 126t23 124q0 47 -18.5 88t-59.5 68 q-109 -23 -210.5 -79.5t-180 -130t-127 -158.5t-48.5 -165zM735 -686q0 -33 20.5 -55.5t43.5 -22.5q78 0 152.5 49t144 128t130 177.5t107.5 196.5q-41 -10 -101.5 -32.5t-127 -55.5t-132 -75t-118.5 -91t-86 -104.5t-33 -114.5z" />
<glyph unicode="&#x40f;" horiz-adv-x="1705" d="M395 733q0 14 5.5 44t13.5 65t20 73.5t29 73.5q41 92 104.5 178t143.5 152.5t172 106.5t192 40q66 0 116 -13t87 -36q55 12 108 13q135 0 207 -66t72 -203q0 -88 -42 -187.5t-105.5 -201.5t-137 -204.5t-137 -194.5t-105.5 -170t-42 -133q0 -35 12 -46.5t45 -11.5 q39 0 113.5 41t166 119t191.5 187.5t191 248.5q125 190 210.5 323.5t142 221.5t89.5 136t52.5 72.5t30.5 30t25 7.5l103 6l-410 -639q-68 -106 -140.5 -211.5t-130.5 -200t-95 -169t-35 -119.5q0 -23 11 -38.5t34 -15.5q41 0 92 37t113 94q78 72 111.5 117t41.5 45 q14 0 15 -10q0 -2 -10.5 -15.5t-27 -33t-37 -42t-40.5 -42.5q-23 -25 -56.5 -55.5t-69.5 -56t-70.5 -44t-59.5 -18.5q-47 0 -67.5 31.5t-20.5 89.5q0 90 25.5 160.5t60.5 144.5l-4 4q-23 -31 -62 -76t-87 -92t-102 -94t-108.5 -85t-104.5 -60.5t-91 -22.5q-45 0 -77 34.5 t-32 94.5q0 86 42 183t105.5 198.5t137.5 204t137.5 198.5t105.5 181t42 153q0 45 -18.5 76.5t-47.5 52t-65.5 31t-73.5 10.5q-23 0 -46.5 -2t-47.5 -6q45 -37 63 -90.5t18 -112.5q0 -92 -41.5 -189.5t-113.5 -177t-166 -130t-199 -50.5q-98 0 -143 56.5t-45 142.5 q0 90 49 179t129 165t181.5 133t203.5 84q-63 35 -166 35q-115 0 -226.5 -56.5t-201.5 -153.5t-151.5 -226t-75.5 -275q-2 -27 -12 -26q-10 0 -11.5 8t-1.5 20zM688 -698q0 66 37 125t96.5 112t133 98.5t146.5 80t138.5 60t106.5 40.5l96 223l31 70q2 2 14 3t27.5 2t31.5 1 h27l-57 -144q-29 -72 -62 -131l-22 -43q-47 -100 -112 -205.5t-144.5 -192.5t-173 -142.5t-193.5 -55.5q-55 0 -88 32t-33 67zM702 856q0 -74 37 -125t109 -51q51 0 108.5 24.5t112.5 66.5t105.5 96.5t88 115.5t60.5 126t23 124q0 47 -18.5 88t-59.5 68 q-109 -23 -210.5 -79.5t-180 -130t-127 -158.5t-48.5 -165zM735 -686q0 -33 20.5 -55.5t43.5 -22.5q78 0 152.5 49t144 128t130 177.5t107.5 196.5q-41 -10 -101.5 -32.5t-127 -55.5t-132 -75t-118.5 -91t-86 -104.5t-33 -114.5z" />
<glyph d="M260 0q168 295 342 557l-2 4q-23 -25 -40 -45t-34.5 -41.5t-38 -45t-47.5 -54.5q-33 -37 -51 -58l-28 -30q-9 -10 -12 -13.5t-5 -3.5q-8 0 -8 13q0 6 32.5 42.5t85 96t117 138.5t125.5 169h-78q-10 6 -7 15.5t14 9.5h82q12 20 27.5 43.5t25.5 40.5l221 381l125 14 q-14 -27 -43 -75t-67 -112.5t-83 -139.5t-92 -152h240q10 0 10 -12.5t-10 -12.5h-254q-41 -68 -83 -140.5t-83 -140t-76 -127t-59 -102.5l4 -4q147 170 255.5 262t162.5 92q45 0 63.5 -32.5t18.5 -73.5q0 -53 -34 -141.5t-85 -183.5t-111.5 -182t-111.5 -134 q-45 -41 -83 -64.5t-73 -35t-67.5 -14.5t-69.5 -3q-45 0 -80 20.5t-35 67.5q0 12 12.5 29.5t42.5 17.5q47 0 47 -55q0 -41 9 -49q6 -8 19 -10t28 -2q23 0 48.5 8t54 27.5t59 54t63.5 90.5q18 33 49 85t65 113.5t67.5 127t61 123t45 101.5t17.5 64q0 10 -7 18.5t-15 8.5 q-27 0 -74 -32t-101.5 -81t-112.5 -110.5t-109.5 -121t-89.5 -109.5t-52 -79z" />
<glyph unicode="&#x452;" d="M260 0q168 295 342 557l-2 4q-23 -25 -40 -45t-34.5 -41.5t-38 -45t-47.5 -54.5q-33 -37 -51 -58l-28 -30q-9 -10 -12 -13.5t-5 -3.5q-8 0 -8 13q0 6 32.5 42.5t85 96t117 138.5t125.5 169h-78q-10 6 -7 15.5t14 9.5h82q12 20 27.5 43.5t25.5 40.5l221 381l125 14 q-14 -27 -43 -75t-67 -112.5t-83 -139.5t-92 -152h240q10 0 10 -12.5t-10 -12.5h-254q-41 -68 -83 -140.5t-83 -140t-76 -127t-59 -102.5l4 -4q147 170 255.5 262t162.5 92q45 0 63.5 -32.5t18.5 -73.5q0 -53 -34 -141.5t-85 -183.5t-111.5 -182t-111.5 -134 q-45 -41 -83 -64.5t-73 -35t-67.5 -14.5t-69.5 -3q-45 0 -80 20.5t-35 67.5q0 12 12.5 29.5t42.5 17.5q47 0 47 -55q0 -41 9 -49q6 -8 19 -10t28 -2q23 0 48.5 8t54 27.5t59 54t63.5 90.5q18 33 49 85t65 113.5t67.5 127t61 123t45 101.5t17.5 64q0 10 -7 18.5t-15 8.5 q-27 0 -74 -32t-101.5 -81t-112.5 -110.5t-109.5 -121t-89.5 -109.5t-52 -79z" />
<glyph d="M254 0l321 496l-4 4q-31 -25 -75.5 -69t-118.5 -128q-16 -18 -27.5 -31.5t-15.5 -13.5q-8 0 -8 12q0 8 16 24.5t59 65.5q59 66 111.5 114t81.5 87l129 8l-330 -561zM600 311q0 10 13.5 21.5t58.5 11.5q8 0 15 -2t24 -2q12 0 33.5 10t47 28.5t51 43t48.5 53.5 q45 57 73.5 75.5t63.5 18.5t56.5 -17t21.5 -46q0 -27 -17.5 -41t-39.5 -14q-33 0 -42.5 19t-11.5 54q-35 -6 -52 -25.5t-42 -60.5q-27 -41 -75 -70.5t-97 -39.5v-4q20 -4 39.5 -17.5t35 -32t25 -39t9.5 -36.5t-7.5 -39t-15.5 -44.5t-15 -38t-7 -22.5q0 -12 9 -21t21 -9 q25 0 53.5 17t58.5 39.5t54.5 47.5t38.5 41q43 45 65.5 70.5t34 40t14.5 18.5t7 4q12 0 12 -10q0 -2 -9 -14.5t-24.5 -30t-34 -39t-36.5 -39.5q-27 -29 -58.5 -59.5t-64.5 -55t-63.5 -40t-55.5 -15.5q-29 0 -49.5 15.5t-33.5 39t-19 50t-6 49.5t6 41t14 33.5t14.5 28.5 t6.5 26q0 12 -12.5 22t-24.5 10q-16 0 -34 -14t-46 -14q-31 -1 -31 24z" />
<glyph unicode="&#x45c;" d="M254 0l321 496l-4 4q-31 -25 -75.5 -69t-118.5 -128q-16 -18 -27.5 -31.5t-15.5 -13.5q-8 0 -8 12q0 8 16 24.5t59 65.5q59 66 111.5 114t81.5 87l129 8l-330 -561zM600 311q0 10 13.5 21.5t58.5 11.5q8 0 15 -2t24 -2q12 0 33.5 10t47 28.5t51 43t48.5 53.5 q45 57 73.5 75.5t63.5 18.5t56.5 -17t21.5 -46q0 -27 -17.5 -41t-39.5 -14q-33 0 -42.5 19t-11.5 54q-35 -6 -52 -25.5t-42 -60.5q-27 -41 -75 -70.5t-97 -39.5v-4q20 -4 39.5 -17.5t35 -32t25 -39t9.5 -36.5t-7.5 -39t-15.5 -44.5t-15 -38t-7 -22.5q0 -12 9 -21t21 -9 q25 0 53.5 17t58.5 39.5t54.5 47.5t38.5 41q43 45 65.5 70.5t34 40t14.5 18.5t7 4q12 0 12 -10q0 -2 -9 -14.5t-24.5 -30t-34 -39t-36.5 -39.5q-27 -29 -58.5 -59.5t-64.5 -55t-63.5 -40t-55.5 -15.5q-29 0 -49.5 15.5t-33.5 39t-19 50t-6 49.5t6 41t14 33.5t14.5 28.5 t6.5 26q0 12 -12.5 22t-24.5 10q-16 0 -34 -14t-46 -14q-31 -1 -31 24z" />
<glyph d="M260 0q168 295 342 557l-2 4q-23 -25 -40 -45t-34.5 -41.5t-38 -45t-47.5 -54.5q-33 -37 -51 -58l-28 -30q-9 -10 -12 -13.5t-5 -3.5q-8 0 -8 13q0 6 32.5 42.5t85 96t117 138.5t125.5 169h-78q-10 6 -7 15.5t14 9.5h82q12 20 27.5 43.5t25.5 40.5l221 381l125 14 q-14 -27 -43 -75t-67 -112.5t-83 -139.5t-92 -152h240q10 0 10 -12.5t-10 -12.5h-254q-41 -68 -83 -140.5t-83 -140t-76 -127t-59 -102.5l4 -4q147 170 255.5 262t162.5 92q45 0 63.5 -32.5t18.5 -73.5q0 -43 -35 -99.5t-78 -113.5t-78 -110.5t-35 -86.5q0 -10 7.5 -19 t23.5 -9q47 0 100.5 43t139.5 133q18 18 34.5 37.5t31 36t24.5 27.5t14 11q10 0 10 -10q0 -4 -30.5 -41t-71.5 -80q-55 -59 -96 -95t-72 -55.5t-53.5 -25.5t-40.5 -6q-31 0 -56.5 22.5t-25.5 90.5t35 128t78 111t77.5 93t34.5 73q0 10 -7 18.5t-15 8.5q-27 0 -74 -32 t-101.5 -81t-112.5 -110.5t-109.5 -121t-89.5 -109.5t-52 -79z" />
<glyph unicode="&#x45b;" d="M260 0q168 295 342 557l-2 4q-23 -25 -40 -45t-34.5 -41.5t-38 -45t-47.5 -54.5q-33 -37 -51 -58l-28 -30q-9 -10 -12 -13.5t-5 -3.5q-8 0 -8 13q0 6 32.5 42.5t85 96t117 138.5t125.5 169h-78q-10 6 -7 15.5t14 9.5h82q12 20 27.5 43.5t25.5 40.5l221 381l125 14 q-14 -27 -43 -75t-67 -112.5t-83 -139.5t-92 -152h240q10 0 10 -12.5t-10 -12.5h-254q-41 -68 -83 -140.5t-83 -140t-76 -127t-59 -102.5l4 -4q147 170 255.5 262t162.5 92q45 0 63.5 -32.5t18.5 -73.5q0 -43 -35 -99.5t-78 -113.5t-78 -110.5t-35 -86.5q0 -10 7.5 -19 t23.5 -9q47 0 100.5 43t139.5 133q18 18 34.5 37.5t31 36t24.5 27.5t14 11q10 0 10 -10q0 -4 -30.5 -41t-71.5 -80q-55 -59 -96 -95t-72 -55.5t-53.5 -25.5t-40.5 -6q-31 0 -56.5 22.5t-25.5 90.5t35 128t78 111t77.5 93t34.5 73q0 10 -7 18.5t-15 8.5q-27 0 -74 -32 t-101.5 -81t-112.5 -110.5t-109.5 -121t-89.5 -109.5t-52 -79z" />
<glyph unicode="&#xa1;" horiz-adv-x="1820" d="M338 127q0 100 52 185t133 146.5t177.5 96.5t186.5 35t164.5 -24.5t127 -67.5t81 -98.5t28.5 -116.5q0 -84 -39 -149.5t-100.5 -109.5t-138 -67t-152.5 -23q-27 0 -55.5 4.5t-53 10.5t-40 12t-15.5 12q0 10 11 11q6 0 15 -4.5t28.5 -8.5t51 -8t81.5 -4q63 0 130.5 22.5 t121 62.5t88 97.5t34.5 128.5q0 70 -27.5 118t-73.5 77t-104.5 42t-117.5 13q-96 0 -193.5 -32.5t-174.5 -92t-125 -145.5t-48 -191q0 -92 50.5 -155.5t125 -103.5t158.5 -57t152 -17q164 0 292.5 39.5t232 110.5t186.5 166t155 206.5t135.5 233.5t130.5 247l-4 4 q-33 -47 -98.5 -113.5t-142 -129t-153.5 -106.5t-134 -44q-66 0 -90.5 38t-24.5 99q0 74 26.5 145.5t65.5 138t86 129t86 123t65.5 116t26.5 108.5q0 45 -20.5 78t-52 52t-72.5 28.5t-80 9.5q-88 0 -202.5 -39t-217 -106.5t-173.5 -159.5t-71 -197q0 -66 49.5 -105.5 t112.5 -39.5q86 0 184.5 56t188.5 163q51 59 77.5 118.5t40 105.5t18.5 75t16 29q14 0 14 -17q0 -12 -7 -59t-27.5 -109.5t-55.5 -132t-92.5 -128t-137.5 -96.5t-190 -38q-100 0 -157.5 51t-57.5 123q0 68 31.5 133.5t85 125t122 109.5t144.5 86t152.5 56.5t144.5 20.5 q131 0 209 -65t78 -230q0 -66 -27 -131.5t-66 -131t-86 -128t-86 -121t-65.5 -109.5t-26.5 -94q0 -31 18.5 -43t47.5 -12q33 0 95 30.5t137 83.5t152 126t136 159q154 219 279.5 351t218 201.5t148.5 91.5t73 22q14 0 14 -13q0 -10 -20.5 -17t-55.5 -21.5t-82 -42t-101 -77 t-111.5 -126t-114.5 -189.5q-27 -53 -66 -130t-84 -163t-95 -176t-100.5 -172t-97.5 -149.5t-88 -108.5q-166 -166 -384 -255t-453 -89q-96 0 -192.5 25.5t-174.5 79t-127 133t-49 188.5zM1880 1692q0 35 19.5 60.5t56.5 25.5q35 0 59.5 -21.5t24.5 -56.5q0 -29 -10.5 -42 t-10.5 -30q0 -33 23.5 -55.5t107.5 -24.5q23 0 53.5 4t61.5 17.5t59.5 37t49.5 62.5q16 29 22 71t10 79q4 43 32 54t59 11q23 0 35 -15.5t12 -29.5q0 -31 -16.5 -64.5t-43 -67.5t-57.5 -62.5t-60 -47.5q-41 -27 -103 -50t-142 -23q-47 0 -91 11t-77 32.5t-53.5 53.5 t-20.5 71z" />
<glyph unicode="&#x40e;" horiz-adv-x="1820" d="M338 127q0 100 52 185t133 146.5t177.5 96.5t186.5 35t164.5 -24.5t127 -67.5t81 -98.5t28.5 -116.5q0 -84 -39 -149.5t-100.5 -109.5t-138 -67t-152.5 -23q-27 0 -55.5 4.5t-53 10.5t-40 12t-15.5 12q0 10 11 11q6 0 15 -4.5t28.5 -8.5t51 -8t81.5 -4q63 0 130.5 22.5 t121 62.5t88 97.5t34.5 128.5q0 70 -27.5 118t-73.5 77t-104.5 42t-117.5 13q-96 0 -193.5 -32.5t-174.5 -92t-125 -145.5t-48 -191q0 -92 50.5 -155.5t125 -103.5t158.5 -57t152 -17q164 0 292.5 39.5t232 110.5t186.5 166t155 206.5t135.5 233.5t130.5 247l-4 4 q-33 -47 -98.5 -113.5t-142 -129t-153.5 -106.5t-134 -44q-66 0 -90.5 38t-24.5 99q0 74 26.5 145.5t65.5 138t86 129t86 123t65.5 116t26.5 108.5q0 45 -20.5 78t-52 52t-72.5 28.5t-80 9.5q-88 0 -202.5 -39t-217 -106.5t-173.5 -159.5t-71 -197q0 -66 49.5 -105.5 t112.5 -39.5q86 0 184.5 56t188.5 163q51 59 77.5 118.5t40 105.5t18.5 75t16 29q14 0 14 -17q0 -12 -7 -59t-27.5 -109.5t-55.5 -132t-92.5 -128t-137.5 -96.5t-190 -38q-100 0 -157.5 51t-57.5 123q0 68 31.5 133.5t85 125t122 109.5t144.5 86t152.5 56.5t144.5 20.5 q131 0 209 -65t78 -230q0 -66 -27 -131.5t-66 -131t-86 -128t-86 -121t-65.5 -109.5t-26.5 -94q0 -31 18.5 -43t47.5 -12q33 0 95 30.5t137 83.5t152 126t136 159q154 219 279.5 351t218 201.5t148.5 91.5t73 22q14 0 14 -13q0 -10 -20.5 -17t-55.5 -21.5t-82 -42t-101 -77 t-111.5 -126t-114.5 -189.5q-27 -53 -66 -130t-84 -163t-95 -176t-100.5 -172t-97.5 -149.5t-88 -108.5q-166 -166 -384 -255t-453 -89q-96 0 -192.5 25.5t-174.5 79t-127 133t-49 188.5zM1880 1692q0 35 19.5 60.5t56.5 25.5q35 0 59.5 -21.5t24.5 -56.5q0 -29 -10.5 -42 t-10.5 -30q0 -33 23.5 -55.5t107.5 -24.5q23 0 53.5 4t61.5 17.5t59.5 37t49.5 62.5q16 29 22 71t10 79q4 43 32 54t59 11q23 0 35 -15.5t12 -29.5q0 -31 -16.5 -64.5t-43 -67.5t-57.5 -62.5t-60 -47.5q-41 -27 -103 -50t-142 -23q-47 0 -91 11t-77 32.5t-53.5 53.5 t-20.5 71z" />
<glyph unicode="&#xa2;" horiz-adv-x="909" d="M223 -528q0 55 42 112.5t117 118.5t179.5 129t229.5 141l178 340l-4 4q-14 -18 -40 -48.5t-58.5 -65.5t-70.5 -70t-76 -63.5t-72 -47t-58 -18.5q-39 0 -63.5 38t-24.5 79q0 55 30.5 111.5t67.5 108.5t67.5 97t30.5 80q0 27 -32 27q-39 0 -85 -35t-106 -96 q-43 -47 -67.5 -74t-37 -42t-16.5 -19.5t-8 -4.5q-8 0 -8 11q0 2 2 6t12 16t30.5 35t55.5 64q88 98 142.5 130.5t89.5 32.5q47 0 68.5 -35.5t21.5 -76.5q0 -55 -31 -113.5t-67.5 -112t-67.5 -98.5t-31 -74q0 -31 29 -30q31 0 78 29.5t98 77.5t105.5 107.5t101.5 118 t83 110.5t52 85l131 12l-364 -592l4 -4q53 25 101 60t91 72.5t79 76.5t65 72q29 35 34.5 42t14.5 7q8 0 8 -10q0 -2 -9.5 -13.5t-22.5 -27.5t-28.5 -33.5t-27.5 -32.5q-43 -47 -84 -83.5t-81 -66.5t-81 -54.5t-86 -47.5q-160 -281 -299 -427t-231 -146q-43 0 -72 28t-29 83z M268 -537q0 -41 17.5 -59t44.5 -18q39 0 85 28.5t101 94t119.5 171t138.5 257.5v-7l-4 4q-139 -90 -235.5 -159.5t-156 -126t-85 -101.5t-25.5 -84zM758 795q0 29 12 46t45 17q35 0 43 -24.5t2 -55.5q-4 -23 4 -42t25 -29q10 -6 30.5 -9.5t34.5 -3.5q59 0 99.5 31t36.5 84 q-4 47 9 69.5t50 22.5q41 0 41 -33q0 -39 -21.5 -74.5t-57.5 -62t-81 -43t-92 -16.5q-45 0 -79 12t-56.5 30.5t-33.5 40.5t-11 40z" />
<glyph unicode="&#x45e;" horiz-adv-x="909" d="M223 -528q0 55 42 112.5t117 118.5t179.5 129t229.5 141l178 340l-4 4q-14 -18 -40 -48.5t-58.5 -65.5t-70.5 -70t-76 -63.5t-72 -47t-58 -18.5q-39 0 -63.5 38t-24.5 79q0 55 30.5 111.5t67.5 108.5t67.5 97t30.5 80q0 27 -32 27q-39 0 -85 -35t-106 -96 q-43 -47 -67.5 -74t-37 -42t-16.5 -19.5t-8 -4.5q-8 0 -8 11q0 2 2 6t12 16t30.5 35t55.5 64q88 98 142.5 130.5t89.5 32.5q47 0 68.5 -35.5t21.5 -76.5q0 -55 -31 -113.5t-67.5 -112t-67.5 -98.5t-31 -74q0 -31 29 -30q31 0 78 29.5t98 77.5t105.5 107.5t101.5 118 t83 110.5t52 85l131 12l-364 -592l4 -4q53 25 101 60t91 72.5t79 76.5t65 72q29 35 34.5 42t14.5 7q8 0 8 -10q0 -2 -9.5 -13.5t-22.5 -27.5t-28.5 -33.5t-27.5 -32.5q-43 -47 -84 -83.5t-81 -66.5t-81 -54.5t-86 -47.5q-160 -281 -299 -427t-231 -146q-43 0 -72 28t-29 83z M268 -537q0 -41 17.5 -59t44.5 -18q39 0 85 28.5t101 94t119.5 171t138.5 257.5v-7l-4 4q-139 -90 -235.5 -159.5t-156 -126t-85 -101.5t-25.5 -84zM758 795q0 29 12 46t45 17q35 0 43 -24.5t2 -55.5q-4 -23 4 -42t25 -29q10 -6 30.5 -9.5t34.5 -3.5q59 0 99.5 31t36.5 84 q-4 47 9 69.5t50 22.5q41 0 41 -33q0 -39 -21.5 -74.5t-57.5 -62t-81 -43t-92 -16.5q-45 0 -79 12t-56.5 30.5t-33.5 40.5t-11 40z" />
<glyph unicode="&#xa3;" horiz-adv-x="1705" d="M162 -231q0 96 40 181t105.5 149.5t152.5 101.5t181 37q68 0 129 -19.5t109.5 -56.5t77 -92.5t28.5 -128.5q0 -37 -9 -72t-20 -70q129 53 261.5 98.5t271.5 69.5q43 74 87 156t87 163t83 152.5t71 122.5q-47 0 -91.5 15.5t-79 46t-55 74.5t-20.5 100q0 109 57.5 197.5 t150.5 158.5t210.5 122t235.5 87t226.5 51.5t184.5 16.5q20 0 20 -11q0 -8 -35.5 -16t-94 -39t-134.5 -97.5t-158 -193.5q-49 -78 -87 -143.5t-68.5 -122.5t-56 -108.5t-52.5 -102.5q33 4 76 22.5t76 40.5q70 45 92 78t33 33q10 0 10 -8q0 -4 -20.5 -30.5t-60.5 -59.5 t-96.5 -65t-129.5 -44q-82 -143 -157 -286.5t-165 -280.5q92 29 164 74t125 90q76 66 105.5 105.5t35.5 39.5q12 0 13 -12q0 -4 -14.5 -21.5t-36 -41t-48 -49t-51.5 -46.5q-61 -53 -144 -102t-182 -76q-78 -111 -179 -219.5t-221 -194.5t-253 -140t-272 -54 q-119 0 -213.5 30.5t-160 86t-100 133.5t-34.5 170zM203 -270q0 -84 35.5 -149.5t95 -112t134.5 -71t153 -24.5q131 0 254.5 47.5t234.5 125t203 179t157 209.5q-55 -8 -145 -32.5t-178 -55t-155.5 -59.5t-80.5 -45q-47 -61 -100 -106.5t-98 -45.5q-27 0 -35 11.5t-8 31.5 t35.5 45t79.5 46.5t82 37t40 17.5q18 20 31.5 53t13.5 84q0 70 -24.5 116t-63.5 74.5t-90 41t-102 12.5q-90 0 -174 -33t-149.5 -90t-105.5 -136t-40 -171zM1649 776q0 -78 49 -131t135 -51q82 150 155.5 261.5t150.5 202.5t163 169t195 157l-5 5q-147 -18 -296.5 -70.5 t-271.5 -132.5t-198.5 -184.5t-76.5 -225.5z" />
<glyph unicode="&#x408;" horiz-adv-x="1705" d="M162 -231q0 96 40 181t105.5 149.5t152.5 101.5t181 37q68 0 129 -19.5t109.5 -56.5t77 -92.5t28.5 -128.5q0 -37 -9 -72t-20 -70q129 53 261.5 98.5t271.5 69.5q43 74 87 156t87 163t83 152.5t71 122.5q-47 0 -91.5 15.5t-79 46t-55 74.5t-20.5 100q0 109 57.5 197.5 t150.5 158.5t210.5 122t235.5 87t226.5 51.5t184.5 16.5q20 0 20 -11q0 -8 -35.5 -16t-94 -39t-134.5 -97.5t-158 -193.5q-49 -78 -87 -143.5t-68.5 -122.5t-56 -108.5t-52.5 -102.5q33 4 76 22.5t76 40.5q70 45 92 78t33 33q10 0 10 -8q0 -4 -20.5 -30.5t-60.5 -59.5 t-96.5 -65t-129.5 -44q-82 -143 -157 -286.5t-165 -280.5q92 29 164 74t125 90q76 66 105.5 105.5t35.5 39.5q12 0 13 -12q0 -4 -14.5 -21.5t-36 -41t-48 -49t-51.5 -46.5q-61 -53 -144 -102t-182 -76q-78 -111 -179 -219.5t-221 -194.5t-253 -140t-272 -54 q-119 0 -213.5 30.5t-160 86t-100 133.5t-34.5 170zM203 -270q0 -84 35.5 -149.5t95 -112t134.5 -71t153 -24.5q131 0 254.5 47.5t234.5 125t203 179t157 209.5q-55 -8 -145 -32.5t-178 -55t-155.5 -59.5t-80.5 -45q-47 -61 -100 -106.5t-98 -45.5q-27 0 -35 11.5t-8 31.5 t35.5 45t79.5 46.5t82 37t40 17.5q18 20 31.5 53t13.5 84q0 70 -24.5 116t-63.5 74.5t-90 41t-102 12.5q-90 0 -174 -33t-149.5 -90t-105.5 -136t-40 -171zM1649 776q0 -78 49 -131t135 -51q82 150 155.5 261.5t150.5 202.5t163 169t195 157l-5 5q-147 -18 -296.5 -70.5 t-271.5 -132.5t-198.5 -184.5t-76.5 -225.5z" />
<glyph unicode="&#xa5;" horiz-adv-x="1820" d="M317 410q0 96 46.5 181t123 148.5t175 100.5t204.5 37q68 0 138.5 -17.5t129 -55.5t96.5 -96.5t38 -138.5q0 -84 -39 -148.5t-102.5 -109.5t-141.5 -67.5t-156 -22.5q-49 0 -95 10.5t-82 23.5t-56.5 25.5t-20.5 18.5q0 12 7 12q8 0 26.5 -10t49 -22.5t74.5 -22.5t106 -10 q70 0 140.5 20.5t127.5 60.5t93 100t36 138q0 109 -85 175.5t-253 66.5q-96 0 -191.5 -33t-173 -91t-126 -137t-48.5 -173q0 -80 39 -146.5t108.5 -113.5t166 -74t211.5 -27q193 0 332 54.5t243.5 142.5t184 202.5t153.5 236.5t151.5 241t180.5 217q43 41 86 73.5t80 55 t62.5 35t33.5 12.5t8 -8q0 -10 -17.5 -18.5t-43 -21.5t-55 -33.5t-56.5 -53.5q-53 -66 -130 -191t-177 -317q-80 -152 -186.5 -272.5t-238.5 -204.5t-286.5 -129t-328.5 -45q-117 0 -219.5 28.5t-178 83t-120 132.5t-44.5 178zM1153 987q0 66 43 141.5t141.5 140t261 106.5 t402.5 42h483q88 0 149.5 6.5t98.5 10.5q33 4 66.5 16t60.5 30.5t43 44t16 56.5q0 39 -32.5 61.5t-79.5 22.5q-14 0 -14.5 13.5t16.5 9.5q72 -12 103.5 -36t33.5 -71t-9 -82t-34 -61.5t-54.5 -47t-70.5 -38.5q-47 -23 -113.5 -32t-138.5 -9q-61 0 -107 4t-89 10t-88.5 12 t-105.5 12.5t-140 10.5t-191 4q-139 0 -252.5 -32t-194.5 -84t-126 -117.5t-45 -135.5q0 -80 55 -126t145 -46q96 0 176 29t146 72t116 92t85 92t52 71.5t19 28.5q12 0 13 -10q0 -6 -17.5 -41t-50.5 -84t-80 -103.5t-106.5 -100.5t-132 -76.5t-154.5 -30.5q-141 0 -220 64.5 t-79 160.5z" />
<glyph unicode="&#x490;" horiz-adv-x="1820" d="M317 410q0 96 46.5 181t123 148.5t175 100.5t204.5 37q68 0 138.5 -17.5t129 -55.5t96.5 -96.5t38 -138.5q0 -84 -39 -148.5t-102.5 -109.5t-141.5 -67.5t-156 -22.5q-49 0 -95 10.5t-82 23.5t-56.5 25.5t-20.5 18.5q0 12 7 12q8 0 26.5 -10t49 -22.5t74.5 -22.5t106 -10 q70 0 140.5 20.5t127.5 60.5t93 100t36 138q0 109 -85 175.5t-253 66.5q-96 0 -191.5 -33t-173 -91t-126 -137t-48.5 -173q0 -80 39 -146.5t108.5 -113.5t166 -74t211.5 -27q193 0 332 54.5t243.5 142.5t184 202.5t153.5 236.5t151.5 241t180.5 217q43 41 86 73.5t80 55 t62.5 35t33.5 12.5t8 -8q0 -10 -17.5 -18.5t-43 -21.5t-55 -33.5t-56.5 -53.5q-53 -66 -130 -191t-177 -317q-80 -152 -186.5 -272.5t-238.5 -204.5t-286.5 -129t-328.5 -45q-117 0 -219.5 28.5t-178 83t-120 132.5t-44.5 178zM1153 987q0 66 43 141.5t141.5 140t261 106.5 t402.5 42h483q88 0 149.5 6.5t98.5 10.5q33 4 66.5 16t60.5 30.5t43 44t16 56.5q0 39 -32.5 61.5t-79.5 22.5q-14 0 -14.5 13.5t16.5 9.5q72 -12 103.5 -36t33.5 -71t-9 -82t-34 -61.5t-54.5 -47t-70.5 -38.5q-47 -23 -113.5 -32t-138.5 -9q-61 0 -107 4t-89 10t-88.5 12 t-105.5 12.5t-140 10.5t-191 4q-139 0 -252.5 -32t-194.5 -84t-126 -117.5t-45 -135.5q0 -80 55 -126t145 -46q96 0 176 29t146 72t116 92t85 92t52 71.5t19 28.5q12 0 13 -10q0 -6 -17.5 -41t-50.5 -84t-80 -103.5t-106.5 -100.5t-132 -76.5t-154.5 -30.5q-141 0 -220 64.5 t-79 160.5z" />
<glyph unicode="&#xa7;" horiz-adv-x="1024" d="M352 -66q0 72 47 124.5t121 52.5q70 0 114 -34t44 -93q0 -31 -19.5 -51.5t-50.5 -20.5q-61 0 -61 63q0 27 9 35t9 29q0 6 -13 18.5t-44 12.5q-53 0 -88 -34t-35 -95q0 -109 66.5 -168.5t175.5 -59.5q57 0 107 19.5t87 56.5t57.5 88t20.5 115q0 72 -42 139.5t-91 137 t-91 144t-42 160.5q0 68 28.5 122.5t76.5 91t108.5 57t124.5 20.5q-10 33 -17.5 70t-7.5 74q0 70 22.5 130t63.5 106t98.5 72.5t129.5 26.5q49 0 95 -16t80.5 -47t56 -73t21.5 -93q0 -66 -36.5 -115t-106.5 -49q-57 0 -94 28t-37 69q0 29 16.5 48t49.5 19q35 0 50 -16.5 t15 -44.5q0 -14 -5 -23.5t-5 -17.5q-2 -12 7 -16.5t19 -4.5q49 0 72 40t23 83q0 92 -64.5 144.5t-159.5 52.5q-53 0 -97 -18.5t-76.5 -51.5t-50 -77t-17.5 -95q0 -92 40 -163.5t89 -139.5t89 -140.5t40 -170.5q0 -72 -28.5 -124t-77 -86t-109 -51.5t-123.5 -17.5 q12 -45 22.5 -89t10.5 -91q0 -61 -23.5 -118.5t-66.5 -100.5t-105.5 -69.5t-138.5 -26.5q-63 0 -115.5 20t-89.5 56t-57.5 82t-20.5 95zM723 606q0 -49 18.5 -92t48 -88t64.5 -97.5t68 -119.5q53 0 100 12t83 38t57.5 64.5t21.5 92.5q0 57 -22.5 112.5t-54.5 107.5 t-66.5 101t-57.5 94q-49 -4 -95 -18t-83 -42t-59.5 -69t-22.5 -96z" />
<glyph unicode="&#xa8;" horiz-adv-x="1138" d="M489 1176q0 78 37 137t94.5 100t129 61.5t141.5 20.5q102 0 196.5 -38t172.5 -101q78 37 161.5 65.5t173.5 28.5q55 0 87 -23.5t32 -80.5q0 -47 -37 -97.5t-94 -97.5t-129 -88t-141.5 -73t-131 -51t-98.5 -21q10 -35 32 -61t61 -26q10 0 29.5 4.5t45.5 4.5 q29 0 55.5 -9.5t26.5 -21.5q0 -27 -47 -27q-53 0 -77.5 12.5t-43.5 12.5q-61 0 -146 -38t-162 -108.5t-130 -172t-53 -226.5q0 -115 46 -174t142 -74q-4 18 -6 39t-2 41q0 117 33 215.5t88 170t128 111.5t150 40q76 0 117 -53.5t41 -122.5q0 -90 -49 -173t-126 -147.5 t-169 -104.5t-176 -42q6 -66 23.5 -123.5t17.5 -67.5q0 -6 -10 -6q-8 0 -11.5 18.5t-19.5 69.5q-10 29 -15.5 58.5t-9.5 50.5q-70 0 -130 19.5t-105 56t-70.5 93t-25.5 130.5q0 111 56 202t144 159.5t192.5 112.5t200.5 58v4q-63 23 -120 78q-66 -16 -123 -16 q-84 0 -156 20.5t-125 57t-84 91t-31 122.5zM543 1221q0 -72 29.5 -123t78.5 -85t114.5 -50.5t139.5 -16.5q16 0 34.5 1t37.5 3q-2 14 -3 27.5t-1 30.5q0 57 23.5 107t62.5 93t86 77t94 58q-76 59 -166 93t-186 34q-49 0 -109.5 -15t-113 -46t-87 -78t-34.5 -110zM887 35 q0 -12 2 -23q80 -4 168 34t161.5 101.5t120.5 143.5t47 164q0 63 -32.5 103t-98.5 40q-61 0 -126.5 -52t-119 -132t-88 -174.5t-34.5 -178.5v-26zM1079 958q92 14 198.5 53.5t199 94.5t153 121.5t60.5 132.5t-95 65q-35 0 -72.5 -11t-74.5 -27.5t-72 -37t-63 -38.5 q35 -39 65.5 -73t30.5 -38q0 -12 -10 -12q-4 0 -9 6l-16 18q-10 12 -29.5 34t-52.5 52q-90 -66 -151.5 -151t-61.5 -189zM1307 1681q0 35 16 58.5t55 23.5q59 0 60 -51q0 -41 -18.5 -64.5t-61.5 -23.5q-25 0 -38 11t-13 46zM1602 1681q0 35 16 58.5t55 23.5q59 0 60 -51 q0 -41 -18.5 -64.5t-61.5 -23.5q-25 0 -38 11t-13 46z" />
<glyph unicode="&#x401;" horiz-adv-x="1138" d="M489 1176q0 78 37 137t94.5 100t129 61.5t141.5 20.5q102 0 196.5 -38t172.5 -101q78 37 161.5 65.5t173.5 28.5q55 0 87 -23.5t32 -80.5q0 -47 -37 -97.5t-94 -97.5t-129 -88t-141.5 -73t-131 -51t-98.5 -21q10 -35 32 -61t61 -26q10 0 29.5 4.5t45.5 4.5 q29 0 55.5 -9.5t26.5 -21.5q0 -27 -47 -27q-53 0 -77.5 12.5t-43.5 12.5q-61 0 -146 -38t-162 -108.5t-130 -172t-53 -226.5q0 -115 46 -174t142 -74q-4 18 -6 39t-2 41q0 117 33 215.5t88 170t128 111.5t150 40q76 0 117 -53.5t41 -122.5q0 -90 -49 -173t-126 -147.5 t-169 -104.5t-176 -42q6 -66 23.5 -123.5t17.5 -67.5q0 -6 -10 -6q-8 0 -11.5 18.5t-19.5 69.5q-10 29 -15.5 58.5t-9.5 50.5q-70 0 -130 19.5t-105 56t-70.5 93t-25.5 130.5q0 111 56 202t144 159.5t192.5 112.5t200.5 58v4q-63 23 -120 78q-66 -16 -123 -16 q-84 0 -156 20.5t-125 57t-84 91t-31 122.5zM543 1221q0 -72 29.5 -123t78.5 -85t114.5 -50.5t139.5 -16.5q16 0 34.5 1t37.5 3q-2 14 -3 27.5t-1 30.5q0 57 23.5 107t62.5 93t86 77t94 58q-76 59 -166 93t-186 34q-49 0 -109.5 -15t-113 -46t-87 -78t-34.5 -110zM887 35 q0 -12 2 -23q80 -4 168 34t161.5 101.5t120.5 143.5t47 164q0 63 -32.5 103t-98.5 40q-61 0 -126.5 -52t-119 -132t-88 -174.5t-34.5 -178.5v-26zM1079 958q92 14 198.5 53.5t199 94.5t153 121.5t60.5 132.5t-95 65q-35 0 -72.5 -11t-74.5 -27.5t-72 -37t-63 -38.5 q35 -39 65.5 -73t30.5 -38q0 -12 -10 -12q-4 0 -9 6l-16 18q-10 12 -29.5 34t-52.5 52q-90 -66 -151.5 -151t-61.5 -189zM1307 1681q0 35 16 58.5t55 23.5q59 0 60 -51q0 -41 -18.5 -64.5t-61.5 -23.5q-25 0 -38 11t-13 46zM1602 1681q0 35 16 58.5t55 23.5q59 0 60 -51 q0 -41 -18.5 -64.5t-61.5 -23.5q-25 0 -38 11t-13 46z" />
<glyph unicode="&#xa9;" horiz-adv-x="1638" d="M629 707q0 150 55 280.5t150.5 229t224.5 156t274 57.5q147 0 275.5 -56.5t223.5 -155t150.5 -230.5t55.5 -281q0 -147 -55.5 -278.5t-150.5 -229t-223 -154.5t-276 -57q-145 0 -274 57t-224.5 154.5t-150.5 229t-55 278.5zM702 707q0 -131 51.5 -250t137.5 -210 t200.5 -144.5t241.5 -53.5t242 53.5t201 144.5t137 209.5t51 250.5q0 133 -50 252.5t-136 211t-201 144.5t-244 53q-127 0 -241.5 -54t-200.5 -144.5t-137.5 -211t-51.5 -251.5zM936 725q0 66 27.5 137.5t85 131t141.5 98t199 38.5q82 0 129 -13t88 -27q47 -14 47 -43v-146 h-33q-2 39 -14.5 75t-40 62.5t-73.5 43t-114 16.5q-82 0 -143 -28t-102 -76t-61.5 -114.5t-20.5 -146.5q-2 -174 83 -281.5t263 -107.5q57 0 99 14.5t72.5 40t51 58t35.5 69.5h28l-32 -141q0 -18 -14.5 -25.5t-39.5 -15.5q-33 -10 -89 -21.5t-132 -11.5q-86 0 -166 21.5 t-140 71t-97 128t-37 193.5z" />
<glyph unicode="&#xaa;" horiz-adv-x="1366" d="M539.5 433q-9.5 5 1.5 20q29 41 80 85t98 72q53 33 115 56q61 125 151 229q-139 43 -202.5 115.5t-63.5 165.5q0 78 37 137t94 100t129 61.5t141 20.5q102 0 196.5 -38t172.5 -101q115 55 194.5 74.5t141.5 19.5q55 0 87 -23.5t32 -80.5q0 -45 -32 -91.5t-83 -89.5 t-113.5 -80.5t-123 -68.5t-113 -51.5t-80.5 -28.5q-35 -8 -76 -18.5t-82 -17.5t-79 -11t-62 -2q-23 -29 -44.5 -68t-49.5 -96q51 12 94 21.5t82 15.5t75.5 10t77.5 4q68 0 144.5 8.5t124.5 24.5q33 12 52 33.5t25 21.5t10.5 -4t4.5 -8q0 -10 -36 -32.5t-75 -37.5 q-41 -14 -93 -29.5t-130 -31.5q-61 -12 -115.5 -12t-101.5 1t-86 -1t-72 -19q-45 -94 -79 -202.5t-34 -209.5q0 -119 60.5 -183t157.5 -79q-4 18 -6.5 39t-2.5 41q0 117 33 215.5t88.5 170t128 111.5t150.5 40q76 0 116.5 -53.5t40.5 -122.5q0 -90 -49 -173t-125.5 -147.5 t-169 -104.5t-176.5 -42q6 -66 23.5 -123.5t17.5 -67.5q0 -6 -10 -6q-8 0 -11 18.5t-20 69.5q-10 29 -15 58.5t-9 50.5q-70 0 -133.5 21.5t-112.5 64.5t-78 105.5t-29 142.5q0 82 21.5 162.5t58.5 158.5q-29 -10 -62.5 -29.5t-76.5 -52.5q-33 -25 -67.5 -56.5t-61.5 -66.5 q-6 -10 -15.5 -5zM772 1221q0 -72 26.5 -120t67.5 -79t87 -46t87 -22q33 41 60.5 73t56.5 58q51 49 89 83t72 63t69.5 54.5t80.5 57.5q-76 59 -166 93t-186 34q-49 0 -109.5 -15t-112.5 -46t-87 -78t-35 -110zM1116 35q0 -12 2 -23q80 -4 168 34t162 101.5t121 143.5t47 164 q0 63 -33 103t-98 40q-61 0 -127 -52t-119 -132t-88 -174.5t-35 -178.5v-26zM1145 946q139 0 277.5 39t248 100.5t179 135t69.5 143.5q0 66 -94 66q-35 0 -73 -11.5t-75 -30t-71.5 -39t-63.5 -38.5q35 -39 65.5 -73t30.5 -38q0 -12 -10 -12q-4 0 -9 6l-15 18q-10 12 -30 34 t-52 52q-43 -29 -95.5 -70.5t-103.5 -91t-98 -98.5t-80 -92z" />
<glyph unicode="&#x404;" horiz-adv-x="1366" d="M539.5 433q-9.5 5 1.5 20q29 41 80 85t98 72q53 33 115 56q61 125 151 229q-139 43 -202.5 115.5t-63.5 165.5q0 78 37 137t94 100t129 61.5t141 20.5q102 0 196.5 -38t172.5 -101q115 55 194.5 74.5t141.5 19.5q55 0 87 -23.5t32 -80.5q0 -45 -32 -91.5t-83 -89.5 t-113.5 -80.5t-123 -68.5t-113 -51.5t-80.5 -28.5q-35 -8 -76 -18.5t-82 -17.5t-79 -11t-62 -2q-23 -29 -44.5 -68t-49.5 -96q51 12 94 21.5t82 15.5t75.5 10t77.5 4q68 0 144.5 8.5t124.5 24.5q33 12 52 33.5t25 21.5t10.5 -4t4.5 -8q0 -10 -36 -32.5t-75 -37.5 q-41 -14 -93 -29.5t-130 -31.5q-61 -12 -115.5 -12t-101.5 1t-86 -1t-72 -19q-45 -94 -79 -202.5t-34 -209.5q0 -119 60.5 -183t157.5 -79q-4 18 -6.5 39t-2.5 41q0 117 33 215.5t88.5 170t128 111.5t150.5 40q76 0 116.5 -53.5t40.5 -122.5q0 -90 -49 -173t-125.5 -147.5 t-169 -104.5t-176.5 -42q6 -66 23.5 -123.5t17.5 -67.5q0 -6 -10 -6q-8 0 -11 18.5t-20 69.5q-10 29 -15 58.5t-9 50.5q-70 0 -133.5 21.5t-112.5 64.5t-78 105.5t-29 142.5q0 82 21.5 162.5t58.5 158.5q-29 -10 -62.5 -29.5t-76.5 -52.5q-33 -25 -67.5 -56.5t-61.5 -66.5 q-6 -10 -15.5 -5zM772 1221q0 -72 26.5 -120t67.5 -79t87 -46t87 -22q33 41 60.5 73t56.5 58q51 49 89 83t72 63t69.5 54.5t80.5 57.5q-76 59 -166 93t-186 34q-49 0 -109.5 -15t-112.5 -46t-87 -78t-35 -110zM1116 35q0 -12 2 -23q80 -4 168 34t162 101.5t121 143.5t47 164 q0 63 -33 103t-98 40q-61 0 -127 -52t-119 -132t-88 -174.5t-35 -178.5v-26zM1145 946q139 0 277.5 39t248 100.5t179 135t69.5 143.5q0 66 -94 66q-35 0 -73 -11.5t-75 -30t-71.5 -39t-63.5 -38.5q35 -39 65.5 -73t30.5 -38q0 -12 -10 -12q-4 0 -9 6l-15 18q-10 12 -30 34 t-52 52q-43 -29 -95.5 -70.5t-103.5 -91t-98 -98.5t-80 -92z" />
<glyph unicode="&#xab;" d="M487 279v18q37 25 80 59.5t109 87.5q31 25 48 40.5t27.5 24.5t15.5 12t9 3q10 0 10 -8q0 -10 -20.5 -35.5t-50 -59.5t-62 -71t-57.5 -65q16 -35 32.5 -72t30 -67.5t21.5 -54t8 -32.5q0 -14 -10 -14q-6 0 -11 5t-14.5 19.5t-28 39t-51.5 63.5q-25 29 -44 53.5t-42 53.5z M717 279v18q37 25 80 59.5t108 87.5q31 25 48.5 40.5t27.5 24.5t15 12t10 3q10 0 10 -8q0 -10 -20.5 -35.5t-50.5 -59.5t-62.5 -71t-57.5 -65q16 -35 32.5 -72t30 -67.5t22 -54t8.5 -32.5q0 -14 -11 -14q-6 0 -11 5t-14.5 19.5t-27.5 39t-51 63.5q-25 29 -44 53.5t-42 53.5z " />
<glyph unicode="&#xad;" horiz-adv-x="681" d="M457 246l24 78h453l-25 -78h-452z" />
<glyph unicode="&#xae;" horiz-adv-x="1638" d="M629 707q0 150 55 280.5t150.5 229t224.5 156t274 57.5q147 0 275.5 -56.5t223.5 -155t150.5 -230.5t55.5 -281q0 -147 -55.5 -278.5t-150.5 -229t-223 -154.5t-276 -57q-145 0 -274 57t-224.5 154.5t-150.5 229t-55 278.5zM702 707q0 -131 51.5 -250t137.5 -210 t200.5 -144.5t241.5 -53.5t242 53.5t201 144.5t137 209.5t51 250.5q0 133 -50 252.5t-136 211t-201 144.5t-244 53q-127 0 -241.5 -54t-200.5 -144.5t-137.5 -211t-51.5 -251.5zM999 332v33q41 4 62.5 7t31 12t10.5 28.5t1 58.5v494q0 39 -1 59t-10.5 30.5t-31 13.5t-62.5 7 v27h355q45 0 90 -11.5t80 -34t56.5 -57t21.5 -84.5q0 -86 -50.5 -143t-121.5 -80l120 -166q47 -59 94.5 -110t77.5 -68v-16h-100q-23 0 -46.5 22.5t-56 65.5t-76.5 107.5t-106 148.5h-131v-205q0 -39 1 -58.5t10.5 -28.5t32 -12t63.5 -7v-33h-314zM1206 709h119q78 0 124 51 t46 145q0 45 -15.5 76t-41 50.5t-57 28.5t-64.5 9h-111v-360z" />
<glyph unicode="&#xaf;" horiz-adv-x="1593" d="M379 401q0 102 51 188.5t131 148t177.5 96t187.5 34.5q72 0 144.5 -19.5t129.5 -58t93 -98t36 -137.5q0 -74 -33.5 -136.5t-92 -108.5t-136.5 -71.5t-168 -25.5q-47 0 -93 10t-83 23.5t-59.5 26t-22.5 16.5q0 14 10 14q6 0 25.5 -10t51.5 -22.5t75 -22.5t96 -10 q88 0 163 24.5t128 66.5t84 99t31 123q0 68 -29 115t-75 76.5t-104.5 43t-115.5 13.5q-96 0 -194.5 -32t-177.5 -91.5t-128 -144.5t-49 -189q0 -92 47 -154.5t118 -101.5t156 -56.5t158 -17.5q158 0 280 52.5t219 139.5t175 201.5t150 241.5q-47 4 -90 18.5t-76 42 t-52.5 66.5t-19.5 92q0 111 59.5 195t152.5 146.5t208 105.5t227.5 68.5t209.5 37t155 11.5q8 0 8 -13q0 -4 -16.5 -6t-47 -13.5t-75.5 -36t-103 -71.5q-66 -55 -118 -127.5t-98 -153.5t-88 -167t-87 -166q57 10 107.5 38.5t87.5 59.5t59.5 54.5t26.5 23.5q8 0 8 -12 q0 -10 -26.5 -38t-69.5 -59.5t-97.5 -59.5t-109.5 -36q-59 -111 -117.5 -199t-127.5 -158.5t-151.5 -124.5t-187.5 -99q-111 -47 -207 -62.5t-188 -15.5t-183.5 25.5t-164 77.5t-118.5 130t-46 180zM1575 860q0 -37 8 -69.5t27.5 -58t53.5 -42t83 -18.5q57 113 134 228.5 t163 214.5t174 172t172 104v4q-4 0 -8 1t-8 1q-25 0 -93.5 -10.5t-157.5 -34t-185.5 -64.5t-177.5 -100.5t-133 -140.5t-52 -187zM2138 1681q0 35 16.5 58.5t55.5 23.5q59 0 59 -51q0 -41 -18.5 -64.5t-61.5 -23.5q-25 0 -38 11t-13 46zM2433 1681q0 35 16.5 58.5t55.5 23.5 q59 0 59 -51q0 -41 -18.5 -64.5t-61.5 -23.5q-25 0 -38 11t-13 46z" />
<glyph unicode="&#x407;" horiz-adv-x="1593" d="M379 401q0 102 51 188.5t131 148t177.5 96t187.5 34.5q72 0 144.5 -19.5t129.5 -58t93 -98t36 -137.5q0 -74 -33.5 -136.5t-92 -108.5t-136.5 -71.5t-168 -25.5q-47 0 -93 10t-83 23.5t-59.5 26t-22.5 16.5q0 14 10 14q6 0 25.5 -10t51.5 -22.5t75 -22.5t96 -10 q88 0 163 24.5t128 66.5t84 99t31 123q0 68 -29 115t-75 76.5t-104.5 43t-115.5 13.5q-96 0 -194.5 -32t-177.5 -91.5t-128 -144.5t-49 -189q0 -92 47 -154.5t118 -101.5t156 -56.5t158 -17.5q158 0 280 52.5t219 139.5t175 201.5t150 241.5q-47 4 -90 18.5t-76 42 t-52.5 66.5t-19.5 92q0 111 59.5 195t152.5 146.5t208 105.5t227.5 68.5t209.5 37t155 11.5q8 0 8 -13q0 -4 -16.5 -6t-47 -13.5t-75.5 -36t-103 -71.5q-66 -55 -118 -127.5t-98 -153.5t-88 -167t-87 -166q57 10 107.5 38.5t87.5 59.5t59.5 54.5t26.5 23.5q8 0 8 -12 q0 -10 -26.5 -38t-69.5 -59.5t-97.5 -59.5t-109.5 -36q-59 -111 -117.5 -199t-127.5 -158.5t-151.5 -124.5t-187.5 -99q-111 -47 -207 -62.5t-188 -15.5t-183.5 25.5t-164 77.5t-118.5 130t-46 180zM1575 860q0 -37 8 -69.5t27.5 -58t53.5 -42t83 -18.5q57 113 134 228.5 t163 214.5t174 172t172 104v4q-4 0 -8 1t-8 1q-25 0 -93.5 -10.5t-157.5 -34t-185.5 -64.5t-177.5 -100.5t-133 -140.5t-52 -187zM2138 1681q0 35 16.5 58.5t55.5 23.5q59 0 59 -51q0 -41 -18.5 -64.5t-61.5 -23.5q-25 0 -38 11t-13 46zM2433 1681q0 35 16.5 58.5t55.5 23.5 q59 0 59 -51q0 -41 -18.5 -64.5t-61.5 -23.5q-25 0 -38 11t-13 46z" />
<glyph unicode="&#xb0;" horiz-adv-x="614" d="M649 807q0 68 47 114t115 46t115 -46.5t47 -113.5q0 -68 -47 -114t-115 -46t-115 46t-47 114zM690 807q0 -51 35 -89t86 -38t86 38t35 89t-35 89t-86 38t-86 -38t-35 -89z" />
<glyph unicode="&#xb2;" horiz-adv-x="1593" d="M379 401q0 102 51 188.5t131 148t177.5 96t187.5 34.5q72 0 144.5 -19.5t129.5 -58t93 -98t36 -137.5q0 -74 -33.5 -136.5t-92 -108.5t-136.5 -71.5t-168 -25.5q-47 0 -93 10t-83 23.5t-59.5 26t-22.5 16.5q0 14 10 14q6 0 25.5 -10t51.5 -22.5t75 -22.5t96 -10 q88 0 163 24.5t128 66.5t84 99t31 123q0 68 -29 115t-75 76.5t-104.5 43t-115.5 13.5q-96 0 -194.5 -32t-177.5 -91.5t-128 -144.5t-49 -189q0 -92 47 -154.5t118 -101.5t156 -56.5t158 -17.5q158 0 280 52.5t219 139.5t175 201.5t150 241.5q-47 4 -90 18.5t-76 42 t-52.5 66.5t-19.5 92q0 111 59.5 195t152.5 146.5t208 105.5t227.5 68.5t209.5 37t155 11.5q8 0 8 -13q0 -4 -16.5 -6t-47 -13.5t-75.5 -36t-103 -71.5q-66 -55 -118 -127.5t-98 -153.5t-88 -167t-87 -166q57 10 107.5 38.5t87.5 59.5t59.5 54.5t26.5 23.5q8 0 8 -12 q0 -10 -26.5 -38t-69.5 -59.5t-97.5 -59.5t-109.5 -36q-59 -111 -117.5 -199t-127.5 -158.5t-151.5 -124.5t-187.5 -99q-111 -47 -207 -62.5t-188 -15.5t-183.5 25.5t-164 77.5t-118.5 130t-46 180zM1575 860q0 -37 8 -69.5t27.5 -58t53.5 -42t83 -18.5q57 113 134 228.5 t163 214.5t174 172t172 104v4q-4 0 -8 1t-8 1q-25 0 -93.5 -10.5t-157.5 -34t-185.5 -64.5t-177.5 -100.5t-133 -140.5t-52 -187z" />
<glyph unicode="&#x406;" horiz-adv-x="1593" d="M379 401q0 102 51 188.5t131 148t177.5 96t187.5 34.5q72 0 144.5 -19.5t129.5 -58t93 -98t36 -137.5q0 -74 -33.5 -136.5t-92 -108.5t-136.5 -71.5t-168 -25.5q-47 0 -93 10t-83 23.5t-59.5 26t-22.5 16.5q0 14 10 14q6 0 25.5 -10t51.5 -22.5t75 -22.5t96 -10 q88 0 163 24.5t128 66.5t84 99t31 123q0 68 -29 115t-75 76.5t-104.5 43t-115.5 13.5q-96 0 -194.5 -32t-177.5 -91.5t-128 -144.5t-49 -189q0 -92 47 -154.5t118 -101.5t156 -56.5t158 -17.5q158 0 280 52.5t219 139.5t175 201.5t150 241.5q-47 4 -90 18.5t-76 42 t-52.5 66.5t-19.5 92q0 111 59.5 195t152.5 146.5t208 105.5t227.5 68.5t209.5 37t155 11.5q8 0 8 -13q0 -4 -16.5 -6t-47 -13.5t-75.5 -36t-103 -71.5q-66 -55 -118 -127.5t-98 -153.5t-88 -167t-87 -166q57 10 107.5 38.5t87.5 59.5t59.5 54.5t26.5 23.5q8 0 8 -12 q0 -10 -26.5 -38t-69.5 -59.5t-97.5 -59.5t-109.5 -36q-59 -111 -117.5 -199t-127.5 -158.5t-151.5 -124.5t-187.5 -99q-111 -47 -207 -62.5t-188 -15.5t-183.5 25.5t-164 77.5t-118.5 130t-46 180zM1575 860q0 -37 8 -69.5t27.5 -58t53.5 -42t83 -18.5q57 113 134 228.5 t163 214.5t174 172t172 104v4q-4 0 -8 1t-8 1q-25 0 -93.5 -10.5t-157.5 -34t-185.5 -64.5t-177.5 -100.5t-133 -140.5t-52 -187z" />
<glyph unicode="&#xb3;" horiz-adv-x="454" d="M340 289q0 4 10 15t51 58q20 23 46 50.5t50.5 55.5t46 52.5t34.5 40.5l129 8q-92 -152 -148.5 -242.5t-86.5 -143t-40 -76t-10 -39.5q0 -27 12 -35t27 -8q25 0 53.5 14t59 35.5t60.5 48.5t54 53q20 20 42 44t39 44.5t29.5 33.5t14.5 13q12 0 12 -10q0 -4 -29.5 -40 t-95.5 -103q-152 -158 -241 -158q-47 0 -73 29.5t-26 76.5q0 51 20.5 102.5t50.5 100.5t63.5 94.5t60.5 83.5l-4 5q-18 -18 -59 -61.5t-115 -127.5q-16 -18 -20.5 -22.5t-8.5 -4.5q-8 1 -8 13zM778 893q0 27 18.5 52.5t53.5 25.5q23 0 35 -15.5t12 -37.5q0 -27 -18.5 -52.5 t-53.5 -25.5q-23 0 -35 15t-12 38z" />
<glyph unicode="&#x456;" horiz-adv-x="454" d="M340 289q0 4 10 15t51 58q20 23 46 50.5t50.5 55.5t46 52.5t34.5 40.5l129 8q-92 -152 -148.5 -242.5t-86.5 -143t-40 -76t-10 -39.5q0 -27 12 -35t27 -8q25 0 53.5 14t59 35.5t60.5 48.5t54 53q20 20 42 44t39 44.5t29.5 33.5t14.5 13q12 0 12 -10q0 -4 -29.5 -40 t-95.5 -103q-152 -158 -241 -158q-47 0 -73 29.5t-26 76.5q0 51 20.5 102.5t50.5 100.5t63.5 94.5t60.5 83.5l-4 5q-18 -18 -59 -61.5t-115 -127.5q-16 -18 -20.5 -22.5t-8.5 -4.5q-8 1 -8 13zM778 893q0 27 18.5 52.5t53.5 25.5q23 0 35 -15.5t12 -37.5q0 -27 -18.5 -52.5 t-53.5 -25.5q-23 0 -35 15t-12 38z" />
<glyph unicode="&#xb4;" horiz-adv-x="909" d="M338 287q0 2 8 13t20.5 24.5t26 29t23.5 27.5q74 86 137 137t123 51q41 0 58.5 -26.5t17.5 -73.5q0 -31 -14.5 -66.5t-34 -70.5t-42 -67t-38.5 -54l4 -4q33 33 72.5 84t80.5 102t81 93t75 59q29 14 58.5 17t62.5 5q14 0 29.5 10.5t27.5 22.5t21.5 23.5t13.5 15.5 q8 10 14 9t6 -5q0 -6 -6 -18.5t-14 -26.5t-18.5 -29.5t-18.5 -23.5q-29 -29 -56.5 -49.5t-56.5 -20.5t-59.5 3t-54.5 -15q-29 -23 -83 -82t-111.5 -129t-109 -136.5t-73.5 -103.5l-137 -12q10 18 37.5 59t64.5 93.5t77 109.5t72.5 107.5t54 89.5t21.5 55t-9 23.5t-21 7.5 q-43 0 -91.5 -36t-125.5 -122q-37 -39 -56.5 -61.5t-29 -33.5t-12.5 -14.5t-5 -3.5q-10 1 -10 13z" />
<glyph unicode="&#x491;" horiz-adv-x="909" d="M338 287q0 2 8 13t20.5 24.5t26 29t23.5 27.5q74 86 137 137t123 51q41 0 58.5 -26.5t17.5 -73.5q0 -31 -14.5 -66.5t-34 -70.5t-42 -67t-38.5 -54l4 -4q33 33 72.5 84t80.5 102t81 93t75 59q29 14 58.5 17t62.5 5q14 0 29.5 10.5t27.5 22.5t21.5 23.5t13.5 15.5 q8 10 14 9t6 -5q0 -6 -6 -18.5t-14 -26.5t-18.5 -29.5t-18.5 -23.5q-29 -29 -56.5 -49.5t-56.5 -20.5t-59.5 3t-54.5 -15q-29 -23 -83 -82t-111.5 -129t-109 -136.5t-73.5 -103.5l-137 -12q10 18 37.5 59t64.5 93.5t77 109.5t72.5 107.5t54 89.5t21.5 55t-9 23.5t-21 7.5 q-43 0 -91.5 -36t-125.5 -122q-37 -39 -56.5 -61.5t-29 -33.5t-12.5 -14.5t-5 -3.5q-10 1 -10 13z" />
<glyph unicode="&#xb6;" horiz-adv-x="1228" d="M651 -324l385 797q-139 0 -207.5 62.5t-68.5 171.5q0 127 58.5 237.5t153.5 193.5t219 130t257 47h491l-20 -45q-59 -4 -96 -9.5t-60.5 -14.5t-37 -26.5t-25.5 -43.5l-723 -1500h-82l760 1577h-162l-760 -1577h-82z" />
<glyph unicode="&#xb7;" horiz-adv-x="454" d="M494 285q0 25 16 46t43 21t43 -21.5t16 -45.5q0 -25 -16 -46.5t-43 -21.5t-43 21.5t-16 46.5z" />
<glyph unicode="&#x2219;" horiz-adv-x="454" d="M494 285q0 25 16 46t43 21t43 -21.5t16 -45.5q0 -25 -16 -46.5t-43 -21.5t-43 21.5t-16 46.5z" />
<glyph unicode="&#xb8;" horiz-adv-x="569" d="M340 287q0 2 9 14t22.5 26.5t26 28t18.5 19.5q86 86 178 140t176 54q47 0 74.5 -27.5t27.5 -70.5q0 -57 -49 -103t-116.5 -80t-139 -56.5t-116.5 -30.5q-4 -16 -6.5 -33.5t-2.5 -34.5q0 -59 19.5 -82.5t66.5 -25.5q41 -2 117 33.5t170 127.5q59 61 81 90t28 29 q10 0 10 -12q0 -4 -13.5 -20.5t-34 -40t-46 -50t-47.5 -47.5q-78 -72 -142.5 -102.5t-136.5 -32.5q-43 0 -72.5 18.5t-50 49t-30 69.5t-9.5 80q0 23 3 39t3 20q0 2 -2 5l-6 -7q-2 0 -6 4.5t-4 8.5zM459 225q51 6 112.5 30t114.5 61.5t89 86t36 103.5q0 39 -41 39t-90 -34 t-95 -83t-81 -104.5t-45 -98.5zM547 766q0 35 16.5 58.5t54.5 23.5q59 0 60 -51q0 -41 -18.5 -64.5t-61.5 -23.5q-25 0 -38 11t-13 46zM842 766q0 35 16 58.5t55 23.5q59 0 60 -51q0 -41 -18.5 -64.5t-61.5 -23.5q-25 0 -38 11t-13 46z" />
<glyph unicode="&#x451;" horiz-adv-x="569" d="M340 287q0 2 9 14t22.5 26.5t26 28t18.5 19.5q86 86 178 140t176 54q47 0 74.5 -27.5t27.5 -70.5q0 -57 -49 -103t-116.5 -80t-139 -56.5t-116.5 -30.5q-4 -16 -6.5 -33.5t-2.5 -34.5q0 -59 19.5 -82.5t66.5 -25.5q41 -2 117 33.5t170 127.5q59 61 81 90t28 29 q10 0 10 -12q0 -4 -13.5 -20.5t-34 -40t-46 -50t-47.5 -47.5q-78 -72 -142.5 -102.5t-136.5 -32.5q-43 0 -72.5 18.5t-50 49t-30 69.5t-9.5 80q0 23 3 39t3 20q0 2 -2 5l-6 -7q-2 0 -6 4.5t-4 8.5zM459 225q51 6 112.5 30t114.5 61.5t89 86t36 103.5q0 39 -41 39t-90 -34 t-95 -83t-81 -104.5t-45 -98.5zM547 766q0 35 16.5 58.5t54.5 23.5q59 0 60 -51q0 -41 -18.5 -64.5t-61.5 -23.5q-25 0 -38 11t-13 46zM842 766q0 35 16 58.5t55 23.5q59 0 60 -51q0 -41 -18.5 -64.5t-61.5 -23.5q-25 0 -38 11t-13 46z" />
<glyph unicode="&#xba;" horiz-adv-x="569" d="M340 287q0 2 2 5l8 12q6 9 20.5 25.5t39.5 45.5q88 104 175 149t173 45q59 0 96 -25.5t37 -74.5q0 -29 -20.5 -58.5t-55.5 -29.5q-29 0 -40 15.5t-11 35.5t9 28.5t21.5 13.5t21.5 12.5t9 23.5q0 12 -11 23.5t-36 11.5q-31 0 -68.5 -17.5t-74.5 -49.5t-72 -76t-59 -95 q23 16 49.5 29.5t54.5 13.5q35 0 50.5 -8t21.5 -25q4 -12 9 -17t18 -9q14 -4 33.5 2t45.5 26q20 20 25 21q6 0 6 -4q0 -2 -11 -15.5t-36 -29.5q-29 -20 -52.5 -30.5t-58.5 -10.5q-29 0 -46 12t-21 31q-6 25 -29 24q-18 0 -37.5 -11t-36.5 -25q-16 -41 -26 -85t-10 -92 q0 -80 86 -79q53 0 123.5 37.5t138.5 109.5q41 43 64.5 69.5t34.5 40t15.5 18.5t6.5 5q12 0 12 -12q0 -4 -23.5 -32t-56.5 -62q-98 -106 -175 -152.5t-155 -46.5q-47 0 -78.5 21.5t-50 54.5t-26 72.5t-7.5 76.5q0 25 3.5 38t3.5 18q0 4 -4 4t-7.5 -4.5t-7.5 -4.5 q-10 1 -10 11z" />
<glyph unicode="&#x454;" horiz-adv-x="569" d="M340 287q0 2 2 5l8 12q6 9 20.5 25.5t39.5 45.5q88 104 175 149t173 45q59 0 96 -25.5t37 -74.5q0 -29 -20.5 -58.5t-55.5 -29.5q-29 0 -40 15.5t-11 35.5t9 28.5t21.5 13.5t21.5 12.5t9 23.5q0 12 -11 23.5t-36 11.5q-31 0 -68.5 -17.5t-74.5 -49.5t-72 -76t-59 -95 q23 16 49.5 29.5t54.5 13.5q35 0 50.5 -8t21.5 -25q4 -12 9 -17t18 -9q14 -4 33.5 2t45.5 26q20 20 25 21q6 0 6 -4q0 -2 -11 -15.5t-36 -29.5q-29 -20 -52.5 -30.5t-58.5 -10.5q-29 0 -46 12t-21 31q-6 25 -29 24q-18 0 -37.5 -11t-36.5 -25q-16 -41 -26 -85t-10 -92 q0 -80 86 -79q53 0 123.5 37.5t138.5 109.5q41 43 64.5 69.5t34.5 40t15.5 18.5t6.5 5q12 0 12 -12q0 -4 -23.5 -32t-56.5 -62q-98 -106 -175 -152.5t-155 -46.5q-47 0 -78.5 21.5t-50 54.5t-26 72.5t-7.5 76.5q0 25 3.5 38t3.5 18q0 4 -4 4t-7.5 -4.5t-7.5 -4.5 q-10 1 -10 11z" />
<glyph unicode="&#xbb;" d="M506 53q0 8 20.5 35t50 60.5t62.5 70.5t57 66q-16 35 -32.5 71.5t-29.5 67.5t-21.5 53.5t-8.5 32.5q0 14 10 14q6 0 11.5 -5t14.5 -19.5t27.5 -39t51.5 -63.5q25 -29 44 -53.5t42 -52.5v-19q-37 -25 -80 -59.5t-109 -87.5q-31 -25 -48 -40t-27.5 -24.5t-15.5 -12.5t-9 -3 q-10 0 -10 8zM735 53q0 8 20.5 35t50.5 60.5t62.5 70.5t57.5 66q-16 35 -32.5 71.5t-30 67.5t-21.5 53.5t-8 32.5q0 14 10 14q6 0 11 -5t14.5 -19.5t27.5 -39t51 -63.5q25 -29 44.5 -53.5t41.5 -52.5v-19q-37 -25 -80 -59.5t-108 -87.5q-31 -25 -48.5 -40t-27.5 -24.5 t-15 -12.5t-10 -3q-10 0 -10 8z" />
<glyph unicode="&#xbc;" horiz-adv-x="454" d="M-223 -547q0 72 56 141.5t138 133t174.5 119t163.5 100.5q109 227 184.5 373.5t102.5 185.5l-4 4q-29 -23 -49 -41l-41 -37q-20 -18 -40 -38.5t-44 -45.5q-23 -25 -36 -38t-19.5 -21t-8.5 -10.5t-4 -2.5q-10 0 -10 13q0 2 2 5t9 11t22.5 23.5t40.5 44.5q41 43 97 95 t103 93l129 8q-31 -57 -76.5 -142t-95 -173t-93.5 -166t-72 -121l4 -4q92 47 181 121t175 174q29 33 34 40t11 7q8 0 8 -10q0 -8 -8 -15.5t-31 -35.5q-70 -86 -162 -167t-233 -153q-23 -39 -54.5 -96t-71.5 -119.5t-85 -124t-94 -112t-99.5 -81t-99.5 -30.5 q-47 0 -75.5 21.5t-28.5 70.5zM-170 -561q0 -29 18.5 -41t47.5 -12q41 0 82.5 30.5t80.5 78.5t76 107.5t66.5 118t53.5 108.5t36 81l-4 4q-53 -35 -130 -85t-147.5 -111.5t-122 -132t-57.5 -146.5zM786 889q0 27 18.5 52.5t53.5 25.5q23 0 35 -15.5t12 -38.5 q0 -27 -18.5 -52t-52.5 -25q-23 0 -35.5 15t-12.5 38z" />
<glyph unicode="&#x458;" horiz-adv-x="454" d="M-223 -547q0 72 56 141.5t138 133t174.5 119t163.5 100.5q109 227 184.5 373.5t102.5 185.5l-4 4q-29 -23 -49 -41l-41 -37q-20 -18 -40 -38.5t-44 -45.5q-23 -25 -36 -38t-19.5 -21t-8.5 -10.5t-4 -2.5q-10 0 -10 13q0 2 2 5t9 11t22.5 23.5t40.5 44.5q41 43 97 95 t103 93l129 8q-31 -57 -76.5 -142t-95 -173t-93.5 -166t-72 -121l4 -4q92 47 181 121t175 174q29 33 34 40t11 7q8 0 8 -10q0 -8 -8 -15.5t-31 -35.5q-70 -86 -162 -167t-233 -153q-23 -39 -54.5 -96t-71.5 -119.5t-85 -124t-94 -112t-99.5 -81t-99.5 -30.5 q-47 0 -75.5 21.5t-28.5 70.5zM-170 -561q0 -29 18.5 -41t47.5 -12q41 0 82.5 30.5t80.5 78.5t76 107.5t66.5 118t53.5 108.5t36 81l-4 4q-53 -35 -130 -85t-147.5 -111.5t-122 -132t-57.5 -146.5zM786 889q0 27 18.5 52.5t53.5 25.5q23 0 35 -15.5t12 -38.5 q0 -27 -18.5 -52t-52.5 -25q-23 0 -35.5 15t-12.5 38z" />
<glyph unicode="&#xbd;" horiz-adv-x="1593" d="M379 391q0 109 49 196t128 147.5t178.5 93t197.5 32.5q70 0 140.5 -17.5t127.5 -54t93 -95t36 -140.5q0 -80 -37 -142.5t-95 -106.5t-133 -67.5t-149 -23.5q-59 0 -110 10t-88 23.5t-58.5 26t-21.5 16.5q0 10 10 10q2 0 19.5 -9t49.5 -21.5t80 -21.5t115 -9 q70 0 140.5 19t127 59t91.5 99.5t35 139.5q0 70 -32 116t-82 74.5t-110.5 41t-117.5 12.5q-94 0 -189.5 -34t-171.5 -95.5t-123 -146.5t-47 -185q0 -84 47 -145.5t118 -101.5t151.5 -59.5t150.5 -19.5q190 0 319.5 65.5t222.5 173t160.5 248t135.5 287.5q-29 -2 -56.5 -5 t-58.5 -3q-86 0 -172 23.5t-155.5 68.5t-113.5 111t-44 152q0 82 35.5 148.5t96 112.5t141.5 71.5t171 25.5q145 0 270 -66.5t211 -171.5q27 27 66 58.5t82 57.5t87 43.5t85 17.5q53 0 77.5 -26t24.5 -73q0 -84 -59.5 -169t-149.5 -157.5t-197.5 -124t-201.5 -69.5 q-51 -119 -104.5 -231.5t-123 -211t-161.5 -178t-221 -135.5q-80 -35 -175.5 -51t-181.5 -16q-92 0 -186 23.5t-171 72.5t-125 125t-48 182zM1190 1161q0 -76 46 -137t116.5 -104t153.5 -66t157 -23q29 0 54.5 1.5t43.5 5.5q55 109 126 210t159 193q-43 53 -96.5 95 t-112.5 71t-122.5 44t-125.5 15q-82 0 -154.5 -20.5t-127 -59t-86 -95t-31.5 -130.5zM1892 854q90 12 189.5 58t183.5 113t139.5 146.5t55.5 159.5q0 33 -19.5 53.5t-56.5 20.5t-79 -19.5t-82 -49t-73.5 -64.5t-54.5 -64q6 -10 18.5 -29.5t24.5 -40t21.5 -38t9.5 -19.5 q0 -8 -8 -8q-4 0 -24.5 39t-53.5 80q-63 -78 -106.5 -165t-84.5 -173z" />
<glyph unicode="&#x405;" horiz-adv-x="1593" d="M379 391q0 109 49 196t128 147.5t178.5 93t197.5 32.5q70 0 140.5 -17.5t127.5 -54t93 -95t36 -140.5q0 -80 -37 -142.5t-95 -106.5t-133 -67.5t-149 -23.5q-59 0 -110 10t-88 23.5t-58.5 26t-21.5 16.5q0 10 10 10q2 0 19.5 -9t49.5 -21.5t80 -21.5t115 -9 q70 0 140.5 19t127 59t91.5 99.5t35 139.5q0 70 -32 116t-82 74.5t-110.5 41t-117.5 12.5q-94 0 -189.5 -34t-171.5 -95.5t-123 -146.5t-47 -185q0 -84 47 -145.5t118 -101.5t151.5 -59.5t150.5 -19.5q190 0 319.5 65.5t222.5 173t160.5 248t135.5 287.5q-29 -2 -56.5 -5 t-58.5 -3q-86 0 -172 23.5t-155.5 68.5t-113.5 111t-44 152q0 82 35.5 148.5t96 112.5t141.5 71.5t171 25.5q145 0 270 -66.5t211 -171.5q27 27 66 58.5t82 57.5t87 43.5t85 17.5q53 0 77.5 -26t24.5 -73q0 -84 -59.5 -169t-149.5 -157.5t-197.5 -124t-201.5 -69.5 q-51 -119 -104.5 -231.5t-123 -211t-161.5 -178t-221 -135.5q-80 -35 -175.5 -51t-181.5 -16q-92 0 -186 23.5t-171 72.5t-125 125t-48 182zM1190 1161q0 -76 46 -137t116.5 -104t153.5 -66t157 -23q29 0 54.5 1.5t43.5 5.5q55 109 126 210t159 193q-43 53 -96.5 95 t-112.5 71t-122.5 44t-125.5 15q-82 0 -154.5 -20.5t-127 -59t-86 -95t-31.5 -130.5zM1892 854q90 12 189.5 58t183.5 113t139.5 146.5t55.5 159.5q0 33 -19.5 53.5t-56.5 20.5t-79 -19.5t-82 -49t-73.5 -64.5t-54.5 -64q6 -10 18.5 -29.5t24.5 -40t21.5 -38t9.5 -19.5 q0 -8 -8 -8q-4 0 -24.5 39t-53.5 80q-63 -78 -106.5 -165t-84.5 -173z" />
<glyph unicode="&#xbe;" horiz-adv-x="454" d="M289 92q0 57 51 58q16 0 29.5 -9.5t13.5 -23.5q0 -16 -4 -22.5t-10.5 -10.5t-10.5 -9t-4 -20q0 -31 35 -30q37 0 74 36.5t66.5 89t48 110.5t18.5 99q0 74 1 129.5t11 63.5l-4 4q-10 -6 -41 -40t-68.5 -77t-73.5 -85t-54 -62q-12 -16 -19 -17q-8 0 -8 9q0 10 23.5 34.5 t66.5 77.5q18 23 46 54.5t55.5 61.5t50 52.5t26.5 24.5q2 0 6 10t12.5 21.5t20.5 20.5t29 9q35 0 35 -30q0 -29 -27 -41.5t-55 -22.5q-4 -16 -6 -23.5t-2 -23.5q0 -57 7 -96t14 -70t14.5 -57.5t7.5 -57.5q0 -37 -16.5 -67.5t-41.5 -57.5v5l4 -5q51 35 86 74t62 70 q33 35 39 46t12 11q10 0 10 -12q0 -4 -26.5 -36t-57.5 -67q-84 -94 -159.5 -142t-161.5 -48q-35 0 -53.5 3t-38.5 20q-12 10 -22.5 31.5t-10.5 37.5z" />
<glyph unicode="&#x455;" horiz-adv-x="454" d="M289 92q0 57 51 58q16 0 29.5 -9.5t13.5 -23.5q0 -16 -4 -22.5t-10.5 -10.5t-10.5 -9t-4 -20q0 -31 35 -30q37 0 74 36.5t66.5 89t48 110.5t18.5 99q0 74 1 129.5t11 63.5l-4 4q-10 -6 -41 -40t-68.5 -77t-73.5 -85t-54 -62q-12 -16 -19 -17q-8 0 -8 9q0 10 23.5 34.5 t66.5 77.5q18 23 46 54.5t55.5 61.5t50 52.5t26.5 24.5q2 0 6 10t12.5 21.5t20.5 20.5t29 9q35 0 35 -30q0 -29 -27 -41.5t-55 -22.5q-4 -16 -6 -23.5t-2 -23.5q0 -57 7 -96t14 -70t14.5 -57.5t7.5 -57.5q0 -37 -16.5 -67.5t-41.5 -57.5v5l4 -5q51 35 86 74t62 70 q33 35 39 46t12 11q10 0 10 -12q0 -4 -26.5 -36t-57.5 -67q-84 -94 -159.5 -142t-161.5 -48q-35 0 -53.5 3t-38.5 20q-12 10 -22.5 31.5t-10.5 37.5z" />
<glyph unicode="&#xbf;" horiz-adv-x="454" d="M340 289q0 4 10 15t51 58q20 23 46 50.5t50.5 55.5t46 52.5t34.5 40.5l129 8q-92 -152 -148.5 -242.5t-86.5 -143t-40 -76t-10 -39.5q0 -27 12 -35t27 -8q25 0 53.5 14t59 35.5t60.5 48.5t54 53q20 20 42 44t39 44.5t29.5 33.5t14.5 13q12 0 12 -10q0 -4 -29.5 -40 t-95.5 -103q-152 -158 -241 -158q-47 0 -73 29.5t-26 76.5q0 51 20.5 102.5t50.5 100.5t63.5 94.5t60.5 83.5l-4 5q-18 -18 -59 -61.5t-115 -127.5q-16 -18 -20.5 -22.5t-8.5 -4.5q-8 1 -8 13zM496 766q0 35 16 58.5t55 23.5q59 0 60 -51q0 -41 -18.5 -64.5t-61.5 -23.5 q-25 0 -38 11t-13 46zM743 766q0 35 16.5 58.5t55.5 23.5q59 0 59 -51q0 -41 -18 -64.5t-61 -23.5q-25 0 -38.5 11t-13.5 46z" />
<glyph unicode="&#x457;" horiz-adv-x="454" d="M340 289q0 4 10 15t51 58q20 23 46 50.5t50.5 55.5t46 52.5t34.5 40.5l129 8q-92 -152 -148.5 -242.5t-86.5 -143t-40 -76t-10 -39.5q0 -27 12 -35t27 -8q25 0 53.5 14t59 35.5t60.5 48.5t54 53q20 20 42 44t39 44.5t29.5 33.5t14.5 13q12 0 12 -10q0 -4 -29.5 -40 t-95.5 -103q-152 -158 -241 -158q-47 0 -73 29.5t-26 76.5q0 51 20.5 102.5t50.5 100.5t63.5 94.5t60.5 83.5l-4 5q-18 -18 -59 -61.5t-115 -127.5q-16 -18 -20.5 -22.5t-8.5 -4.5q-8 1 -8 13zM496 766q0 35 16 58.5t55 23.5q59 0 60 -51q0 -41 -18.5 -64.5t-61.5 -23.5 q-25 0 -38 11t-13 46zM743 766q0 35 16.5 58.5t55.5 23.5q59 0 59 -51q0 -41 -18 -64.5t-61 -23.5q-25 0 -38.5 11t-13.5 46z" />
<glyph unicode="&#xc0;" horiz-adv-x="2162" d="M346 401q0 113 51.5 200t129 147.5t168.5 92t171 31.5q94 0 166 -25.5t121 -68.5t73.5 -98t24.5 -117q0 -80 -37.5 -143.5t-97 -107.5t-133.5 -67.5t-145 -23.5q-63 0 -79 4t-16 15q0 12 13 12q8 0 21.5 -3t39.5 -3q80 0 152.5 21.5t128 62.5t88.5 99t33 130 q0 104 -79 170t-235 66q-88 0 -178 -32t-162.5 -88.5t-119 -136t-46.5 -173.5q0 -76 40 -140.5t105.5 -111.5t149.5 -74t170 -27q207 0 380 69t341 212q-109 86 -182.5 194.5t-73.5 249.5q0 82 27.5 142.5t73 101.5t99.5 61.5t109 20.5q70 0 134.5 -23.5t120 -63.5 t99.5 -93.5t72 -112.5q160 174 299.5 299t249 205t185 118t110.5 38q10 0 10 -15q0 -4 -24.5 -31.5t-68.5 -83t-105.5 -142.5t-134.5 -208q-63 -102 -117.5 -202.5t-105 -201t-98.5 -201.5t-99 -202q43 0 87 10.5t93 28.5q43 16 71.5 36t48 36t30 27.5t14.5 11.5 q10 0 10 -10q0 -6 -23.5 -31t-68.5 -52.5t-113.5 -52t-156.5 -28.5l-46 -119h-147l57 127q-111 16 -218 50t-195 99q-70 -61 -151 -113t-173 -91t-196.5 -61.5t-217.5 -22.5q-106 0 -201.5 29.5t-167 85t-113.5 131t-42 167.5zM1407 700q0 -139 58.5 -232t138.5 -157 q119 100 224 212t216 225q-29 51 -62.5 97t-75.5 81t-93.5 55t-114.5 20q-53 0 -105.5 -17t-93.5 -54t-66.5 -94.5t-25.5 -135.5zM1628 295q86 -66 194.5 -98.5t207.5 -44.5q29 78 47 158.5t18 166.5q0 61 -11 130t-30 114q-109 -106 -209 -217t-217 -209zM2075 741 q27 -61 36 -124.5t9 -124.5q0 -94 -17 -189l4 -4q129 299 311.5 568.5t417.5 496.5l-4 4q-35 -4 -113.5 -56t-183 -137t-224 -197t-236.5 -237z" />
<glyph unicode="&#x410;" horiz-adv-x="2162" d="M346 401q0 113 51.5 200t129 147.5t168.5 92t171 31.5q94 0 166 -25.5t121 -68.5t73.5 -98t24.5 -117q0 -80 -37.5 -143.5t-97 -107.5t-133.5 -67.5t-145 -23.5q-63 0 -79 4t-16 15q0 12 13 12q8 0 21.5 -3t39.5 -3q80 0 152.5 21.5t128 62.5t88.5 99t33 130 q0 104 -79 170t-235 66q-88 0 -178 -32t-162.5 -88.5t-119 -136t-46.5 -173.5q0 -76 40 -140.5t105.5 -111.5t149.5 -74t170 -27q207 0 380 69t341 212q-109 86 -182.5 194.5t-73.5 249.5q0 82 27.5 142.5t73 101.5t99.5 61.5t109 20.5q70 0 134.5 -23.5t120 -63.5 t99.5 -93.5t72 -112.5q160 174 299.5 299t249 205t185 118t110.5 38q10 0 10 -15q0 -4 -24.5 -31.5t-68.5 -83t-105.5 -142.5t-134.5 -208q-63 -102 -117.5 -202.5t-105 -201t-98.5 -201.5t-99 -202q43 0 87 10.5t93 28.5q43 16 71.5 36t48 36t30 27.5t14.5 11.5 q10 0 10 -10q0 -6 -23.5 -31t-68.5 -52.5t-113.5 -52t-156.5 -28.5l-46 -119h-147l57 127q-111 16 -218 50t-195 99q-70 -61 -151 -113t-173 -91t-196.5 -61.5t-217.5 -22.5q-106 0 -201.5 29.5t-167 85t-113.5 131t-42 167.5zM1407 700q0 -139 58.5 -232t138.5 -157 q119 100 224 212t216 225q-29 51 -62.5 97t-75.5 81t-93.5 55t-114.5 20q-53 0 -105.5 -17t-93.5 -54t-66.5 -94.5t-25.5 -135.5zM1628 295q86 -66 194.5 -98.5t207.5 -44.5q29 78 47 158.5t18 166.5q0 61 -11 130t-30 114q-109 -106 -209 -217t-217 -209zM2075 741 q27 -61 36 -124.5t9 -124.5q0 -94 -17 -189l4 -4q129 299 311.5 568.5t417.5 496.5l-4 4q-35 -4 -113.5 -56t-183 -137t-224 -197t-236.5 -237z" />
<glyph unicode="&#xc1;" horiz-adv-x="1933" d="M457 985q0 8 25.5 70.5t88.5 150.5q41 57 97.5 109.5t123 91.5t142.5 61.5t156 22.5q70 0 136 -22.5t120 -65.5q57 14 123.5 24.5t140.5 10.5q53 0 120.5 -2t137 -5.5t134 -7.5t114.5 -6q23 -2 62.5 -1t81.5 2t78 4t52 5q63 10 105 17.5t47 5.5q6 -4 6 -10 q0 -8 -21.5 -29.5t-63.5 -43t-106.5 -39t-152.5 -17.5q-80 0 -145.5 3t-124 9t-112 14.5t-106.5 18.5q-72 12 -162 22.5t-188 5.5q47 -43 68.5 -112.5t21.5 -130.5q0 -111 -50 -225.5t-134 -207t-194.5 -150.5t-231.5 -58q-92 0 -156.5 55t-64.5 164q0 72 23.5 143.5 t62.5 139t91 126t109 101.5q92 72 199 107.5t205 58.5q-49 37 -107.5 54t-120.5 17q-82 0 -156.5 -23.5t-139 -61.5t-115.5 -85t-84 -96q-47 -68 -70.5 -112t-34 -69.5t-12.5 -34.5t-8 -9q-10 0 -10 10zM465 164q0 35 24.5 58.5t59.5 23.5q76 0 76 -74q0 -20 -10.5 -37.5 t-10.5 -34.5q0 -35 26.5 -61.5t92.5 -26.5q82 0 162 27t157.5 92.5t158.5 175t167 277.5q84 162 179 298t196 224q43 41 86 73.5t80 55t62.5 35t33.5 12.5t8 -8q0 -10 -17.5 -18.5t-43 -21.5t-55 -33.5t-56.5 -53.5q-47 -55 -91 -126t-87 -147.5t-86 -156.5t-88 -158 q-59 -100 -139 -202.5t-179.5 -184.5t-215 -133t-242.5 -51q-53 0 -98.5 13t-79 37.5t-52 56.5t-18.5 69zM657 713q0 -82 46.5 -131.5t140.5 -49.5q100 0 198.5 67t177 164t127 207.5t48.5 200.5q0 147 -62 209q-92 -14 -200.5 -54t-206.5 -112q-117 -86 -193 -213.5 t-76 -287.5zM1440 188q0 72 35.5 130.5t72.5 95.5q14 14 32.5 30.5t35 29.5t29 21.5t14.5 8.5q10 0 10 -12q0 -6 -25.5 -23.5t-72.5 -62.5t-77 -102.5t-30 -106.5q0 -86 56.5 -135.5t140.5 -49.5q86 0 156.5 44t123 114t81 151.5t28.5 159.5q0 70 -16.5 117t-41 77t-55 42 t-61.5 12q-25 0 -38 -4l-27 -8q-13 -4 -30.5 -8t-47.5 -4q-39 0 -39 28q0 16 17.5 24.5t62.5 8.5q29 0 62.5 -6t66.5 -15q55 -12 105 -38.5t89 -66.5t61.5 -91t22.5 -113q0 -92 -47 -173t-119.5 -142.5t-163 -97t-176.5 -35.5q-47 0 -89 14t-74.5 40t-52 62.5t-19.5 83.5z " />
<glyph unicode="&#x411;" horiz-adv-x="1933" d="M457 985q0 8 25.5 70.5t88.5 150.5q41 57 97.5 109.5t123 91.5t142.5 61.5t156 22.5q70 0 136 -22.5t120 -65.5q57 14 123.5 24.5t140.5 10.5q53 0 120.5 -2t137 -5.5t134 -7.5t114.5 -6q23 -2 62.5 -1t81.5 2t78 4t52 5q63 10 105 17.5t47 5.5q6 -4 6 -10 q0 -8 -21.5 -29.5t-63.5 -43t-106.5 -39t-152.5 -17.5q-80 0 -145.5 3t-124 9t-112 14.5t-106.5 18.5q-72 12 -162 22.5t-188 5.5q47 -43 68.5 -112.5t21.5 -130.5q0 -111 -50 -225.5t-134 -207t-194.5 -150.5t-231.5 -58q-92 0 -156.5 55t-64.5 164q0 72 23.5 143.5 t62.5 139t91 126t109 101.5q92 72 199 107.5t205 58.5q-49 37 -107.5 54t-120.5 17q-82 0 -156.5 -23.5t-139 -61.5t-115.5 -85t-84 -96q-47 -68 -70.5 -112t-34 -69.5t-12.5 -34.5t-8 -9q-10 0 -10 10zM465 164q0 35 24.5 58.5t59.5 23.5q76 0 76 -74q0 -20 -10.5 -37.5 t-10.5 -34.5q0 -35 26.5 -61.5t92.5 -26.5q82 0 162 27t157.5 92.5t158.5 175t167 277.5q84 162 179 298t196 224q43 41 86 73.5t80 55t62.5 35t33.5 12.5t8 -8q0 -10 -17.5 -18.5t-43 -21.5t-55 -33.5t-56.5 -53.5q-47 -55 -91 -126t-87 -147.5t-86 -156.5t-88 -158 q-59 -100 -139 -202.5t-179.5 -184.5t-215 -133t-242.5 -51q-53 0 -98.5 13t-79 37.5t-52 56.5t-18.5 69zM657 713q0 -82 46.5 -131.5t140.5 -49.5q100 0 198.5 67t177 164t127 207.5t48.5 200.5q0 147 -62 209q-92 -14 -200.5 -54t-206.5 -112q-117 -86 -193 -213.5 t-76 -287.5zM1440 188q0 72 35.5 130.5t72.5 95.5q14 14 32.5 30.5t35 29.5t29 21.5t14.5 8.5q10 0 10 -12q0 -6 -25.5 -23.5t-72.5 -62.5t-77 -102.5t-30 -106.5q0 -86 56.5 -135.5t140.5 -49.5q86 0 156.5 44t123 114t81 151.5t28.5 159.5q0 70 -16.5 117t-41 77t-55 42 t-61.5 12q-25 0 -38 -4l-27 -8q-13 -4 -30.5 -8t-47.5 -4q-39 0 -39 28q0 16 17.5 24.5t62.5 8.5q29 0 62.5 -6t66.5 -15q55 -12 105 -38.5t89 -66.5t61.5 -91t22.5 -113q0 -92 -47 -173t-119.5 -142.5t-163 -97t-176.5 -35.5q-47 0 -89 14t-74.5 40t-52 62.5t-19.5 83.5z " />
<glyph unicode="&#xc2;" horiz-adv-x="1933" d="M457 985q0 8 25.5 70.5t88.5 150.5q41 57 97.5 109.5t123 91.5t142.5 61.5t156 22.5q70 0 136 -22.5t120 -65.5q68 16 133 25.5t131 9.5q217 0 413 -80q35 18 73 38.5t71 20.5q8 0 8 -8q0 -4 -8 -7t-23.5 -8t-38 -16.5t-53.5 -31.5q84 -43 135 -113t51 -162 q0 -66 -30.5 -119t-79.5 -94t-108.5 -67.5t-116.5 -40.5v-5q57 -12 107 -39.5t88 -66.5t60.5 -90t22.5 -113q0 -92 -47 -173t-119.5 -142.5t-163 -97t-176.5 -35.5q-47 0 -89 14t-74.5 40t-52 62.5t-19.5 83.5q0 72 35.5 130.5t72.5 95.5q14 14 32.5 30.5t35 29.5t29 21.5 t14.5 8.5q10 0 10 -12q0 -6 -25.5 -23.5t-72.5 -62.5t-77 -102.5t-30 -106.5q0 -86 56.5 -135.5t140.5 -49.5q86 0 156.5 44t123 114t81 151.5t28.5 159.5q0 70 -16.5 117t-41 77t-55 42t-61.5 12q-25 0 -38 -4l-27 -8q-13 -4 -30.5 -8t-47.5 -4q-39 0 -39 28 q0 16 17.5 24.5t62.5 8.5q31 0 46 -2t27 -2q61 0 112.5 34.5t86.5 87t54.5 114t19.5 116.5q0 78 -22.5 127t-76.5 82q-94 -63 -167.5 -156.5t-135 -198t-117 -211t-112.5 -198.5q-61 -98 -143 -200.5t-180.5 -184.5t-212 -134t-240.5 -52q-53 0 -98.5 13t-79 37.5t-52 56.5 t-18.5 69q0 35 24.5 58.5t59.5 23.5q76 0 76 -74q0 -20 -10.5 -37.5t-10.5 -34.5q0 -35 26.5 -61.5t92.5 -26.5q82 0 162 27t157.5 92.5t158.5 175t167 277.5q68 131 134.5 239.5t141 200.5t160.5 170t189 145q-90 41 -190.5 57.5t-200.5 16.5q-115 0 -236 -29 q47 -43 68.5 -112.5t21.5 -130.5q0 -111 -50 -225.5t-134 -207t-194.5 -150.5t-231.5 -58q-92 0 -156.5 55t-64.5 164q0 117 66.5 226.5t169 200.5t224 155.5t232.5 91.5q-49 39 -108.5 56t-121.5 17q-82 0 -156.5 -23.5t-139 -61.5t-115.5 -85t-84 -96q-47 -68 -70.5 -112 t-34 -69.5t-12.5 -34.5t-8 -9q-10 0 -10 10zM657 713q0 -82 46.5 -131.5t140.5 -49.5q100 0 198.5 67t177 164t127 207.5t48.5 200.5q0 74 -15.5 125.5t-42.5 79.5q-102 -25 -221 -82t-221 -143t-170 -196.5t-68 -241.5z" />
<glyph unicode="&#x412;" horiz-adv-x="1933" d="M457 985q0 8 25.5 70.5t88.5 150.5q41 57 97.5 109.5t123 91.5t142.5 61.5t156 22.5q70 0 136 -22.5t120 -65.5q68 16 133 25.5t131 9.5q217 0 413 -80q35 18 73 38.5t71 20.5q8 0 8 -8q0 -4 -8 -7t-23.5 -8t-38 -16.5t-53.5 -31.5q84 -43 135 -113t51 -162 q0 -66 -30.5 -119t-79.5 -94t-108.5 -67.5t-116.5 -40.5v-5q57 -12 107 -39.5t88 -66.5t60.5 -90t22.5 -113q0 -92 -47 -173t-119.5 -142.5t-163 -97t-176.5 -35.5q-47 0 -89 14t-74.5 40t-52 62.5t-19.5 83.5q0 72 35.5 130.5t72.5 95.5q14 14 32.5 30.5t35 29.5t29 21.5 t14.5 8.5q10 0 10 -12q0 -6 -25.5 -23.5t-72.5 -62.5t-77 -102.5t-30 -106.5q0 -86 56.5 -135.5t140.5 -49.5q86 0 156.5 44t123 114t81 151.5t28.5 159.5q0 70 -16.5 117t-41 77t-55 42t-61.5 12q-25 0 -38 -4l-27 -8q-13 -4 -30.5 -8t-47.5 -4q-39 0 -39 28 q0 16 17.5 24.5t62.5 8.5q31 0 46 -2t27 -2q61 0 112.5 34.5t86.5 87t54.5 114t19.5 116.5q0 78 -22.5 127t-76.5 82q-94 -63 -167.5 -156.5t-135 -198t-117 -211t-112.5 -198.5q-61 -98 -143 -200.5t-180.5 -184.5t-212 -134t-240.5 -52q-53 0 -98.5 13t-79 37.5t-52 56.5 t-18.5 69q0 35 24.5 58.5t59.5 23.5q76 0 76 -74q0 -20 -10.5 -37.5t-10.5 -34.5q0 -35 26.5 -61.5t92.5 -26.5q82 0 162 27t157.5 92.5t158.5 175t167 277.5q68 131 134.5 239.5t141 200.5t160.5 170t189 145q-90 41 -190.5 57.5t-200.5 16.5q-115 0 -236 -29 q47 -43 68.5 -112.5t21.5 -130.5q0 -111 -50 -225.5t-134 -207t-194.5 -150.5t-231.5 -58q-92 0 -156.5 55t-64.5 164q0 117 66.5 226.5t169 200.5t224 155.5t232.5 91.5q-49 39 -108.5 56t-121.5 17q-82 0 -156.5 -23.5t-139 -61.5t-115.5 -85t-84 -96q-47 -68 -70.5 -112 t-34 -69.5t-12.5 -34.5t-8 -9q-10 0 -10 10zM657 713q0 -82 46.5 -131.5t140.5 -49.5q100 0 198.5 67t177 164t127 207.5t48.5 200.5q0 74 -15.5 125.5t-42.5 79.5q-102 -25 -221 -82t-221 -143t-170 -196.5t-68 -241.5z" />
<glyph unicode="&#xc3;" horiz-adv-x="1820" d="M317 410q0 96 46.5 181t123 148.5t175 100.5t204.5 37q68 0 138.5 -17.5t129 -55.5t96.5 -96.5t38 -138.5q0 -84 -39 -148.5t-102.5 -109.5t-141.5 -67.5t-156 -22.5q-49 0 -95 10.5t-82 23.5t-56.5 25.5t-20.5 18.5q0 12 7 12q8 0 26.5 -10t49 -22.5t74.5 -22.5t106 -10 q70 0 140.5 20.5t127.5 60.5t93 100t36 138q0 109 -85 175.5t-253 66.5q-96 0 -191.5 -33t-173 -91t-126 -137t-48.5 -173q0 -80 39 -146.5t108.5 -113.5t166 -74t211.5 -27q193 0 332 54.5t243.5 142.5t184 202.5t153.5 236.5t151.5 241t180.5 217q43 41 86 73.5t80 55 t62.5 35t33.5 12.5t8 -8q0 -10 -17.5 -18.5t-43 -21.5t-55 -33.5t-56.5 -53.5q-53 -66 -130 -191t-177 -317q-80 -152 -186.5 -272.5t-238.5 -204.5t-286.5 -129t-328.5 -45q-117 0 -219.5 28.5t-178 83t-120 132.5t-44.5 178zM1153 987q0 66 43 141.5t141.5 140t261 106.5 t402.5 42h483q86 0 144.5 5t98.5 11.5t65.5 11.5t48.5 5q6 0 6 -10q0 -6 -19.5 -26.5t-58.5 -43t-100.5 -41t-143.5 -18.5q-61 0 -107 4t-89 10t-88.5 12t-105.5 12.5t-140 10.5t-191 4q-139 0 -252.5 -32t-194.5 -84t-126 -117.5t-45 -135.5q0 -80 55 -126t145 -46 q96 0 176 29t146 72t116 92t85 92t52 71.5t19 28.5q12 0 13 -10q0 -6 -17.5 -41t-50.5 -84t-80 -103.5t-106.5 -100.5t-132 -76.5t-154.5 -30.5q-141 0 -220 64.5t-79 160.5z" />
<glyph unicode="&#x413;" horiz-adv-x="1820" d="M317 410q0 96 46.5 181t123 148.5t175 100.5t204.5 37q68 0 138.5 -17.5t129 -55.5t96.5 -96.5t38 -138.5q0 -84 -39 -148.5t-102.5 -109.5t-141.5 -67.5t-156 -22.5q-49 0 -95 10.5t-82 23.5t-56.5 25.5t-20.5 18.5q0 12 7 12q8 0 26.5 -10t49 -22.5t74.5 -22.5t106 -10 q70 0 140.5 20.5t127.5 60.5t93 100t36 138q0 109 -85 175.5t-253 66.5q-96 0 -191.5 -33t-173 -91t-126 -137t-48.5 -173q0 -80 39 -146.5t108.5 -113.5t166 -74t211.5 -27q193 0 332 54.5t243.5 142.5t184 202.5t153.5 236.5t151.5 241t180.5 217q43 41 86 73.5t80 55 t62.5 35t33.5 12.5t8 -8q0 -10 -17.5 -18.5t-43 -21.5t-55 -33.5t-56.5 -53.5q-53 -66 -130 -191t-177 -317q-80 -152 -186.5 -272.5t-238.5 -204.5t-286.5 -129t-328.5 -45q-117 0 -219.5 28.5t-178 83t-120 132.5t-44.5 178zM1153 987q0 66 43 141.5t141.5 140t261 106.5 t402.5 42h483q86 0 144.5 5t98.5 11.5t65.5 11.5t48.5 5q6 0 6 -10q0 -6 -19.5 -26.5t-58.5 -43t-100.5 -41t-143.5 -18.5q-61 0 -107 4t-89 10t-88.5 12t-105.5 12.5t-140 10.5t-191 4q-139 0 -252.5 -32t-194.5 -84t-126 -117.5t-45 -135.5q0 -80 55 -126t145 -46 q96 0 176 29t146 72t116 92t85 92t52 71.5t19 28.5q12 0 13 -10q0 -6 -17.5 -41t-50.5 -84t-80 -103.5t-106.5 -100.5t-132 -76.5t-154.5 -30.5q-141 0 -220 64.5t-79 160.5z" />
<glyph unicode="&#xc4;" horiz-adv-x="1820" d="M403 764q0 6 4.5 45t17.5 96.5t37.5 125t65.5 130.5q109 170 252.5 254t296.5 84q59 0 134 -20.5t135 -65.5q55 8 101 12.5t77 4.5q61 0 125.5 -9.5t126 -30t116 -50t95.5 -68.5q39 31 83 59.5t81.5 50t64.5 35t29 13.5q10 0 10 -19q0 -4 -21.5 -14.5t-55.5 -30.5 t-77 -50t-86 -75q76 -82 113 -185.5t37 -213.5q0 -215 -87 -375t-231.5 -266.5t-330 -159.5t-379.5 -53q-41 0 -83 6t-83 6q-53 0 -105.5 -6t-105.5 -6q-229 0 -230 67q0 35 86 35q53 0 99.5 -8t89.5 -17.5t85 -16.5t87 -7q74 0 143.5 54.5t134 138t125 187t113.5 202.5 q66 119 126 214t117.5 171.5t115 137t116.5 109.5q-35 37 -85 65t-108.5 47t-119 28.5t-117.5 9.5q-41 0 -86 -3t-82 -11q57 -55 84 -141.5t27 -159.5q0 -106 -43 -217t-118 -202t-175.5 -149.5t-212.5 -58.5q-61 0 -114.5 20.5t-91.5 58.5t-59.5 90t-21.5 116 q0 127 61.5 237.5t159 196.5t216 144t235.5 81q-51 35 -115.5 51.5t-128.5 16.5q-160 0 -282.5 -78t-215.5 -205q-57 -80 -85.5 -159t-43 -142.5t-20.5 -102t-14 -38.5q-9 0 -9 14zM748 659q0 -94 53 -133t139 -39q106 0 199.5 55.5t164 142.5t111.5 191.5t41 202.5 q0 82 -26.5 165t-86.5 140q-109 -33 -216 -101.5t-191 -163.5t-136 -212t-52 -248zM1001 16q35 2 75 -1t102 -3q186 0 359 55.5t307 161t215 257t81 345.5q0 104 -32.5 210t-108.5 184q-63 -72 -113.5 -151t-96.5 -161t-90 -166.5t-93 -168.5q-45 -78 -109.5 -165 t-142.5 -166t-168 -140.5t-185 -86.5v-4z" />
<glyph unicode="&#x414;" horiz-adv-x="1820" d="M403 764q0 6 4.5 45t17.5 96.5t37.5 125t65.5 130.5q109 170 252.5 254t296.5 84q59 0 134 -20.5t135 -65.5q55 8 101 12.5t77 4.5q61 0 125.5 -9.5t126 -30t116 -50t95.5 -68.5q39 31 83 59.5t81.5 50t64.5 35t29 13.5q10 0 10 -19q0 -4 -21.5 -14.5t-55.5 -30.5 t-77 -50t-86 -75q76 -82 113 -185.5t37 -213.5q0 -215 -87 -375t-231.5 -266.5t-330 -159.5t-379.5 -53q-41 0 -83 6t-83 6q-53 0 -105.5 -6t-105.5 -6q-229 0 -230 67q0 35 86 35q53 0 99.5 -8t89.5 -17.5t85 -16.5t87 -7q74 0 143.5 54.5t134 138t125 187t113.5 202.5 q66 119 126 214t117.5 171.5t115 137t116.5 109.5q-35 37 -85 65t-108.5 47t-119 28.5t-117.5 9.5q-41 0 -86 -3t-82 -11q57 -55 84 -141.5t27 -159.5q0 -106 -43 -217t-118 -202t-175.5 -149.5t-212.5 -58.5q-61 0 -114.5 20.5t-91.5 58.5t-59.5 90t-21.5 116 q0 127 61.5 237.5t159 196.5t216 144t235.5 81q-51 35 -115.5 51.5t-128.5 16.5q-160 0 -282.5 -78t-215.5 -205q-57 -80 -85.5 -159t-43 -142.5t-20.5 -102t-14 -38.5q-9 0 -9 14zM748 659q0 -94 53 -133t139 -39q106 0 199.5 55.5t164 142.5t111.5 191.5t41 202.5 q0 82 -26.5 165t-86.5 140q-109 -33 -216 -101.5t-191 -163.5t-136 -212t-52 -248zM1001 16q35 2 75 -1t102 -3q186 0 359 55.5t307 161t215 257t81 345.5q0 104 -32.5 210t-108.5 184q-63 -72 -113.5 -151t-96.5 -161t-90 -166.5t-93 -168.5q-45 -78 -109.5 -165 t-142.5 -166t-168 -140.5t-185 -86.5v-4z" />
<glyph unicode="&#xc5;" horiz-adv-x="1138" d="M489 1176q0 78 37 137t94.5 100t129 61.5t141.5 20.5q102 0 196.5 -38t172.5 -101q78 37 161.5 65.5t173.5 28.5q55 0 87 -23.5t32 -80.5q0 -47 -37 -97.5t-94 -97.5t-129 -88t-141.5 -73t-131 -51t-98.5 -21q10 -35 32 -61t61 -26q10 0 29.5 4.5t45.5 4.5 q29 0 55.5 -9.5t26.5 -21.5q0 -27 -47 -27q-53 0 -77.5 12.5t-43.5 12.5q-61 0 -146 -38t-162 -108.5t-130 -172t-53 -226.5q0 -115 46 -174t142 -74q-4 18 -6 39t-2 41q0 117 33 215.5t88 170t128 111.5t150 40q76 0 117 -53.5t41 -122.5q0 -90 -49 -173t-126 -147.5 t-169 -104.5t-176 -42q6 -66 23.5 -123.5t17.5 -67.5q0 -6 -10 -6q-8 0 -11.5 18.5t-19.5 69.5q-10 29 -15.5 58.5t-9.5 50.5q-70 0 -130 19.5t-105 56t-70.5 93t-25.5 130.5q0 111 56 202t144 159.5t192.5 112.5t200.5 58v4q-63 23 -120 78q-66 -16 -123 -16 q-84 0 -156 20.5t-125 57t-84 91t-31 122.5zM543 1221q0 -72 29.5 -123t78.5 -85t114.5 -50.5t139.5 -16.5q16 0 34.5 1t37.5 3q-2 14 -3 27.5t-1 30.5q0 57 23.5 107t62.5 93t86 77t94 58q-76 59 -166 93t-186 34q-49 0 -109.5 -15t-113 -46t-87 -78t-34.5 -110zM887 35 q0 -12 2 -23q80 -4 168 34t161.5 101.5t120.5 143.5t47 164q0 63 -32.5 103t-98.5 40q-61 0 -126.5 -52t-119 -132t-88 -174.5t-34.5 -178.5v-26zM1079 958q92 14 198.5 53.5t199 94.5t153 121.5t60.5 132.5t-95 65q-35 0 -72.5 -11t-74.5 -27.5t-72 -37t-63 -38.5 q35 -39 65.5 -73t30.5 -38q0 -12 -10 -12q-4 0 -9 6l-16 18q-10 12 -29.5 34t-52.5 52q-90 -66 -151.5 -151t-61.5 -189z" />
<glyph unicode="&#x415;" horiz-adv-x="1138" d="M489 1176q0 78 37 137t94.5 100t129 61.5t141.5 20.5q102 0 196.5 -38t172.5 -101q78 37 161.5 65.5t173.5 28.5q55 0 87 -23.5t32 -80.5q0 -47 -37 -97.5t-94 -97.5t-129 -88t-141.5 -73t-131 -51t-98.5 -21q10 -35 32 -61t61 -26q10 0 29.5 4.5t45.5 4.5 q29 0 55.5 -9.5t26.5 -21.5q0 -27 -47 -27q-53 0 -77.5 12.5t-43.5 12.5q-61 0 -146 -38t-162 -108.5t-130 -172t-53 -226.5q0 -115 46 -174t142 -74q-4 18 -6 39t-2 41q0 117 33 215.5t88 170t128 111.5t150 40q76 0 117 -53.5t41 -122.5q0 -90 -49 -173t-126 -147.5 t-169 -104.5t-176 -42q6 -66 23.5 -123.5t17.5 -67.5q0 -6 -10 -6q-8 0 -11.5 18.5t-19.5 69.5q-10 29 -15.5 58.5t-9.5 50.5q-70 0 -130 19.5t-105 56t-70.5 93t-25.5 130.5q0 111 56 202t144 159.5t192.5 112.5t200.5 58v4q-63 23 -120 78q-66 -16 -123 -16 q-84 0 -156 20.5t-125 57t-84 91t-31 122.5zM543 1221q0 -72 29.5 -123t78.5 -85t114.5 -50.5t139.5 -16.5q16 0 34.5 1t37.5 3q-2 14 -3 27.5t-1 30.5q0 57 23.5 107t62.5 93t86 77t94 58q-76 59 -166 93t-186 34q-49 0 -109.5 -15t-113 -46t-87 -78t-34.5 -110zM887 35 q0 -12 2 -23q80 -4 168 34t161.5 101.5t120.5 143.5t47 164q0 63 -32.5 103t-98.5 40q-61 0 -126.5 -52t-119 -132t-88 -174.5t-34.5 -178.5v-26zM1079 958q92 14 198.5 53.5t199 94.5t153 121.5t60.5 132.5t-95 65q-35 0 -72.5 -11t-74.5 -27.5t-72 -37t-63 -38.5 q35 -39 65.5 -73t30.5 -38q0 -12 -10 -12q-4 0 -9 6l-16 18q-10 12 -29.5 34t-52.5 52q-90 -66 -151.5 -151t-61.5 -189z" />
<glyph unicode="&#xc6;" horiz-adv-x="2236" d="M375 741q0 53 21.5 128t63.5 155t102.5 159t137 141t169 100t198.5 38q61 0 109.5 -16t70.5 -31q6 2 20.5 5t31 6.5t34 5.5t27.5 2q115 -6 168 -66.5t53 -171.5q0 -61 -12.5 -126.5t-30.5 -123t-36.5 -104.5t-31.5 -72q61 43 145.5 114.5t162.5 145.5q76 72 158.5 141.5 t154.5 147.5q18 20 33.5 43.5t34.5 46.5q14 20 30 21q6 0 14.5 -7.5t8.5 -17.5t-10.5 -20.5t-26.5 -28.5q-47 -51 -81 -101.5t-60 -115.5q-14 -35 -33 -92.5t-38 -117t-36.5 -112.5t-30.5 -78q-51 -104 -94 -194t-91 -173t-103.5 -167t-130.5 -176q23 8 57.5 33.5t74.5 62.5 t83 80t82 88q41 47 91 103.5t102 110.5t102.5 101t89.5 76q43 76 80.5 135.5t73.5 108.5t72 93t73 89q53 63 113.5 121.5t125 102.5t133 70t142.5 26q29 0 55.5 -4.5t47 -17.5t32.5 -36.5t12 -62.5q0 -45 -39 -89t-103.5 -87t-144 -85t-162.5 -84t-161 -84t-135 -85 q-35 -47 -78 -136.5t-81 -189.5t-63.5 -193.5t-25.5 -150.5q0 -47 19.5 -80t62.5 -33q63 0 129.5 44t122 97.5t92.5 97.5t45 44q10 0 10 -10l-18 -23q-18 -23 -50 -55.5t-73 -71.5t-85 -71.5t-88 -54t-83 -21.5q-84 0 -127 69.5t-43 192.5q0 86 27.5 181t76.5 204 q-59 -51 -142 -140t-198 -219q-66 -74 -129 -131t-115.5 -96t-88 -60.5t-46.5 -21.5q-16 0 -16 17q0 6 17.5 29.5t44 65.5t60.5 104.5t68 146.5q27 70 50.5 130t44 116.5t42 111.5t46.5 115q27 66 59.5 125t64 110.5t60.5 90t49 63.5q-53 -39 -115.5 -92t-111.5 -101 q-31 -29 -74 -66.5t-90 -75.5t-92 -75t-76 -61q-47 -76 -109.5 -171t-134.5 -188q-39 -51 -102 -116.5t-142 -122.5t-171 -96t-189 -39q-35 0 -70.5 8t-63.5 24.5t-45 42t-17 62.5q0 78 53 145.5t136 125t184.5 104.5t199.5 85t180 64.5t125 44.5q8 18 39 84t64.5 147 t59.5 162.5t26 133.5q0 33 -5.5 65.5t-19.5 59t-36.5 44t-57.5 19.5q-23 2 -47.5 -3t-42.5 -9q45 -43 60.5 -90t15.5 -107q0 -94 -42 -186t-112 -166t-160 -119t-184 -45q-76 0 -113 48t-37 118q0 88 52.5 178t131.5 166t169 132t168 79q-27 18 -75 25.5t-83 7.5 q-123 0 -231.5 -56.5t-194.5 -146.5t-144.5 -202.5t-82.5 -223.5q-10 -43 -11.5 -62.5t-11.5 -19.5t-10 14zM489 143q0 -66 30 -98.5t97 -32.5q96 0 189.5 58.5t179.5 151.5t160 210t131 232h2q-49 -16 -126 -41t-165 -60t-176 -79t-159.5 -96t-117 -113.5t-45.5 -131.5z M723 850q0 -53 26.5 -89t81.5 -36q80 0 165 51t156 128t116 166t45 167q0 45 -17.5 88t-54.5 66q-74 -23 -164 -76t-169 -127t-132 -162t-53 -176zM2398 840q88 55 203 114.5t218 119t175 116.5t72 110q0 49 -27.5 75t-68.5 26q-86 0 -160 -43t-142.5 -118t-134 -178 t-135.5 -222z" />
<glyph unicode="&#x416;" horiz-adv-x="2236" d="M375 741q0 53 21.5 128t63.5 155t102.5 159t137 141t169 100t198.5 38q61 0 109.5 -16t70.5 -31q6 2 20.5 5t31 6.5t34 5.5t27.5 2q115 -6 168 -66.5t53 -171.5q0 -61 -12.5 -126.5t-30.5 -123t-36.5 -104.5t-31.5 -72q61 43 145.5 114.5t162.5 145.5q76 72 158.5 141.5 t154.5 147.5q18 20 33.5 43.5t34.5 46.5q14 20 30 21q6 0 14.5 -7.5t8.5 -17.5t-10.5 -20.5t-26.5 -28.5q-47 -51 -81 -101.5t-60 -115.5q-14 -35 -33 -92.5t-38 -117t-36.5 -112.5t-30.5 -78q-51 -104 -94 -194t-91 -173t-103.5 -167t-130.5 -176q23 8 57.5 33.5t74.5 62.5 t83 80t82 88q41 47 91 103.5t102 110.5t102.5 101t89.5 76q43 76 80.5 135.5t73.5 108.5t72 93t73 89q53 63 113.5 121.5t125 102.5t133 70t142.5 26q29 0 55.5 -4.5t47 -17.5t32.5 -36.5t12 -62.5q0 -45 -39 -89t-103.5 -87t-144 -85t-162.5 -84t-161 -84t-135 -85 q-35 -47 -78 -136.5t-81 -189.5t-63.5 -193.5t-25.5 -150.5q0 -47 19.5 -80t62.5 -33q63 0 129.5 44t122 97.5t92.5 97.5t45 44q10 0 10 -10l-18 -23q-18 -23 -50 -55.5t-73 -71.5t-85 -71.5t-88 -54t-83 -21.5q-84 0 -127 69.5t-43 192.5q0 86 27.5 181t76.5 204 q-59 -51 -142 -140t-198 -219q-66 -74 -129 -131t-115.5 -96t-88 -60.5t-46.5 -21.5q-16 0 -16 17q0 6 17.5 29.5t44 65.5t60.5 104.5t68 146.5q27 70 50.5 130t44 116.5t42 111.5t46.5 115q27 66 59.5 125t64 110.5t60.5 90t49 63.5q-53 -39 -115.5 -92t-111.5 -101 q-31 -29 -74 -66.5t-90 -75.5t-92 -75t-76 -61q-47 -76 -109.5 -171t-134.5 -188q-39 -51 -102 -116.5t-142 -122.5t-171 -96t-189 -39q-35 0 -70.5 8t-63.5 24.5t-45 42t-17 62.5q0 78 53 145.5t136 125t184.5 104.5t199.5 85t180 64.5t125 44.5q8 18 39 84t64.5 147 t59.5 162.5t26 133.5q0 33 -5.5 65.5t-19.5 59t-36.5 44t-57.5 19.5q-23 2 -47.5 -3t-42.5 -9q45 -43 60.5 -90t15.5 -107q0 -94 -42 -186t-112 -166t-160 -119t-184 -45q-76 0 -113 48t-37 118q0 88 52.5 178t131.5 166t169 132t168 79q-27 18 -75 25.5t-83 7.5 q-123 0 -231.5 -56.5t-194.5 -146.5t-144.5 -202.5t-82.5 -223.5q-10 -43 -11.5 -62.5t-11.5 -19.5t-10 14zM489 143q0 -66 30 -98.5t97 -32.5q96 0 189.5 58.5t179.5 151.5t160 210t131 232h2q-49 -16 -126 -41t-165 -60t-176 -79t-159.5 -96t-117 -113.5t-45.5 -131.5z M723 850q0 -53 26.5 -89t81.5 -36q80 0 165 51t156 128t116 166t45 167q0 45 -17.5 88t-54.5 66q-74 -23 -164 -76t-169 -127t-132 -162t-53 -176zM2398 840q88 55 203 114.5t218 119t175 116.5t72 110q0 49 -27.5 75t-68.5 26q-86 0 -160 -43t-142.5 -118t-134 -178 t-135.5 -222z" />
<glyph unicode="&#xc7;" horiz-adv-x="1384" d="M430 985q0 8 25.5 70.5t89.5 150.5q41 57 100.5 109.5t128 91.5t143 61.5t146.5 22.5q74 0 108.5 -15.5t71.5 -31.5q25 8 70 15t71 7q41 0 93.5 -6t99.5 -33.5t80 -85t33 -157.5q0 -63 -30 -123t-78 -111t-107.5 -91t-118.5 -60q57 -12 107 -40t88 -68t60.5 -91 t22.5 -113v-13q0 -7 -2 -11q23 -14 39.5 -25.5t28.5 -21.5q16 -12 42.5 -34t59.5 -54q10 -10 4 -17.5t-12 -1.5q-37 37 -66.5 60.5t-39.5 31.5q-16 12 -36 26.5t-22 14.5q-12 -90 -70.5 -172t-145.5 -145.5t-195.5 -100t-221.5 -36.5t-194.5 26.5t-135 72.5t-79 105.5 t-25.5 124.5q0 68 36 129.5t99.5 106.5t149.5 71.5t186 26.5q129 0 247 -35.5t222 -83.5v3q0 70 -16.5 117.5t-41 76.5t-55 41t-61.5 12q-25 0 -38 -4l-26 -8q-13 -4 -30.5 -8t-48.5 -4q-39 0 -39 28q0 16 17.5 24.5t62.5 8.5q31 0 46 -2t27 -2q61 0 110.5 34t85.5 83 t55.5 107.5t19.5 107.5q0 53 -8.5 102t-32 89t-62 66t-100.5 34q-45 6 -102 -13q57 -59 81.5 -147t-20.5 -201q-35 -88 -83 -140t-98 -80t-96 -37t-75 -9q-45 0 -79 16.5t-56.5 41t-35.5 53t-16 53.5q-10 84 42.5 167t138.5 158q27 25 60.5 46.5t66 39t63.5 29.5t55 19 q-49 25 -78.5 28.5t-74.5 3.5q-82 0 -157 -23.5t-139.5 -61.5t-115.5 -85t-84 -96q-47 -68 -70.5 -112t-33.5 -69.5t-12.5 -34.5t-8.5 -9q-10 0 -10 10zM657 326q0 -88 39 -148.5t95.5 -97.5t117 -52.5t103.5 -15.5q221 0 351 131t140 367q-51 20 -110.5 41.5t-121 39 t-119.5 28t-110 10.5q-55 0 -121.5 -15.5t-125 -51.5t-98.5 -93t-40 -143zM813 983q0 -20 9 -45t29.5 -45.5t50.5 -34.5t73 -14q33 0 71.5 10t79.5 42t80 89t72 150q35 102 23.5 176.5t-64.5 105.5q-53 -10 -127 -47t-152 -108q-66 -61 -105.5 -134t-39.5 -145z" />
<glyph unicode="&#x417;" horiz-adv-x="1384" d="M430 985q0 8 25.5 70.5t89.5 150.5q41 57 100.5 109.5t128 91.5t143 61.5t146.5 22.5q74 0 108.5 -15.5t71.5 -31.5q25 8 70 15t71 7q41 0 93.5 -6t99.5 -33.5t80 -85t33 -157.5q0 -63 -30 -123t-78 -111t-107.5 -91t-118.5 -60q57 -12 107 -40t88 -68t60.5 -91 t22.5 -113v-13q0 -7 -2 -11q23 -14 39.5 -25.5t28.5 -21.5q16 -12 42.5 -34t59.5 -54q10 -10 4 -17.5t-12 -1.5q-37 37 -66.5 60.5t-39.5 31.5q-16 12 -36 26.5t-22 14.5q-12 -90 -70.5 -172t-145.5 -145.5t-195.5 -100t-221.5 -36.5t-194.5 26.5t-135 72.5t-79 105.5 t-25.5 124.5q0 68 36 129.5t99.5 106.5t149.5 71.5t186 26.5q129 0 247 -35.5t222 -83.5v3q0 70 -16.5 117.5t-41 76.5t-55 41t-61.5 12q-25 0 -38 -4l-26 -8q-13 -4 -30.5 -8t-48.5 -4q-39 0 -39 28q0 16 17.5 24.5t62.5 8.5q31 0 46 -2t27 -2q61 0 110.5 34t85.5 83 t55.5 107.5t19.5 107.5q0 53 -8.5 102t-32 89t-62 66t-100.5 34q-45 6 -102 -13q57 -59 81.5 -147t-20.5 -201q-35 -88 -83 -140t-98 -80t-96 -37t-75 -9q-45 0 -79 16.5t-56.5 41t-35.5 53t-16 53.5q-10 84 42.5 167t138.5 158q27 25 60.5 46.5t66 39t63.5 29.5t55 19 q-49 25 -78.5 28.5t-74.5 3.5q-82 0 -157 -23.5t-139.5 -61.5t-115.5 -85t-84 -96q-47 -68 -70.5 -112t-33.5 -69.5t-12.5 -34.5t-8.5 -9q-10 0 -10 10zM657 326q0 -88 39 -148.5t95.5 -97.5t117 -52.5t103.5 -15.5q221 0 351 131t140 367q-51 20 -110.5 41.5t-121 39 t-119.5 28t-110 10.5q-55 0 -121.5 -15.5t-125 -51.5t-98.5 -93t-40 -143zM813 983q0 -20 9 -45t29.5 -45.5t50.5 -34.5t73 -14q33 0 71.5 10t79.5 42t80 89t72 150q35 102 23.5 176.5t-64.5 105.5q-53 -10 -127 -47t-152 -108q-66 -61 -105.5 -134t-39.5 -145z" />
<glyph unicode="&#xc8;" horiz-adv-x="1705" d="M395 733q0 14 5.5 44t13.5 65t20 73.5t29 73.5q41 92 104.5 178t143.5 152.5t172 106.5t192 40q66 0 116 -13t87 -36q55 12 108 13q135 0 207 -66t72 -203q0 -88 -42 -187.5t-105.5 -201.5t-137 -204.5t-137 -194.5t-105.5 -170t-42 -133q0 -35 12 -46.5t45 -11.5 q39 0 113.5 41t166 119t191.5 187.5t191 248.5q125 190 210.5 323.5t142 221.5t89.5 136t52.5 72.5t30.5 30t25 7.5l103 6l-410 -639q-68 -106 -140.5 -211.5t-130.5 -200t-95 -169t-35 -119.5q0 -23 11 -38.5t34 -15.5q41 0 92 37t113 94q78 72 111.5 117t41.5 45 q14 0 15 -10q0 -2 -10.5 -14.5t-28 -32t-38 -43t-38.5 -43.5q-23 -25 -56.5 -55.5t-69.5 -57t-70.5 -44t-59.5 -17.5q-47 0 -67.5 31.5t-20.5 89.5q0 90 25.5 160.5t60.5 144.5l-4 4q-23 -31 -62 -76t-87 -92t-102 -94t-108.5 -85t-104.5 -60.5t-91 -22.5q-45 0 -77 34.5 t-32 94.5q0 86 42 183t105.5 198.5t137.5 204t137.5 198.5t105.5 181t42 153q0 45 -18.5 76.5t-47.5 52t-65.5 31t-73.5 10.5q-23 0 -46.5 -2t-47.5 -6q45 -37 63 -90.5t18 -112.5q0 -92 -41.5 -189.5t-113.5 -177t-166 -130t-199 -50.5q-98 0 -143 56.5t-45 142.5 q0 90 49 179t129 165t181.5 133t203.5 84q-63 35 -166 35q-115 0 -226.5 -56.5t-201.5 -153.5t-151.5 -226t-75.5 -275q-2 -27 -12 -26q-10 0 -11.5 8t-1.5 20zM702 856q0 -74 37 -125t109 -51q51 0 108.5 24.5t112.5 66.5t105.5 96.5t88 115.5t60.5 126t23 124 q0 47 -18.5 88t-59.5 68q-109 -23 -210.5 -79.5t-180 -130t-127 -158.5t-48.5 -165z" />
<glyph unicode="&#x418;" horiz-adv-x="1705" d="M395 733q0 14 5.5 44t13.5 65t20 73.5t29 73.5q41 92 104.5 178t143.5 152.5t172 106.5t192 40q66 0 116 -13t87 -36q55 12 108 13q135 0 207 -66t72 -203q0 -88 -42 -187.5t-105.5 -201.5t-137 -204.5t-137 -194.5t-105.5 -170t-42 -133q0 -35 12 -46.5t45 -11.5 q39 0 113.5 41t166 119t191.5 187.5t191 248.5q125 190 210.5 323.5t142 221.5t89.5 136t52.5 72.5t30.5 30t25 7.5l103 6l-410 -639q-68 -106 -140.5 -211.5t-130.5 -200t-95 -169t-35 -119.5q0 -23 11 -38.5t34 -15.5q41 0 92 37t113 94q78 72 111.5 117t41.5 45 q14 0 15 -10q0 -2 -10.5 -14.5t-28 -32t-38 -43t-38.5 -43.5q-23 -25 -56.5 -55.5t-69.5 -57t-70.5 -44t-59.5 -17.5q-47 0 -67.5 31.5t-20.5 89.5q0 90 25.5 160.5t60.5 144.5l-4 4q-23 -31 -62 -76t-87 -92t-102 -94t-108.5 -85t-104.5 -60.5t-91 -22.5q-45 0 -77 34.5 t-32 94.5q0 86 42 183t105.5 198.5t137.5 204t137.5 198.5t105.5 181t42 153q0 45 -18.5 76.5t-47.5 52t-65.5 31t-73.5 10.5q-23 0 -46.5 -2t-47.5 -6q45 -37 63 -90.5t18 -112.5q0 -92 -41.5 -189.5t-113.5 -177t-166 -130t-199 -50.5q-98 0 -143 56.5t-45 142.5 q0 90 49 179t129 165t181.5 133t203.5 84q-63 35 -166 35q-115 0 -226.5 -56.5t-201.5 -153.5t-151.5 -226t-75.5 -275q-2 -27 -12 -26q-10 0 -11.5 8t-1.5 20zM702 856q0 -74 37 -125t109 -51q51 0 108.5 24.5t112.5 66.5t105.5 96.5t88 115.5t60.5 126t23 124 q0 47 -18.5 88t-59.5 68q-109 -23 -210.5 -79.5t-180 -130t-127 -158.5t-48.5 -165z" />
<glyph unicode="&#xc9;" horiz-adv-x="1705" d="M395 733q0 14 5.5 44t13.5 65t20 73.5t29 73.5q41 92 104.5 178t143.5 152.5t172 106.5t192 40q66 0 116 -13t87 -36q55 12 108 13q135 0 207 -66t72 -203q0 -88 -42 -187.5t-105.5 -201.5t-137 -204.5t-137 -194.5t-105.5 -170t-42 -133q0 -35 12 -46.5t45 -11.5 q39 0 113.5 41t166 119t191.5 187.5t191 248.5q125 190 210.5 323.5t142 221.5t89.5 136t52.5 72.5t30.5 30t25 7.5l103 6l-410 -639q-68 -106 -140.5 -211.5t-130.5 -200t-95 -169t-35 -119.5q0 -23 11 -38.5t34 -15.5q41 0 92 37t113 94q78 72 111.5 117t41.5 45 q14 0 15 -10q0 -2 -10.5 -14.5t-28 -32t-38 -43t-38.5 -43.5q-23 -25 -56.5 -55.5t-69.5 -57t-70.5 -44t-59.5 -17.5q-47 0 -67.5 31.5t-20.5 89.5q0 90 25.5 160.5t60.5 144.5l-4 4q-23 -31 -62 -76t-87 -92t-102 -94t-108.5 -85t-104.5 -60.5t-91 -22.5q-45 0 -77 34.5 t-32 94.5q0 86 42 183t105.5 198.5t137.5 204t137.5 198.5t105.5 181t42 153q0 45 -18.5 76.5t-47.5 52t-65.5 31t-73.5 10.5q-23 0 -46.5 -2t-47.5 -6q45 -37 63 -90.5t18 -112.5q0 -92 -41.5 -189.5t-113.5 -177t-166 -130t-199 -50.5q-98 0 -143 56.5t-45 142.5 q0 90 49 179t129 165t181.5 133t203.5 84q-63 35 -166 35q-115 0 -226.5 -56.5t-201.5 -153.5t-151.5 -226t-75.5 -275q-2 -27 -12 -26q-10 0 -11.5 8t-1.5 20zM702 856q0 -74 37 -125t109 -51q51 0 108.5 24.5t112.5 66.5t105.5 96.5t88 115.5t60.5 126t23 124 q0 47 -18.5 88t-59.5 68q-109 -23 -210.5 -79.5t-180 -130t-127 -158.5t-48.5 -165zM1747 1694q0 35 19.5 60.5t56.5 25.5q35 0 59.5 -21.5t24.5 -56.5q0 -29 -10.5 -42t-10.5 -30q0 -33 23.5 -55.5t107.5 -24.5q23 0 53.5 4.5t61.5 17.5t59.5 36.5t49.5 62.5q16 29 22 71 t10 79q4 43 32 54t58 11q23 0 35 -15.5t12 -29.5q0 -31 -16 -64.5t-43 -67.5t-57.5 -62.5t-59.5 -47.5q-41 -27 -103.5 -50t-141.5 -23q-47 0 -91.5 11t-77 32.5t-53 53.5t-20.5 71z" />
<glyph unicode="&#x419;" horiz-adv-x="1705" d="M395 733q0 14 5.5 44t13.5 65t20 73.5t29 73.5q41 92 104.5 178t143.5 152.5t172 106.5t192 40q66 0 116 -13t87 -36q55 12 108 13q135 0 207 -66t72 -203q0 -88 -42 -187.5t-105.5 -201.5t-137 -204.5t-137 -194.5t-105.5 -170t-42 -133q0 -35 12 -46.5t45 -11.5 q39 0 113.5 41t166 119t191.5 187.5t191 248.5q125 190 210.5 323.5t142 221.5t89.5 136t52.5 72.5t30.5 30t25 7.5l103 6l-410 -639q-68 -106 -140.5 -211.5t-130.5 -200t-95 -169t-35 -119.5q0 -23 11 -38.5t34 -15.5q41 0 92 37t113 94q78 72 111.5 117t41.5 45 q14 0 15 -10q0 -2 -10.5 -14.5t-28 -32t-38 -43t-38.5 -43.5q-23 -25 -56.5 -55.5t-69.5 -57t-70.5 -44t-59.5 -17.5q-47 0 -67.5 31.5t-20.5 89.5q0 90 25.5 160.5t60.5 144.5l-4 4q-23 -31 -62 -76t-87 -92t-102 -94t-108.5 -85t-104.5 -60.5t-91 -22.5q-45 0 -77 34.5 t-32 94.5q0 86 42 183t105.5 198.5t137.5 204t137.5 198.5t105.5 181t42 153q0 45 -18.5 76.5t-47.5 52t-65.5 31t-73.5 10.5q-23 0 -46.5 -2t-47.5 -6q45 -37 63 -90.5t18 -112.5q0 -92 -41.5 -189.5t-113.5 -177t-166 -130t-199 -50.5q-98 0 -143 56.5t-45 142.5 q0 90 49 179t129 165t181.5 133t203.5 84q-63 35 -166 35q-115 0 -226.5 -56.5t-201.5 -153.5t-151.5 -226t-75.5 -275q-2 -27 -12 -26q-10 0 -11.5 8t-1.5 20zM702 856q0 -74 37 -125t109 -51q51 0 108.5 24.5t112.5 66.5t105.5 96.5t88 115.5t60.5 126t23 124 q0 47 -18.5 88t-59.5 68q-109 -23 -210.5 -79.5t-180 -130t-127 -158.5t-48.5 -165zM1747 1694q0 35 19.5 60.5t56.5 25.5q35 0 59.5 -21.5t24.5 -56.5q0 -29 -10.5 -42t-10.5 -30q0 -33 23.5 -55.5t107.5 -24.5q23 0 53.5 4.5t61.5 17.5t59.5 36.5t49.5 62.5q16 29 22 71 t10 79q4 43 32 54t58 11q23 0 35 -15.5t12 -29.5q0 -31 -16 -64.5t-43 -67.5t-57.5 -62.5t-59.5 -47.5q-41 -27 -103.5 -50t-141.5 -23q-47 0 -91.5 11t-77 32.5t-53 53.5t-20.5 71z" />
<glyph unicode="&#xca;" horiz-adv-x="2275" d="M379 389q0 100 45 190.5t119.5 157t173 105.5t205.5 39q70 0 138 -19.5t122.5 -58.5t88.5 -97.5t34 -136.5q0 -76 -39 -140t-100.5 -110.5t-138.5 -72t-153 -25.5q-41 0 -79.5 7.5t-69.5 17.5t-50.5 20t-19.5 17q0 12 13 12q2 0 17 -8t41 -17.5t61.5 -16.5t80.5 -7 q70 0 142.5 23.5t130 66.5t94.5 104.5t37 134.5q0 43 -20.5 83t-62.5 73t-103.5 52.5t-143.5 19.5q-96 0 -187 -31t-163 -89t-116 -140t-44 -183q0 -90 40 -155.5t104.5 -108.5t148.5 -63.5t172 -20.5q113 0 219.5 28t206.5 95.5t195.5 181t187.5 283.5q51 94 98 170 t100.5 147.5t116 143.5t144.5 156l-4 4q-31 -14 -70 -33t-79 -35t-80 -27.5t-74 -11.5q-70 0 -109 41t-39 133q0 43 4 59.5t4 26.5q0 14 -26 15q-43 -4 -115 -49.5t-176 -163.5q-43 -51 -69.5 -87t-41 -59.5t-20.5 -34t-10 -10.5q-12 0 -13 10q0 4 20.5 39t55.5 83t82 104.5 t101.5 102.5t112.5 77t116 29q47 0 74.5 -27t31.5 -111q2 -45 6 -72.5t10.5 -42t16.5 -18.5t22 -4q41 0 87.5 14.5t89.5 36t80.5 45t66.5 39.5q80 49 124 80t66.5 48.5t33 24.5t20.5 7q20 0 30.5 -10t10.5 -25q0 -23 -28 -36t-67.5 -27.5t-84 -33t-76.5 -48.5 q-41 -41 -87 -113t-101.5 -168t-120 -214t-144.5 -249q-166 -276 -398.5 -407t-496.5 -131q-125 0 -222 30.5t-163.5 85t-101.5 128t-35 157.5zM1956 684q0 20 33 21q63 0 125.5 29.5t118 75.5t103.5 98.5t85 99.5q72 88 150.5 164.5t159.5 134t162 90.5t159 33 q90 0 142 -41t52 -107q0 -33 -21.5 -53.5t-56.5 -20.5q-29 0 -55.5 15.5t-26.5 48.5q0 29 14.5 45t14.5 39t-25.5 36t-66.5 13q-37 0 -80 -19.5t-89 -55.5t-95 -86t-95 -109q-121 -158 -258 -269.5t-331 -169.5v-4q98 -37 149 -110.5t51 -163.5q0 -23 -6 -57.5t-12 -75.5 t-12.5 -84t-6.5 -84t13.5 -66.5t44.5 -25.5q23 0 75 29.5t126 107.5q76 78 105.5 115.5t35.5 37.5q10 0 10 -12q0 -4 -25.5 -34.5t-87.5 -98.5q-152 -170 -256 -170q-29 0 -59.5 17.5t-55 48t-41 74.5t-16.5 98q0 41 6.5 87t12.5 88t12 75.5t6 50.5q0 35 -11 59.5 t-28.5 40.5t-35 24.5t-29.5 8.5q-10 0 -24.5 -6.5t-24.5 -6.5q-12 0 -23.5 9.5t-11.5 15.5z" />
<glyph unicode="&#x41a;" horiz-adv-x="2275" d="M379 389q0 100 45 190.5t119.5 157t173 105.5t205.5 39q70 0 138 -19.5t122.5 -58.5t88.5 -97.5t34 -136.5q0 -76 -39 -140t-100.5 -110.5t-138.5 -72t-153 -25.5q-41 0 -79.5 7.5t-69.5 17.5t-50.5 20t-19.5 17q0 12 13 12q2 0 17 -8t41 -17.5t61.5 -16.5t80.5 -7 q70 0 142.5 23.5t130 66.5t94.5 104.5t37 134.5q0 43 -20.5 83t-62.5 73t-103.5 52.5t-143.5 19.5q-96 0 -187 -31t-163 -89t-116 -140t-44 -183q0 -90 40 -155.5t104.5 -108.5t148.5 -63.5t172 -20.5q113 0 219.5 28t206.5 95.5t195.5 181t187.5 283.5q51 94 98 170 t100.5 147.5t116 143.5t144.5 156l-4 4q-31 -14 -70 -33t-79 -35t-80 -27.5t-74 -11.5q-70 0 -109 41t-39 133q0 43 4 59.5t4 26.5q0 14 -26 15q-43 -4 -115 -49.5t-176 -163.5q-43 -51 -69.5 -87t-41 -59.5t-20.5 -34t-10 -10.5q-12 0 -13 10q0 4 20.5 39t55.5 83t82 104.5 t101.5 102.5t112.5 77t116 29q47 0 74.5 -27t31.5 -111q2 -45 6 -72.5t10.5 -42t16.5 -18.5t22 -4q41 0 87.5 14.5t89.5 36t80.5 45t66.5 39.5q80 49 124 80t66.5 48.5t33 24.5t20.5 7q20 0 30.5 -10t10.5 -25q0 -23 -28 -36t-67.5 -27.5t-84 -33t-76.5 -48.5 q-41 -41 -87 -113t-101.5 -168t-120 -214t-144.5 -249q-166 -276 -398.5 -407t-496.5 -131q-125 0 -222 30.5t-163.5 85t-101.5 128t-35 157.5zM1956 684q0 20 33 21q63 0 125.5 29.5t118 75.5t103.5 98.5t85 99.5q72 88 150.5 164.5t159.5 134t162 90.5t159 33 q90 0 142 -41t52 -107q0 -33 -21.5 -53.5t-56.5 -20.5q-29 0 -55.5 15.5t-26.5 48.5q0 29 14.5 45t14.5 39t-25.5 36t-66.5 13q-37 0 -80 -19.5t-89 -55.5t-95 -86t-95 -109q-121 -158 -258 -269.5t-331 -169.5v-4q98 -37 149 -110.5t51 -163.5q0 -23 -6 -57.5t-12 -75.5 t-12.5 -84t-6.5 -84t13.5 -66.5t44.5 -25.5q23 0 75 29.5t126 107.5q76 78 105.5 115.5t35.5 37.5q10 0 10 -12q0 -4 -25.5 -34.5t-87.5 -98.5q-152 -170 -256 -170q-29 0 -59.5 17.5t-55 48t-41 74.5t-16.5 98q0 41 6.5 87t12.5 88t12 75.5t6 50.5q0 35 -11 59.5 t-28.5 40.5t-35 24.5t-29.5 8.5q-10 0 -24.5 -6.5t-24.5 -6.5q-12 0 -23.5 9.5t-11.5 15.5z" />
<glyph unicode="&#xcb;" horiz-adv-x="1984" d="M346 401q0 113 51.5 200t129 147.5t168.5 92t171 31.5q94 0 166 -25.5t121 -68.5t73.5 -98t24.5 -117q0 -80 -37.5 -143.5t-97 -107.5t-133.5 -67.5t-145 -23.5q-63 0 -79 4t-16 15q0 12 13 12q8 0 21.5 -3t39.5 -3q80 0 152.5 21.5t128 62.5t88.5 99t33 130 q0 104 -79 170t-235 66q-88 0 -178 -32t-162.5 -88.5t-119 -136t-46.5 -173.5q0 -76 31 -140.5t85 -111.5t128 -74t162 -27q76 0 139.5 17.5t127 52.5t131 87t151.5 124q145 131 266 254t213 223q162 176 300 301t245.5 205t183.5 117t115 37q10 0 10 -15q0 -4 -24.5 -31.5 t-68.5 -83t-105.5 -142.5t-135.5 -208q-53 -94 -102 -185t-99 -183q-57 -104 -99 -182t-68.5 -137.5t-40 -103.5t-13.5 -81q0 -23 11.5 -38t33.5 -15q41 0 92.5 36.5t112.5 94.5q78 72 112 116.5t42 44.5q14 0 14 -10q0 -2 -10 -14t-27.5 -31.5t-38 -43t-39.5 -44.5 q-23 -25 -56.5 -55.5t-69 -57t-70.5 -44t-60 -17.5q-47 0 -67.5 33t-20.5 88q0 90 13.5 178t58.5 180q27 53 52.5 102.5t49.5 90.5q45 76 103.5 163t127 178t146.5 181t164 170l-4 4q-37 -10 -76 -31.5t-76 -50.5q-63 -49 -127.5 -100t-123 -102.5t-110.5 -99.5t-91 -87 q-160 -162 -310.5 -317.5t-310.5 -303.5q-70 -61 -131 -113t-128.5 -91t-146.5 -61.5t-182 -22.5q-98 0 -180 29.5t-140 85t-90 131t-32 167.5z" />
<glyph unicode="&#x41b;" horiz-adv-x="1984" d="M346 401q0 113 51.5 200t129 147.5t168.5 92t171 31.5q94 0 166 -25.5t121 -68.5t73.5 -98t24.5 -117q0 -80 -37.5 -143.5t-97 -107.5t-133.5 -67.5t-145 -23.5q-63 0 -79 4t-16 15q0 12 13 12q8 0 21.5 -3t39.5 -3q80 0 152.5 21.5t128 62.5t88.5 99t33 130 q0 104 -79 170t-235 66q-88 0 -178 -32t-162.5 -88.5t-119 -136t-46.5 -173.5q0 -76 31 -140.5t85 -111.5t128 -74t162 -27q76 0 139.5 17.5t127 52.5t131 87t151.5 124q145 131 266 254t213 223q162 176 300 301t245.5 205t183.5 117t115 37q10 0 10 -15q0 -4 -24.5 -31.5 t-68.5 -83t-105.5 -142.5t-135.5 -208q-53 -94 -102 -185t-99 -183q-57 -104 -99 -182t-68.5 -137.5t-40 -103.5t-13.5 -81q0 -23 11.5 -38t33.5 -15q41 0 92.5 36.5t112.5 94.5q78 72 112 116.5t42 44.5q14 0 14 -10q0 -2 -10 -14t-27.5 -31.5t-38 -43t-39.5 -44.5 q-23 -25 -56.5 -55.5t-69 -57t-70.5 -44t-60 -17.5q-47 0 -67.5 33t-20.5 88q0 90 13.5 178t58.5 180q27 53 52.5 102.5t49.5 90.5q45 76 103.5 163t127 178t146.5 181t164 170l-4 4q-37 -10 -76 -31.5t-76 -50.5q-63 -49 -127.5 -100t-123 -102.5t-110.5 -99.5t-91 -87 q-160 -162 -310.5 -317.5t-310.5 -303.5q-70 -61 -131 -113t-128.5 -91t-146.5 -61.5t-182 -22.5q-98 0 -180 29.5t-140 85t-90 131t-32 167.5z" />
<glyph unicode="&#xcc;" horiz-adv-x="2390" d="M334 406q0 90 41 171.5t111.5 143t164.5 98.5t199 37q94 0 167 -25.5t122 -68.5t74.5 -99.5t25.5 -117.5q0 -78 -34 -140.5t-89 -106.5t-128 -68.5t-148 -24.5q-41 0 -84 9t-80 20.5t-60.5 22.5t-23.5 17q0 12 12 13q4 0 21.5 -9.5t48.5 -19.5t72.5 -19.5t97.5 -9.5 q63 0 127.5 19.5t117 57.5t85 94.5t32.5 127.5q0 45 -19.5 90.5t-59.5 81t-101 57t-147 21.5q-84 0 -173.5 -25.5t-163 -74.5t-120.5 -123t-47 -170q0 -78 34.5 -145.5t91 -118.5t129 -80t146.5 -29q166 0 308.5 87t277.5 222.5t273.5 299t295.5 317.5q125 121 233.5 213 t190.5 153.5t132 93.5t59 32q16 0 16 -11q0 -4 -14.5 -18.5t-45 -48t-78.5 -92t-115.5 -153.5t-156 -230.5t-198.5 -321.5q-33 -55 -68 -125t-64.5 -133.5t-48 -111.5t-18.5 -58q0 -16 19 -16q14 0 33.5 14t62.5 61t118.5 139.5t204.5 247.5q186 227 337 389t258.5 265.5 t171 153t73.5 49.5q4 0 8 -4.5t4 -8.5t-34.5 -52t-99 -145.5t-159 -246t-210.5 -352.5q-123 -217 -168 -351.5t-45 -181.5q0 -33 11 -46t42 -13q33 0 71.5 20.5t77.5 51t76 67.5t66.5 67.5t48 51t22.5 20.5q10 0 11 -12q0 -2 -19.5 -26.5t-51.5 -58.5t-73 -73t-84 -72.5 t-85 -55t-77 -21.5q-147 0 -147 176q0 63 34 164.5t119 244t229 331t363 427.5l-4 4q-164 -135 -312 -289.5t-286.5 -316.5t-269.5 -321.5t-258 -303.5q-59 -68 -91 -86t-59 -18t-43 22.5t-16 65.5q0 111 74 265.5t191.5 324.5t263 339t290.5 310l-4 4q-47 -31 -115.5 -86 t-146.5 -123.5t-158 -143.5t-145 -142q-135 -139 -261 -289t-256 -275t-271.5 -204.5t-305.5 -79.5q-70 0 -147.5 26.5t-144 78.5t-110.5 131.5t-44 181.5z" />
<glyph unicode="&#x41c;" horiz-adv-x="2390" d="M334 406q0 90 41 171.5t111.5 143t164.5 98.5t199 37q94 0 167 -25.5t122 -68.5t74.5 -99.5t25.5 -117.5q0 -78 -34 -140.5t-89 -106.5t-128 -68.5t-148 -24.5q-41 0 -84 9t-80 20.5t-60.5 22.5t-23.5 17q0 12 12 13q4 0 21.5 -9.5t48.5 -19.5t72.5 -19.5t97.5 -9.5 q63 0 127.5 19.5t117 57.5t85 94.5t32.5 127.5q0 45 -19.5 90.5t-59.5 81t-101 57t-147 21.5q-84 0 -173.5 -25.5t-163 -74.5t-120.5 -123t-47 -170q0 -78 34.5 -145.5t91 -118.5t129 -80t146.5 -29q166 0 308.5 87t277.5 222.5t273.5 299t295.5 317.5q125 121 233.5 213 t190.5 153.5t132 93.5t59 32q16 0 16 -11q0 -4 -14.5 -18.5t-45 -48t-78.5 -92t-115.5 -153.5t-156 -230.5t-198.5 -321.5q-33 -55 -68 -125t-64.5 -133.5t-48 -111.5t-18.5 -58q0 -16 19 -16q14 0 33.5 14t62.5 61t118.5 139.5t204.5 247.5q186 227 337 389t258.5 265.5 t171 153t73.5 49.5q4 0 8 -4.5t4 -8.5t-34.5 -52t-99 -145.5t-159 -246t-210.5 -352.5q-123 -217 -168 -351.5t-45 -181.5q0 -33 11 -46t42 -13q33 0 71.5 20.5t77.5 51t76 67.5t66.5 67.5t48 51t22.5 20.5q10 0 11 -12q0 -2 -19.5 -26.5t-51.5 -58.5t-73 -73t-84 -72.5 t-85 -55t-77 -21.5q-147 0 -147 176q0 63 34 164.5t119 244t229 331t363 427.5l-4 4q-164 -135 -312 -289.5t-286.5 -316.5t-269.5 -321.5t-258 -303.5q-59 -68 -91 -86t-59 -18t-43 22.5t-16 65.5q0 111 74 265.5t191.5 324.5t263 339t290.5 310l-4 4q-47 -31 -115.5 -86 t-146.5 -123.5t-158 -143.5t-145 -142q-135 -139 -261 -289t-256 -275t-271.5 -204.5t-305.5 -79.5q-70 0 -147.5 26.5t-144 78.5t-110.5 131.5t-44 181.5z" />
<glyph unicode="&#xcd;" horiz-adv-x="2162" d="M346 379q0 115 46 207t124 156.5t179.5 99.5t209.5 35q66 0 130.5 -20.5t116.5 -58.5t84 -94.5t32 -128.5q0 -80 -39 -144t-102.5 -110.5t-141.5 -71t-154 -24.5q-41 0 -79.5 6.5t-69.5 14.5t-50.5 16t-19.5 14q0 14 15 15q2 0 18.5 -6t43 -14.5t60 -14.5t72.5 -6 q70 0 143.5 20.5t133 61.5t98.5 101.5t39 139.5q0 49 -23.5 92.5t-66.5 74t-102.5 49t-133.5 18.5q-98 0 -191 -33t-167 -92t-119 -144t-45 -190q0 -70 35 -130t97.5 -106t151.5 -73t197 -27q127 0 243 44t215 118t179 172t135 207q-37 -14 -80.5 -39t-83.5 -49.5t-68 -41.5 t-30 -17q-16 0 -16 10q0 8 29.5 28.5t74.5 46t99.5 54t103.5 53.5q33 55 84 136t111.5 168t128 169t135.5 137l-4 4q-39 -23 -83 -49t-90 -48.5t-94.5 -38t-95.5 -15.5q-141 0 -141 145q0 59 6 92t6 54q0 45 -30 45q-10 0 -34 -9.5t-61 -33t-86 -63.5t-110 -103 q-104 -111 -148.5 -180.5t-54.5 -69.5q-12 0 -12 12q0 2 18.5 30t48 67.5t69.5 88t83 91.5q88 90 170 146.5t166 56.5q63 0 85.5 -42t22.5 -92q0 -35 -4 -63.5t-4 -71.5q0 -45 10.5 -56t38.5 -11q39 0 86 16t97.5 43t102.5 59.5t103 65.5q31 20 64 48t65.5 53.5t62 44 t54.5 18.5q33 0 33 -25q0 -23 -25.5 -36t-65.5 -29.5t-90.5 -43t-97.5 -73.5q-45 -45 -90 -119t-90 -156.5t-89 -165.5t-83 -147q20 12 77.5 33.5t123 45.5t125 45.5t88.5 31.5q35 47 89 111.5t121.5 134t143.5 137t153.5 122t153.5 88.5t144 34q49 0 82.5 -23t33.5 -76 q0 -66 -43 -125t-112.5 -111.5t-156.5 -98.5t-174 -82.5t-167 -64.5t-133 -44q-29 -45 -75 -128t-90 -181.5t-77 -203t-33 -192.5q0 -31 12.5 -49t33.5 -18q47 0 104 35.5t135 109.5q61 59 87 92t34 33q10 0 10 -10q0 -6 -44 -55.5t-105 -106.5q-55 -51 -114.5 -91 t-106.5 -40q-59 0 -97.5 43t-38.5 154q0 90 18.5 171t47.5 151.5t63.5 129t67.5 105.5l-4 4l-92 -31q-55 -18 -112.5 -38.5t-111 -42t-83.5 -40.5q-74 -131 -169.5 -243.5t-214 -195.5t-260 -131t-305.5 -48q-115 0 -210 27.5t-163.5 78.5t-107.5 124t-39 161zM2410 848 q43 14 112 36.5t146.5 53.5t156.5 71t142.5 89t103.5 106.5t40 122.5q0 39 -18.5 54.5t-55.5 15.5q-66 0 -148.5 -49.5t-168.5 -127t-168.5 -176t-141.5 -196.5z" />
<glyph unicode="&#x41d;" horiz-adv-x="2162" d="M346 379q0 115 46 207t124 156.5t179.5 99.5t209.5 35q66 0 130.5 -20.5t116.5 -58.5t84 -94.5t32 -128.5q0 -80 -39 -144t-102.5 -110.5t-141.5 -71t-154 -24.5q-41 0 -79.5 6.5t-69.5 14.5t-50.5 16t-19.5 14q0 14 15 15q2 0 18.5 -6t43 -14.5t60 -14.5t72.5 -6 q70 0 143.5 20.5t133 61.5t98.5 101.5t39 139.5q0 49 -23.5 92.5t-66.5 74t-102.5 49t-133.5 18.5q-98 0 -191 -33t-167 -92t-119 -144t-45 -190q0 -70 35 -130t97.5 -106t151.5 -73t197 -27q127 0 243 44t215 118t179 172t135 207q-37 -14 -80.5 -39t-83.5 -49.5t-68 -41.5 t-30 -17q-16 0 -16 10q0 8 29.5 28.5t74.5 46t99.5 54t103.5 53.5q33 55 84 136t111.5 168t128 169t135.5 137l-4 4q-39 -23 -83 -49t-90 -48.5t-94.5 -38t-95.5 -15.5q-141 0 -141 145q0 59 6 92t6 54q0 45 -30 45q-10 0 -34 -9.5t-61 -33t-86 -63.5t-110 -103 q-104 -111 -148.5 -180.5t-54.5 -69.5q-12 0 -12 12q0 2 18.5 30t48 67.5t69.5 88t83 91.5q88 90 170 146.5t166 56.5q63 0 85.5 -42t22.5 -92q0 -35 -4 -63.5t-4 -71.5q0 -45 10.5 -56t38.5 -11q39 0 86 16t97.5 43t102.5 59.5t103 65.5q31 20 64 48t65.5 53.5t62 44 t54.5 18.5q33 0 33 -25q0 -23 -25.5 -36t-65.5 -29.5t-90.5 -43t-97.5 -73.5q-45 -45 -90 -119t-90 -156.5t-89 -165.5t-83 -147q20 12 77.5 33.5t123 45.5t125 45.5t88.5 31.5q35 47 89 111.5t121.5 134t143.5 137t153.5 122t153.5 88.5t144 34q49 0 82.5 -23t33.5 -76 q0 -66 -43 -125t-112.5 -111.5t-156.5 -98.5t-174 -82.5t-167 -64.5t-133 -44q-29 -45 -75 -128t-90 -181.5t-77 -203t-33 -192.5q0 -31 12.5 -49t33.5 -18q47 0 104 35.5t135 109.5q61 59 87 92t34 33q10 0 10 -10q0 -6 -44 -55.5t-105 -106.5q-55 -51 -114.5 -91 t-106.5 -40q-59 0 -97.5 43t-38.5 154q0 90 18.5 171t47.5 151.5t63.5 129t67.5 105.5l-4 4l-92 -31q-55 -18 -112.5 -38.5t-111 -42t-83.5 -40.5q-74 -131 -169.5 -243.5t-214 -195.5t-260 -131t-305.5 -48q-115 0 -210 27.5t-163.5 78.5t-107.5 124t-39 161zM2410 848 q43 14 112 36.5t146.5 53.5t156.5 71t142.5 89t103.5 106.5t40 122.5q0 39 -18.5 54.5t-55.5 15.5q-66 0 -148.5 -49.5t-168.5 -127t-168.5 -176t-141.5 -196.5z" />
<glyph unicode="&#xce;" horiz-adv-x="1593" d="M637 723q0 2 2 26.5t9 62.5t22.5 86t44.5 101q35 68 88 128.5t119.5 106.5t145.5 73.5t165 27.5q106 0 194 -35q111 70 218.5 110t199.5 40q119 0 186.5 -62.5t67.5 -181.5q0 -6 -1 -23.5t-4 -36t-8 -31.5t-13 -13q-6 0 -7 14q0 6 4.5 41t4.5 53q0 109 -63.5 162 t-166.5 53q-90 0 -185 -37.5t-194 -107.5q66 -27 123 -78q82 43 150 43q115 0 184.5 -81t69.5 -228q0 -98 -34 -206.5t-95.5 -216t-144.5 -205t-180 -171.5t-206.5 -118t-220.5 -44q-86 0 -145.5 35t-97.5 90.5t-55 126t-17 142.5q0 127 50 257t135 249.5t194.5 224 t226.5 182.5q-80 29 -172 29q-121 0 -221.5 -49.5t-175 -129t-119.5 -182t-53 -209.5q-2 -20 -5.5 -26t-7.5 -6q-12 0 -12 14zM915 279q0 -121 51.5 -200t161.5 -79q92 0 191.5 40t193 108.5t176.5 159.5t145 194.5t98 214t36 215.5q0 143 -60.5 216t-168.5 73 q-63 0 -133 -35q74 -72 111.5 -167t37.5 -194q0 -76 -28.5 -156.5t-80 -148t-122 -111.5t-154.5 -44t-140 51t-56 139q0 111 35.5 209t92 181t126 145.5t139.5 101.5q-25 23 -55.5 42t-65.5 30q-104 -78 -200.5 -187.5t-170.5 -238.5t-117 -271.5t-43 -287.5zM1198 567 q0 -78 37 -124t117 -46q82 0 145.5 51.5t107.5 128t66.5 162.5t22.5 158q0 86 -29 154.5t-82 124.5q-72 -37 -140.5 -100.5t-122.5 -144.5t-88 -175.5t-34 -188.5z" />
<glyph unicode="&#x41e;" horiz-adv-x="1593" d="M637 723q0 2 2 26.5t9 62.5t22.5 86t44.5 101q35 68 88 128.5t119.5 106.5t145.5 73.5t165 27.5q106 0 194 -35q111 70 218.5 110t199.5 40q119 0 186.5 -62.5t67.5 -181.5q0 -6 -1 -23.5t-4 -36t-8 -31.5t-13 -13q-6 0 -7 14q0 6 4.5 41t4.5 53q0 109 -63.5 162 t-166.5 53q-90 0 -185 -37.5t-194 -107.5q66 -27 123 -78q82 43 150 43q115 0 184.5 -81t69.5 -228q0 -98 -34 -206.5t-95.5 -216t-144.5 -205t-180 -171.5t-206.5 -118t-220.5 -44q-86 0 -145.5 35t-97.5 90.5t-55 126t-17 142.5q0 127 50 257t135 249.5t194.5 224 t226.5 182.5q-80 29 -172 29q-121 0 -221.5 -49.5t-175 -129t-119.5 -182t-53 -209.5q-2 -20 -5.5 -26t-7.5 -6q-12 0 -12 14zM915 279q0 -121 51.5 -200t161.5 -79q92 0 191.5 40t193 108.5t176.5 159.5t145 194.5t98 214t36 215.5q0 143 -60.5 216t-168.5 73 q-63 0 -133 -35q74 -72 111.5 -167t37.5 -194q0 -76 -28.5 -156.5t-80 -148t-122 -111.5t-154.5 -44t-140 51t-56 139q0 111 35.5 209t92 181t126 145.5t139.5 101.5q-25 23 -55.5 42t-65.5 30q-104 -78 -200.5 -187.5t-170.5 -238.5t-117 -271.5t-43 -287.5zM1198 567 q0 -78 37 -124t117 -46q82 0 145.5 51.5t107.5 128t66.5 162.5t22.5 158q0 86 -29 154.5t-82 124.5q-72 -37 -140.5 -100.5t-122.5 -144.5t-88 -175.5t-34 -188.5z" />
<glyph unicode="&#xcf;" horiz-adv-x="2064" d="M317 410q0 96 46.5 181t123 148.5t175 100.5t204.5 37q68 0 138.5 -17.5t129 -55.5t96.5 -96.5t38 -138.5q0 -84 -39 -148.5t-102.5 -109.5t-141.5 -67.5t-156 -22.5q-49 0 -95 10.5t-82 23.5t-56.5 25.5t-20.5 18.5q0 12 7 12q8 0 26.5 -10t49 -22.5t74.5 -22.5t106 -10 q70 0 140.5 20.5t127.5 60.5t93 100t36 138q0 109 -85 175.5t-253 66.5q-96 0 -191.5 -33t-173 -91t-126 -137t-48.5 -173q0 -80 39 -146.5t108.5 -113.5t166 -74t211.5 -27q193 0 332 54.5t243.5 142.5t184 202.5t153.5 236.5t151.5 241t180.5 217q43 41 86 73.5t80 55 t62.5 35t33.5 12.5t8 -8q0 -10 -17.5 -18.5t-43 -21.5t-55 -33.5t-56.5 -53.5q-53 -66 -130 -191t-177 -317q-80 -152 -186.5 -272.5t-238.5 -204.5t-286.5 -129t-328.5 -45q-117 0 -219.5 28.5t-178 83t-120 132.5t-44.5 178zM1153 987q0 66 43 141.5t141.5 140t261 107.5 t402.5 41l743 -4q76 2 130.5 8t93 12.5t64.5 11.5t46 5q6 0 6 -10q0 -6 -19.5 -26.5t-58 -43t-100 -41t-143.5 -18.5q-92 0 -190.5 8t-213 18.5t-251 18.5t-304.5 8q-139 0 -252.5 -32t-194.5 -84t-126 -117.5t-45 -135.5q0 -80 55 -126t145 -46q96 0 176 29t146 72t116 92 t85 92t52 71.5t19 28.5q12 0 13 -10q0 -6 -17.5 -41t-50.5 -84t-80 -103.5t-106.5 -100.5t-132 -76.5t-154.5 -30.5q-141 0 -220 64.5t-79 160.5zM1970 121q0 84 24.5 160.5t76.5 175.5q80 152 152.5 263t132 188t101.5 121t60 63q29 31 58.5 63.5t55 60t44 46t22.5 18.5 q8 0 8 -8q0 -16 -27.5 -43t-74.5 -80q-31 -37 -73 -103.5t-87 -144.5t-88 -155.5t-76 -135.5q-74 -127 -125 -212t-82.5 -145t-46 -100t-14.5 -75q0 -23 11.5 -38t33.5 -15q41 0 92.5 36.5t112.5 94.5q78 72 111.5 116.5t42.5 44.5q14 0 14 -10q0 -2 -10.5 -14t-27.5 -31.5 t-37.5 -43t-39.5 -44.5q-23 -25 -56.5 -55.5t-69.5 -57t-70.5 -44t-59.5 -17.5q-47 0 -67.5 32t-20.5 89z" />
<glyph unicode="&#x41f;" horiz-adv-x="2064" d="M317 410q0 96 46.5 181t123 148.5t175 100.5t204.5 37q68 0 138.5 -17.5t129 -55.5t96.5 -96.5t38 -138.5q0 -84 -39 -148.5t-102.5 -109.5t-141.5 -67.5t-156 -22.5q-49 0 -95 10.5t-82 23.5t-56.5 25.5t-20.5 18.5q0 12 7 12q8 0 26.5 -10t49 -22.5t74.5 -22.5t106 -10 q70 0 140.5 20.5t127.5 60.5t93 100t36 138q0 109 -85 175.5t-253 66.5q-96 0 -191.5 -33t-173 -91t-126 -137t-48.5 -173q0 -80 39 -146.5t108.5 -113.5t166 -74t211.5 -27q193 0 332 54.5t243.5 142.5t184 202.5t153.5 236.5t151.5 241t180.5 217q43 41 86 73.5t80 55 t62.5 35t33.5 12.5t8 -8q0 -10 -17.5 -18.5t-43 -21.5t-55 -33.5t-56.5 -53.5q-53 -66 -130 -191t-177 -317q-80 -152 -186.5 -272.5t-238.5 -204.5t-286.5 -129t-328.5 -45q-117 0 -219.5 28.5t-178 83t-120 132.5t-44.5 178zM1153 987q0 66 43 141.5t141.5 140t261 107.5 t402.5 41l743 -4q76 2 130.5 8t93 12.5t64.5 11.5t46 5q6 0 6 -10q0 -6 -19.5 -26.5t-58 -43t-100 -41t-143.5 -18.5q-92 0 -190.5 8t-213 18.5t-251 18.5t-304.5 8q-139 0 -252.5 -32t-194.5 -84t-126 -117.5t-45 -135.5q0 -80 55 -126t145 -46q96 0 176 29t146 72t116 92 t85 92t52 71.5t19 28.5q12 0 13 -10q0 -6 -17.5 -41t-50.5 -84t-80 -103.5t-106.5 -100.5t-132 -76.5t-154.5 -30.5q-141 0 -220 64.5t-79 160.5zM1970 121q0 84 24.5 160.5t76.5 175.5q80 152 152.5 263t132 188t101.5 121t60 63q29 31 58.5 63.5t55 60t44 46t22.5 18.5 q8 0 8 -8q0 -16 -27.5 -43t-74.5 -80q-31 -37 -73 -103.5t-87 -144.5t-88 -155.5t-76 -135.5q-74 -127 -125 -212t-82.5 -145t-46 -100t-14.5 -75q0 -23 11.5 -38t33.5 -15q41 0 92.5 36.5t112.5 94.5q78 72 111.5 116.5t42.5 44.5q14 0 14 -10q0 -2 -10.5 -14t-27.5 -31.5 t-37.5 -43t-39.5 -44.5q-23 -25 -56.5 -55.5t-69.5 -57t-70.5 -44t-59.5 -17.5q-47 0 -67.5 32t-20.5 89z" />
<glyph unicode="&#xd0;" horiz-adv-x="1593" d="M461 985q0 12 16.5 54t50 96.5t84 114t120 109.5t158.5 83t197 33q78 0 153 -27t114 -59q57 14 129.5 21t142.5 7q109 0 207 -19.5t166 -51.5q43 25 75.5 48t49.5 23q8 0 8 -10t-33 -27.5t-74 -46.5q96 -53 157 -142t61 -202q0 -78 -39 -145.5t-99.5 -117.5t-135.5 -79 t-146 -29q-29 0 -58.5 10.5t-53 23t-39 24.5t-15.5 18q0 10 12 11q2 0 13.5 -8.5t27.5 -18.5t37.5 -18.5t48.5 -8.5q76 0 138.5 39t106.5 98.5t67.5 133t23.5 141.5q0 78 -34 141.5t-103 104.5q-66 -45 -123 -118t-112.5 -166t-115 -202.5t-126.5 -228.5 q-68 -121 -157 -230.5t-192.5 -192.5t-217 -133t-232.5 -50q-47 0 -91 9t-78 29.5t-53.5 52.5t-19.5 77q0 35 19.5 60.5t56.5 25.5q35 0 59.5 -21.5t24.5 -56.5q0 -29 -10.5 -42t-10.5 -30q0 -33 30 -56.5t102 -23.5q90 0 168.5 36t147.5 95.5t127 136t107.5 157.5t91.5 161 t78 147q41 76 96.5 158t120 160t137 145.5t146.5 114.5q-86 41 -175 55.5t-167 14.5q-72 0 -132 -4.5t-120 -18.5q47 -53 64.5 -117.5t17.5 -132.5q0 -111 -51 -222.5t-135 -202.5t-192.5 -147t-223.5 -56q-45 0 -86 14t-71.5 41.5t-49 69.5t-18.5 100q0 78 32.5 153.5 t87 144t125 130t148.5 110t155.5 81t145.5 46.5q-49 35 -114.5 51.5t-125.5 16.5q-117 0 -225 -48t-196 -136q-55 -55 -90 -108.5t-55.5 -93.5t-31 -64.5t-16.5 -24.5q-4 0 -6 4t-2 6zM653 725q0 -96 48.5 -148.5t127.5 -52.5q100 0 200.5 62.5t181.5 158t132.5 210 t51.5 221.5q0 55 -8.5 104t-40.5 84q-125 -25 -249 -92.5t-222.5 -157.5t-160 -192.5t-61.5 -196.5z" />
<glyph unicode="&#x420;" horiz-adv-x="1593" d="M461 985q0 12 16.5 54t50 96.5t84 114t120 109.5t158.5 83t197 33q78 0 153 -27t114 -59q57 14 129.5 21t142.5 7q109 0 207 -19.5t166 -51.5q43 25 75.5 48t49.5 23q8 0 8 -10t-33 -27.5t-74 -46.5q96 -53 157 -142t61 -202q0 -78 -39 -145.5t-99.5 -117.5t-135.5 -79 t-146 -29q-29 0 -58.5 10.5t-53 23t-39 24.5t-15.5 18q0 10 12 11q2 0 13.5 -8.5t27.5 -18.5t37.5 -18.5t48.5 -8.5q76 0 138.5 39t106.5 98.5t67.5 133t23.5 141.5q0 78 -34 141.5t-103 104.5q-66 -45 -123 -118t-112.5 -166t-115 -202.5t-126.5 -228.5 q-68 -121 -157 -230.5t-192.5 -192.5t-217 -133t-232.5 -50q-47 0 -91 9t-78 29.5t-53.5 52.5t-19.5 77q0 35 19.5 60.5t56.5 25.5q35 0 59.5 -21.5t24.5 -56.5q0 -29 -10.5 -42t-10.5 -30q0 -33 30 -56.5t102 -23.5q90 0 168.5 36t147.5 95.5t127 136t107.5 157.5t91.5 161 t78 147q41 76 96.5 158t120 160t137 145.5t146.5 114.5q-86 41 -175 55.5t-167 14.5q-72 0 -132 -4.5t-120 -18.5q47 -53 64.5 -117.5t17.5 -132.5q0 -111 -51 -222.5t-135 -202.5t-192.5 -147t-223.5 -56q-45 0 -86 14t-71.5 41.5t-49 69.5t-18.5 100q0 78 32.5 153.5 t87 144t125 130t148.5 110t155.5 81t145.5 46.5q-49 35 -114.5 51.5t-125.5 16.5q-117 0 -225 -48t-196 -136q-55 -55 -90 -108.5t-55.5 -93.5t-31 -64.5t-16.5 -24.5q-4 0 -6 4t-2 6zM653 725q0 -96 48.5 -148.5t127.5 -52.5q100 0 200.5 62.5t181.5 158t132.5 210 t51.5 221.5q0 55 -8.5 104t-40.5 84q-125 -25 -249 -92.5t-222.5 -157.5t-160 -192.5t-61.5 -196.5z" />
<glyph unicode="&#xd1;" horiz-adv-x="1366" d="M457 1069q0 92 36.5 170t102.5 133t156 87t198 32q55 0 121 -14.5t130.5 -43t126 -73.5t110.5 -107q51 29 112.5 61t126 57.5t131 42t127.5 16.5q66 0 109 -31t43 -101q0 -61 -47 -128.5t-128 -134t-188.5 -128t-230.5 -109.5t-253 -79t-255 -35q-47 -100 -79 -207.5 t-32 -220.5q0 -125 44.5 -182.5t173.5 -61.5q-2 16 -4.5 31.5t-2.5 32.5q0 119 31 221t84 176t125 116t156 42q78 0 118.5 -51.5t40.5 -124.5q0 -88 -49 -169t-125.5 -144.5t-169 -104.5t-176.5 -47q8 -86 22.5 -134.5t14.5 -56.5q0 -12 -10 -12q-4 0 -12.5 22.5t-16.5 55.5 t-14 66.5t-8 56.5q-174 0 -263.5 97t-89.5 261q0 39 9.5 84t24 91t32.5 89t37 78q-78 6 -148.5 38t-124 82t-85 116.5t-31.5 144.5zM489 1106q0 -78 38 -140.5t96.5 -106.5t128 -68.5t135.5 -28.5q45 76 111.5 147.5t139 133t146.5 112.5t133 86q-90 111 -219 168t-268 57 q-96 0 -177 -29.5t-139.5 -79.5t-91.5 -115.5t-33 -135.5zM1014 754q139 0 271 26.5t249 70.5t214 100.5t167 117.5t108.5 121.5t38.5 112.5q0 41 -24.5 71.5t-85.5 30.5q-66 0 -135.5 -17.5t-135 -45t-124 -59.5t-99.5 -60q27 -35 48.5 -70t38 -64.5t25.5 -49t9 -21.5 q0 -12 -12 -12q-4 0 -10.5 13t-19.5 38.5t-35.5 64.5t-61.5 90q-135 -86 -240.5 -202.5t-185.5 -255.5zM1118 12q76 2 164 41t162 100.5t123 140.5t49 163q0 63 -31 102t-96 39q-66 0 -131.5 -50t-118.5 -128t-87 -174t-34 -189v-45z" />
<glyph unicode="&#x421;" horiz-adv-x="1366" d="M457 1069q0 92 36.5 170t102.5 133t156 87t198 32q55 0 121 -14.5t130.5 -43t126 -73.5t110.5 -107q51 29 112.5 61t126 57.5t131 42t127.5 16.5q66 0 109 -31t43 -101q0 -61 -47 -128.5t-128 -134t-188.5 -128t-230.5 -109.5t-253 -79t-255 -35q-47 -100 -79 -207.5 t-32 -220.5q0 -125 44.5 -182.5t173.5 -61.5q-2 16 -4.5 31.5t-2.5 32.5q0 119 31 221t84 176t125 116t156 42q78 0 118.5 -51.5t40.5 -124.5q0 -88 -49 -169t-125.5 -144.5t-169 -104.5t-176.5 -47q8 -86 22.5 -134.5t14.5 -56.5q0 -12 -10 -12q-4 0 -12.5 22.5t-16.5 55.5 t-14 66.5t-8 56.5q-174 0 -263.5 97t-89.5 261q0 39 9.5 84t24 91t32.5 89t37 78q-78 6 -148.5 38t-124 82t-85 116.5t-31.5 144.5zM489 1106q0 -78 38 -140.5t96.5 -106.5t128 -68.5t135.5 -28.5q45 76 111.5 147.5t139 133t146.5 112.5t133 86q-90 111 -219 168t-268 57 q-96 0 -177 -29.5t-139.5 -79.5t-91.5 -115.5t-33 -135.5zM1014 754q139 0 271 26.5t249 70.5t214 100.5t167 117.5t108.5 121.5t38.5 112.5q0 41 -24.5 71.5t-85.5 30.5q-66 0 -135.5 -17.5t-135 -45t-124 -59.5t-99.5 -60q27 -35 48.5 -70t38 -64.5t25.5 -49t9 -21.5 q0 -12 -12 -12q-4 0 -10.5 13t-19.5 38.5t-35.5 64.5t-61.5 90q-135 -86 -240.5 -202.5t-185.5 -255.5zM1118 12q76 2 164 41t162 100.5t123 140.5t49 163q0 63 -31 102t-96 39q-66 0 -131.5 -50t-118.5 -128t-87 -174t-34 -189v-45z" />
<glyph unicode="&#xd2;" horiz-adv-x="2392" d="M317 410q0 96 46.5 181t123 148.5t175 100.5t204.5 37q68 0 138.5 -17.5t129 -55.5t96.5 -96.5t38 -138.5q0 -84 -39 -148.5t-102.5 -109.5t-141.5 -67.5t-156 -22.5q-49 0 -95 10.5t-82 23.5t-56.5 25.5t-20.5 18.5q0 12 7 12q8 0 26.5 -10t49 -22.5t74.5 -22.5t106 -10 q70 0 140.5 20.5t127.5 60.5t93 100t36 138q0 109 -85 175.5t-253 66.5q-96 0 -191.5 -33t-173 -91t-126 -137t-48.5 -173q0 -80 39 -146.5t108.5 -113.5t166 -74t211.5 -27q193 0 332 54.5t243.5 142.5t184 202.5t153.5 236.5t151.5 241t180.5 217q43 41 86 73.5t80 55 t62.5 35t33.5 12.5t8 -8q0 -10 -17.5 -18.5t-43 -21.5t-55 -33.5t-56.5 -53.5q-53 -66 -130 -191t-177 -317q-80 -152 -186.5 -272.5t-238.5 -204.5t-286.5 -129t-328.5 -45q-117 0 -219.5 28.5t-178 83t-120 132.5t-44.5 178zM1153 987q0 43 16.5 90t53.5 94.5t96 88 t145 71.5q133 45 256 64.5t241 23.5t231.5 0t230.5 -4h637q145 2 232 18.5t120 16.5q6 0 6 -10q0 -6 -19.5 -26.5t-58.5 -43t-100.5 -41t-142.5 -18.5q-61 0 -149.5 5t-193 11t-220 14.5t-232.5 14.5q-135 6 -264 7t-234 1q-139 0 -252.5 -32t-194.5 -84t-126 -117.5 t-45 -135.5q0 -80 55 -126t145 -46q96 0 176 29t146 72t116 92t85 92t52 71.5t19 28.5q12 0 13 -10q0 -6 -17.5 -41t-50.5 -84t-80 -103.5t-106.5 -100.5t-132 -76.5t-154.5 -30.5q-141 0 -220 64.5t-79 160.5zM1736 2q-7 14 1 18q51 37 123.5 134.5t179.5 291.5 q80 147 140.5 251t104.5 173.5t73.5 111.5t51 65.5t35 36t25.5 22.5q31 29 72 59.5t78.5 57t69.5 43t44 16.5q6 0 6 -8t-17.5 -17.5t-43 -23.5t-55 -34.5t-56.5 -51.5q-29 -35 -71.5 -109.5t-90 -160.5t-92.5 -169t-76 -135q-35 -57 -83 -123.5t-99 -131t-102 -125 t-94 -105.5t-73 -72.5t-38 -27.5q-6 0 -13 14zM2290 121q0 76 24.5 150.5t75.5 172.5q82 158 156.5 272.5t135 192.5t102.5 122t61 63q29 31 58.5 63.5t55 60t44 46t22.5 18.5q8 0 8 -8q0 -16 -27.5 -43t-74.5 -80q-31 -37 -73 -103.5t-87 -144.5t-88 -155.5t-76 -135.5 q-74 -127 -127 -215t-86 -150.5t-48 -102.5t-15 -66q0 -23 11 -38t34 -15q41 0 92 36.5t112 94.5q78 72 112 116.5t42 44.5q14 0 14 -10q0 -2 -10 -14t-27.5 -31.5t-38 -43t-38.5 -44.5q-23 -25 -56.5 -55.5t-69.5 -57t-71 -44t-59 -17.5q-47 0 -67.5 32t-20.5 89z" />
<glyph unicode="&#x422;" horiz-adv-x="2392" d="M317 410q0 96 46.5 181t123 148.5t175 100.5t204.5 37q68 0 138.5 -17.5t129 -55.5t96.5 -96.5t38 -138.5q0 -84 -39 -148.5t-102.5 -109.5t-141.5 -67.5t-156 -22.5q-49 0 -95 10.5t-82 23.5t-56.5 25.5t-20.5 18.5q0 12 7 12q8 0 26.5 -10t49 -22.5t74.5 -22.5t106 -10 q70 0 140.5 20.5t127.5 60.5t93 100t36 138q0 109 -85 175.5t-253 66.5q-96 0 -191.5 -33t-173 -91t-126 -137t-48.5 -173q0 -80 39 -146.5t108.5 -113.5t166 -74t211.5 -27q193 0 332 54.5t243.5 142.5t184 202.5t153.5 236.5t151.5 241t180.5 217q43 41 86 73.5t80 55 t62.5 35t33.5 12.5t8 -8q0 -10 -17.5 -18.5t-43 -21.5t-55 -33.5t-56.5 -53.5q-53 -66 -130 -191t-177 -317q-80 -152 -186.5 -272.5t-238.5 -204.5t-286.5 -129t-328.5 -45q-117 0 -219.5 28.5t-178 83t-120 132.5t-44.5 178zM1153 987q0 43 16.5 90t53.5 94.5t96 88 t145 71.5q133 45 256 64.5t241 23.5t231.5 0t230.5 -4h637q145 2 232 18.5t120 16.5q6 0 6 -10q0 -6 -19.5 -26.5t-58.5 -43t-100.5 -41t-142.5 -18.5q-61 0 -149.5 5t-193 11t-220 14.5t-232.5 14.5q-135 6 -264 7t-234 1q-139 0 -252.5 -32t-194.5 -84t-126 -117.5 t-45 -135.5q0 -80 55 -126t145 -46q96 0 176 29t146 72t116 92t85 92t52 71.5t19 28.5q12 0 13 -10q0 -6 -17.5 -41t-50.5 -84t-80 -103.5t-106.5 -100.5t-132 -76.5t-154.5 -30.5q-141 0 -220 64.5t-79 160.5zM1736 2q-7 14 1 18q51 37 123.5 134.5t179.5 291.5 q80 147 140.5 251t104.5 173.5t73.5 111.5t51 65.5t35 36t25.5 22.5q31 29 72 59.5t78.5 57t69.5 43t44 16.5q6 0 6 -8t-17.5 -17.5t-43 -23.5t-55 -34.5t-56.5 -51.5q-29 -35 -71.5 -109.5t-90 -160.5t-92.5 -169t-76 -135q-35 -57 -83 -123.5t-99 -131t-102 -125 t-94 -105.5t-73 -72.5t-38 -27.5q-6 0 -13 14zM2290 121q0 76 24.5 150.5t75.5 172.5q82 158 156.5 272.5t135 192.5t102.5 122t61 63q29 31 58.5 63.5t55 60t44 46t22.5 18.5q8 0 8 -8q0 -16 -27.5 -43t-74.5 -80q-31 -37 -73 -103.5t-87 -144.5t-88 -155.5t-76 -135.5 q-74 -127 -127 -215t-86 -150.5t-48 -102.5t-15 -66q0 -23 11 -38t34 -15q41 0 92 36.5t112 94.5q78 72 112 116.5t42 44.5q14 0 14 -10q0 -2 -10 -14t-27.5 -31.5t-38 -43t-38.5 -44.5q-23 -25 -56.5 -55.5t-69.5 -57t-71 -44t-59 -17.5q-47 0 -67.5 32t-20.5 89z" />
<glyph unicode="&#xd3;" horiz-adv-x="1820" d="M338 127q0 100 52 185t133 146.5t177.5 96.5t186.5 35t164.5 -24.5t127 -67.5t81 -98.5t28.5 -116.5q0 -84 -39 -149.5t-100.5 -109.5t-138 -67t-152.5 -23q-27 0 -55.5 4.5t-53 10.5t-40 12t-15.5 12q0 10 11 11q6 0 15 -4.5t28.5 -8.5t51 -8t81.5 -4q63 0 130.5 22.5 t121 62.5t88 97.5t34.5 128.5q0 70 -27.5 118t-73.5 77t-104.5 42t-117.5 13q-96 0 -193.5 -32.5t-174.5 -92t-125 -145.5t-48 -191q0 -92 50.5 -155.5t125 -103.5t158.5 -57t152 -17q164 0 292.5 39.5t232 110.5t186.5 166t153.5 207.5t134 235.5t129.5 248 q-33 -47 -98.5 -113.5t-142 -129t-153.5 -106.5t-134 -44q-66 0 -90.5 38t-24.5 99q0 74 26.5 145.5t65.5 138t86 129t86 123t65.5 116t26.5 108.5q0 45 -20.5 78t-52 52t-72.5 28.5t-80 9.5q-88 0 -202.5 -39t-217 -106.5t-173.5 -159.5t-71 -197q0 -66 49.5 -105.5 t112.5 -39.5q86 0 184.5 56t188.5 163q51 59 77.5 118.5t40 105.5t18.5 75t16 29q14 0 14 -17q0 -12 -7 -59t-27.5 -109.5t-55.5 -132t-92.5 -128t-137.5 -96.5t-190 -38q-100 0 -157.5 51t-57.5 123q0 68 31.5 133.5t85 125t122 109.5t144.5 86t152.5 56.5t144.5 20.5 q131 0 209 -65t78 -230q0 -66 -27 -131.5t-66 -131t-86 -128t-86 -121t-65.5 -109.5t-26.5 -94q0 -31 18.5 -43t47.5 -12q33 0 95 30.5t137 83.5t152 126t136 159q154 219 279.5 351t218 201.5t148.5 91.5t73 22q14 0 14 -13q0 -10 -20.5 -17t-55.5 -21.5t-82 -42t-101 -77 t-111.5 -126t-114.5 -189.5q-27 -53 -66 -130t-84 -163t-95 -176t-100.5 -172t-97.5 -149.5t-88 -108.5q-166 -166 -384 -255t-453 -89q-96 0 -192.5 25.5t-174.5 79t-127 133t-49 188.5z" />
<glyph unicode="&#x423;" horiz-adv-x="1820" d="M338 127q0 100 52 185t133 146.5t177.5 96.5t186.5 35t164.5 -24.5t127 -67.5t81 -98.5t28.5 -116.5q0 -84 -39 -149.5t-100.5 -109.5t-138 -67t-152.5 -23q-27 0 -55.5 4.5t-53 10.5t-40 12t-15.5 12q0 10 11 11q6 0 15 -4.5t28.5 -8.5t51 -8t81.5 -4q63 0 130.5 22.5 t121 62.5t88 97.5t34.5 128.5q0 70 -27.5 118t-73.5 77t-104.5 42t-117.5 13q-96 0 -193.5 -32.5t-174.5 -92t-125 -145.5t-48 -191q0 -92 50.5 -155.5t125 -103.5t158.5 -57t152 -17q164 0 292.5 39.5t232 110.5t186.5 166t153.5 207.5t134 235.5t129.5 248 q-33 -47 -98.5 -113.5t-142 -129t-153.5 -106.5t-134 -44q-66 0 -90.5 38t-24.5 99q0 74 26.5 145.5t65.5 138t86 129t86 123t65.5 116t26.5 108.5q0 45 -20.5 78t-52 52t-72.5 28.5t-80 9.5q-88 0 -202.5 -39t-217 -106.5t-173.5 -159.5t-71 -197q0 -66 49.5 -105.5 t112.5 -39.5q86 0 184.5 56t188.5 163q51 59 77.5 118.5t40 105.5t18.5 75t16 29q14 0 14 -17q0 -12 -7 -59t-27.5 -109.5t-55.5 -132t-92.5 -128t-137.5 -96.5t-190 -38q-100 0 -157.5 51t-57.5 123q0 68 31.5 133.5t85 125t122 109.5t144.5 86t152.5 56.5t144.5 20.5 q131 0 209 -65t78 -230q0 -66 -27 -131.5t-66 -131t-86 -128t-86 -121t-65.5 -109.5t-26.5 -94q0 -31 18.5 -43t47.5 -12q33 0 95 30.5t137 83.5t152 126t136 159q154 219 279.5 351t218 201.5t148.5 91.5t73 22q14 0 14 -13q0 -10 -20.5 -17t-55.5 -21.5t-82 -42t-101 -77 t-111.5 -126t-114.5 -189.5q-27 -53 -66 -130t-84 -163t-95 -176t-100.5 -172t-97.5 -149.5t-88 -108.5q-166 -166 -384 -255t-453 -89q-96 0 -192.5 25.5t-174.5 79t-127 133t-49 188.5z" />
<glyph unicode="&#xd4;" horiz-adv-x="2656" d="M184 -186q0 115 46 202.5t122 148t171 92.5t192 32q78 0 149.5 -20.5t125.5 -59.5t87 -96.5t33 -130.5q0 -78 -37 -140.5t-95 -107.5t-131 -68.5t-147 -23.5q-53 0 -103 8t-88 20.5t-60.5 24.5t-22.5 18q0 4 4 7.5t8 3.5q6 0 24.5 -9.5t49.5 -19.5t75 -19.5t103 -9.5 q68 0 138.5 20.5t128 60.5t93 99.5t35.5 137.5q0 57 -25.5 102t-69.5 77t-103.5 48t-124.5 16q-94 0 -187.5 -28.5t-168 -86t-121.5 -142.5t-47 -197q0 -57 27.5 -116.5t81.5 -108t135 -79t186 -30.5q121 0 221 31.5t186 91t163 144.5t151 194q49 72 95 150.5t106.5 191 t142.5 272.5t202 393q61 106 144.5 224t181.5 223l43 43q-35 -31 -63.5 -58.5t-55 -55.5t-55.5 -57.5t-62 -66.5q-37 -41 -65.5 -75.5t-56 -70.5t-56 -76t-65.5 -91q-113 -154 -197 -255.5t-155.5 -160.5t-139 -83.5t-143.5 -24.5q-80 0 -135.5 26.5t-86 74.5t-37.5 112.5 t7 138.5q10 55 28.5 110.5t61.5 133.5q-23 12 -51.5 29.5t-54 46t-43 72.5t-17.5 110q0 63 30 121.5t83 102.5t127 69.5t162 25.5q72 0 166 -26.5t184 -98.5q86 39 175 59.5t179 20.5q41 0 64.5 -10t36 -25.5t15.5 -34t3 -34.5q0 -33 -19.5 -68t-47 -66.5t-57.5 -56.5 t-50 -37q-16 -10 -84 -52t-178 -89q-106 -45 -199.5 -67.5t-194.5 -24.5q-23 0 -52 3t-50 9q-31 -47 -62.5 -126t-31.5 -177q0 -12 4 -51t17.5 -81t40 -75t71.5 -33q72 0 134.5 23.5t131 81t149.5 154t189 239.5q51 68 89 119t74 96t75 88t92 96q59 59 125.5 115.5 t113.5 91.5q49 37 60 37q10 0 10 -14q0 -6 -20 -23q-29 -23 -68 -59.5t-74 -83.5q-41 -51 -66.5 -89t-47 -73t-41 -72t-45.5 -86q-35 -68 -59.5 -127t-39.5 -90q55 78 108.5 154t115.5 143q86 96 161.5 167t146 117t137.5 68.5t136 22.5q84 0 151.5 -48t84.5 -157 q12 -78 -10.5 -166t-61.5 -166q20 -12 46 -33.5t48.5 -51t37.5 -68.5t15 -88q0 -47 -12 -85t-29.5 -64.5t-35 -44t-29.5 -25.5q-10 -6 -11 1t3 11q6 6 20.5 18.5t29.5 33t26.5 54t11.5 82.5q0 31 -5 57.5t-21.5 52t-46.5 49.5t-79 46q-37 -68 -66.5 -117t-61 -90 t-70.5 -77.5t-90 -79.5q-94 -76 -203 -124t-256 -48q-92 0 -132 51t-40 127q0 43 25.5 93t70.5 101t108.5 98.5t139.5 84.5q80 39 180 61.5t201 24.5q23 0 53.5 -5.5t52.5 -9.5q25 63 46.5 149.5t19.5 155.5q-2 45 -14.5 77t-30 51.5t-34.5 27.5t-32 8q-45 0 -101.5 -14 t-126 -52t-151.5 -106.5t-178 -177.5q-92 -102 -164.5 -206.5t-144.5 -221.5q-35 -70 -69 -136.5t-67.5 -134t-70.5 -139t-78 -151.5q-90 -172 -197.5 -298t-230.5 -207t-257 -120t-277 -39q-106 0 -195.5 32t-153 87t-99.5 128t-36 153zM915 1221q0 -59 12.5 -97.5t34 -65 t52 -44t65.5 -31.5v-2q49 61 113.5 118.5t133.5 106.5t136.5 89t126.5 65q-66 49 -152.5 79.5t-164.5 30.5q-80 0 -145.5 -20t-112.5 -55t-73 -80t-26 -94zM1194 958q25 -6 57.5 -8t67.5 -1t69.5 3t63.5 6q55 6 118.5 27t125 47.5t112 53t78.5 44.5q2 2 18.5 12.5t36 26 t41 36t35.5 42.5q14 23 30.5 53.5t15.5 58t-25.5 47t-87.5 19.5q-162 0 -310 -75q14 -8 38 -32t46.5 -49.5t40 -46t17.5 -22.5q2 -4 -2 -8t-8 -4q-8 0 -18.5 16.5t-33.5 38.5q-20 20 -52 51t-48 43q-59 -33 -120.5 -76.5t-118 -93t-105.5 -103t-82 -106.5zM2030 500 q0 -18 4 -43t18 -48.5t41 -39t72 -15.5q119 0 217 53.5t176 131.5q68 68 123 149.5t115 198.5q-31 12 -66 14t-72 1t-71.5 -6t-61.5 -7q-90 -10 -179 -51t-159.5 -97.5t-113.5 -121t-43 -119.5z" />
<glyph unicode="&#x424;" horiz-adv-x="2656" d="M184 -186q0 115 46 202.5t122 148t171 92.5t192 32q78 0 149.5 -20.5t125.5 -59.5t87 -96.5t33 -130.5q0 -78 -37 -140.5t-95 -107.5t-131 -68.5t-147 -23.5q-53 0 -103 8t-88 20.5t-60.5 24.5t-22.5 18q0 4 4 7.5t8 3.5q6 0 24.5 -9.5t49.5 -19.5t75 -19.5t103 -9.5 q68 0 138.5 20.5t128 60.5t93 99.5t35.5 137.5q0 57 -25.5 102t-69.5 77t-103.5 48t-124.5 16q-94 0 -187.5 -28.5t-168 -86t-121.5 -142.5t-47 -197q0 -57 27.5 -116.5t81.5 -108t135 -79t186 -30.5q121 0 221 31.5t186 91t163 144.5t151 194q49 72 95 150.5t106.5 191 t142.5 272.5t202 393q61 106 144.5 224t181.5 223l43 43q-35 -31 -63.5 -58.5t-55 -55.5t-55.5 -57.5t-62 -66.5q-37 -41 -65.5 -75.5t-56 -70.5t-56 -76t-65.5 -91q-113 -154 -197 -255.5t-155.5 -160.5t-139 -83.5t-143.5 -24.5q-80 0 -135.5 26.5t-86 74.5t-37.5 112.5 t7 138.5q10 55 28.5 110.5t61.5 133.5q-23 12 -51.5 29.5t-54 46t-43 72.5t-17.5 110q0 63 30 121.5t83 102.5t127 69.5t162 25.5q72 0 166 -26.5t184 -98.5q86 39 175 59.5t179 20.5q41 0 64.5 -10t36 -25.5t15.5 -34t3 -34.5q0 -33 -19.5 -68t-47 -66.5t-57.5 -56.5 t-50 -37q-16 -10 -84 -52t-178 -89q-106 -45 -199.5 -67.5t-194.5 -24.5q-23 0 -52 3t-50 9q-31 -47 -62.5 -126t-31.5 -177q0 -12 4 -51t17.5 -81t40 -75t71.5 -33q72 0 134.5 23.5t131 81t149.5 154t189 239.5q51 68 89 119t74 96t75 88t92 96q59 59 125.5 115.5 t113.5 91.5q49 37 60 37q10 0 10 -14q0 -6 -20 -23q-29 -23 -68 -59.5t-74 -83.5q-41 -51 -66.5 -89t-47 -73t-41 -72t-45.5 -86q-35 -68 -59.5 -127t-39.5 -90q55 78 108.5 154t115.5 143q86 96 161.5 167t146 117t137.5 68.5t136 22.5q84 0 151.5 -48t84.5 -157 q12 -78 -10.5 -166t-61.5 -166q20 -12 46 -33.5t48.5 -51t37.5 -68.5t15 -88q0 -47 -12 -85t-29.5 -64.5t-35 -44t-29.5 -25.5q-10 -6 -11 1t3 11q6 6 20.5 18.5t29.5 33t26.5 54t11.5 82.5q0 31 -5 57.5t-21.5 52t-46.5 49.5t-79 46q-37 -68 -66.5 -117t-61 -90 t-70.5 -77.5t-90 -79.5q-94 -76 -203 -124t-256 -48q-92 0 -132 51t-40 127q0 43 25.5 93t70.5 101t108.5 98.5t139.5 84.5q80 39 180 61.5t201 24.5q23 0 53.5 -5.5t52.5 -9.5q25 63 46.5 149.5t19.5 155.5q-2 45 -14.5 77t-30 51.5t-34.5 27.5t-32 8q-45 0 -101.5 -14 t-126 -52t-151.5 -106.5t-178 -177.5q-92 -102 -164.5 -206.5t-144.5 -221.5q-35 -70 -69 -136.5t-67.5 -134t-70.5 -139t-78 -151.5q-90 -172 -197.5 -298t-230.5 -207t-257 -120t-277 -39q-106 0 -195.5 32t-153 87t-99.5 128t-36 153zM915 1221q0 -59 12.5 -97.5t34 -65 t52 -44t65.5 -31.5v-2q49 61 113.5 118.5t133.5 106.5t136.5 89t126.5 65q-66 49 -152.5 79.5t-164.5 30.5q-80 0 -145.5 -20t-112.5 -55t-73 -80t-26 -94zM1194 958q25 -6 57.5 -8t67.5 -1t69.5 3t63.5 6q55 6 118.5 27t125 47.5t112 53t78.5 44.5q2 2 18.5 12.5t36 26 t41 36t35.5 42.5q14 23 30.5 53.5t15.5 58t-25.5 47t-87.5 19.5q-162 0 -310 -75q14 -8 38 -32t46.5 -49.5t40 -46t17.5 -22.5q2 -4 -2 -8t-8 -4q-8 0 -18.5 16.5t-33.5 38.5q-20 20 -52 51t-48 43q-59 -33 -120.5 -76.5t-118 -93t-105.5 -103t-82 -106.5zM2030 500 q0 -18 4 -43t18 -48.5t41 -39t72 -15.5q119 0 217 53.5t176 131.5q68 68 123 149.5t115 198.5q-31 12 -66 14t-72 1t-71.5 -6t-61.5 -7q-90 -10 -179 -51t-159.5 -97.5t-113.5 -121t-43 -119.5z" />
</font>
</defs>
</svg>
